<svg width="40" height="40" viewBox="0 0 40 40" fill="none" xmlns="http://www.w3.org/2000/svg">
<circle cx="20" cy="20" r="20" fill="url(#paint0_linear_26_453)"/>
<path d="M19.0628 21.96V21.46C19.0628 21.2467 19.0161 21.06 18.9228 20.9C18.8295 20.74 18.6695 20.5733 18.4428 20.4C18.2295 20.2267 17.9228 20.0133 17.5228 19.76C16.9761 19.4 16.5295 19.04 16.1828 18.68C15.8361 18.3067 15.5828 17.9067 15.4228 17.48C15.2761 17.0533 15.2028 16.5867 15.2028 16.08C15.2028 15.0133 15.6095 14.1533 16.4228 13.5C17.2361 12.8467 18.3828 12.52 19.8628 12.52C20.8495 12.52 21.7561 12.6467 22.5828 12.9C23.4228 13.14 24.2095 13.4733 24.9428 13.9L23.5828 16.56C22.9295 16.2133 22.3161 15.9533 21.7428 15.78C21.1695 15.6067 20.6361 15.52 20.1428 15.52C19.7428 15.52 19.4161 15.6 19.1628 15.76C18.9228 15.92 18.8028 16.1333 18.8028 16.4C18.8028 16.5733 18.8295 16.7467 18.8828 16.92C18.9495 17.0933 19.0895 17.2867 19.3028 17.5C19.5161 17.7 19.8428 17.94 20.2828 18.22C20.7495 18.5133 21.1095 18.8067 21.3628 19.1C21.6295 19.3933 21.8095 19.7067 21.9028 20.04C22.0095 20.36 22.0628 20.72 22.0628 21.12V21.96H19.0628ZM20.4228 27.24C19.8761 27.24 19.4028 27.0933 19.0028 26.8C18.6028 26.5067 18.4028 26.0333 18.4028 25.38C18.4028 24.6867 18.6028 24.2 19.0028 23.92C19.4028 23.64 19.8761 23.5 20.4228 23.5C20.9961 23.5 21.4828 23.64 21.8828 23.92C22.2828 24.2 22.4828 24.6867 22.4828 25.38C22.4828 26.0333 22.2828 26.5067 21.8828 26.8C21.4828 27.0933 20.9961 27.24 20.4228 27.24Z" fill="#04060C"/>
<defs>
<linearGradient id="paint0_linear_26_453" x1="40" y1="27.4627" x2="-5.25646e-07" y2="9.55224" gradientUnits="userSpaceOnUse">
<stop stop-color="#F8A34A"/>
<stop offset="1" stop-color="#FCD65D"/>
</linearGradient>
</defs>
</svg>
