<?xml version="1.0" encoding="UTF-8"?>
<svg xmlns="http://www.w3.org/2000/svg" width="104" height="40" viewBox="0 0 104 40" fill="none">
  <path opacity="0.6" d="M79.671 19.624L81.833 12.159C81.852 12.091 81.865 12.021 81.873 11.951C81.883 11.886 81.888 11.821 81.888 11.756C81.8963 11.6808 81.8868 11.6046 81.8602 11.5337C81.8336 11.4628 81.7907 11.3992 81.735 11.348C81.634 11.281 81.344 11.244 80.871 11.244H80.143L80.255 10.74C80.807 10.72 81.358 10.658 81.901 10.557C82.391 10.463 82.872 10.328 83.341 10.155H83.918L81.706 17.775C82.6624 16.8222 83.7093 15.9648 84.832 15.215C85.779 14.612 86.535 14.305 87.099 14.305C87.396 14.305 87.609 14.374 87.756 14.508C87.8327 14.5949 87.8912 14.6963 87.928 14.8063C87.9647 14.9162 87.979 15.0324 87.97 15.148C87.9668 15.2558 87.9528 15.363 87.928 15.468C87.903 15.596 87.868 15.742 87.828 15.897L86.212 21.087C86.1808 21.1966 86.1554 21.3077 86.136 21.42C86.1142 21.5361 86.1032 21.6539 86.103 21.772C86.107 21.842 86.14 21.907 86.193 21.95C86.253 22.001 86.322 22.092 86.4 22.092C86.557 22.092 86.783 21.926 87.055 21.722C87.377 21.475 87.672 21.194 87.935 20.884L88.265 21.153C87.801 21.7263 87.2606 22.2333 86.659 22.66C86.141 23.009 85.665 23.183 85.232 23.184C84.9917 23.1972 84.7542 23.1276 84.559 22.987C84.478 22.9227 84.4135 22.8399 84.3709 22.7457C84.3282 22.6514 84.3088 22.5483 84.314 22.445C84.314 22.357 84.323 22.269 84.339 22.182C84.361 22.079 84.391 21.977 84.428 21.878L86.089 16.51C86.119 16.392 86.139 16.303 86.15 16.241C86.1584 16.1861 86.1627 16.1306 86.163 16.075C86.1663 16.0162 86.1565 15.9573 86.1343 15.9027C86.1122 15.8481 86.0783 15.799 86.035 15.759C85.9353 15.6844 85.8122 15.6478 85.688 15.656C85.451 15.656 85.104 15.796 84.645 16.08C84.0807 16.4413 83.546 16.8469 83.046 17.293C82.6099 17.6487 82.2093 18.0459 81.85 18.479C81.61 18.786 81.423 19.132 81.3 19.503L80.2 23.206C80.072 23.186 79.629 23.174 79.501 23.165C79.373 23.155 79.56 23.157 79.427 23.157C79.294 23.157 79.156 23.157 79.027 23.165C78.897 23.172 78.773 23.172 78.638 23.192L79.165 21.372C78.7598 21.8451 78.2814 22.2503 77.748 22.572C77.0549 22.9777 76.2651 23.1885 75.462 23.182C74.559 23.182 73.82 22.893 73.254 22.311C72.9492 21.999 72.72 21.6214 72.584 21.207C71.814 21.824 71.083 22.294 70.388 22.612C69.631 22.9815 68.8013 23.1779 67.959 23.187C67.182 23.187 66.573 22.961 66.146 22.522C65.851 22.219 65.659 21.825 65.568 21.342C65.1925 21.7894 64.7716 22.1966 64.312 22.557C63.772 22.967 63.28 23.171 62.833 23.17C62.6758 23.1775 62.5187 23.1516 62.3722 23.094C62.2257 23.0365 62.0931 22.9485 61.983 22.836C61.7647 22.5873 61.6517 22.2635 61.668 21.933C61.6702 21.7838 61.6842 21.635 61.71 21.488C61.74 21.304 61.78 21.121 61.83 20.941L63.453 14.899H62.256C62.355 15.103 62.401 15.33 62.389 15.56C62.389 16.08 62.125 16.92 61.605 18.073C60.9779 19.4172 60.2648 20.7196 59.47 21.972C58.447 23.625 57.518 24.829 56.68 25.584C55.844 26.339 55.039 26.719 54.264 26.722C53.753 26.722 53.347 26.613 53.051 26.394C52.9093 26.2913 52.7951 26.1553 52.7183 25.998C52.6416 25.8407 52.6047 25.6669 52.611 25.492C52.6072 25.3292 52.6396 25.1677 52.7058 25.019C52.7721 24.8702 52.8705 24.7381 52.994 24.632C53.262 24.401 53.607 24.28 53.96 24.292C54.316 24.31 54.658 24.43 54.947 24.639C55.297 24.874 55.535 24.984 55.651 24.984C55.861 24.984 56.099 24.816 56.368 24.479C56.644 24.14 56.782 23.82 56.782 23.51C56.7768 23.2234 56.7554 22.9372 56.718 22.653C56.676 22.303 56.609 21.877 56.525 21.373C56.3637 20.3821 56.1843 19.3943 55.987 18.41C55.8485 17.7029 55.683 17.0014 55.491 16.307C55.363 15.867 55.236 15.581 55.099 15.445C55.0344 15.3819 54.9565 15.3341 54.871 15.305L53.581 19.819V19.837C53.351 20.65 53.235 21.124 53.235 21.259C53.2288 21.3654 53.2553 21.4711 53.311 21.562C53.3306 21.5976 53.3596 21.6271 53.3949 21.6472C53.4302 21.6674 53.4704 21.6773 53.511 21.676C53.756 21.676 54.075 21.396 54.457 20.834C54.574 20.674 54.663 20.547 54.723 20.458L55.163 20.787C54.669 21.611 54.179 22.22 53.678 22.608C53.2201 22.981 52.6486 23.1864 52.058 23.19C51.578 23.19 51.212 23.088 50.964 22.887C50.717 22.687 50.581 22.383 50.581 21.991C50.583 21.841 50.595 21.693 50.617 21.546C50.6487 21.3116 50.687 21.0782 50.732 20.846C50.276 21.64 49.778 22.232 49.242 22.613C48.7239 22.9951 48.0958 23.199 47.452 23.194C46.772 23.194 46.236 22.992 45.842 22.588C45.582 22.321 45.408 21.988 45.32 21.588C45.0399 21.962 44.7163 22.3014 44.356 22.599C43.9061 22.9825 43.3371 23.1981 42.746 23.209C42.255 23.209 41.87 23.08 41.603 22.814C41.336 22.548 41.203 22.174 41.203 21.676C41.203 21.434 41.341 20.79 41.613 19.75L41.64 19.645L41.735 19.295C41.4819 19.8803 41.1614 20.434 40.78 20.945C40.223 21.692 39.63 22.252 39.005 22.622C38.3989 22.9896 37.7038 23.1843 36.995 23.185C36.716 23.186 36.439 23.143 36.175 23.057C35.9265 22.9757 35.693 22.8541 35.484 22.697L34.932 24.696C34.8922 24.817 34.8644 24.9416 34.849 25.068C34.829 25.191 34.821 25.315 34.822 25.439C34.822 25.679 34.895 25.853 35.044 25.951C35.194 26.05 35.497 26.108 35.952 26.134V26.602H30.8V26.114C30.825 26.114 30.85 26.111 30.876 26.106C30.8996 26.1003 30.9237 26.0969 30.948 26.096C31.269 26.096 31.508 26.018 31.667 25.858C31.825 25.698 31.992 25.282 32.165 24.605L34.21 16.648C34.246 16.52 34.274 16.392 34.295 16.264C34.313 16.171 34.324 16.076 34.327 15.981C34.3368 15.8954 34.3231 15.8087 34.2873 15.7303C34.2516 15.6519 34.1951 15.5847 34.124 15.536C33.986 15.446 33.729 15.408 33.357 15.408L33.362 14.97C34.0882 14.918 34.8128 14.8457 35.535 14.753C36.224 14.663 36.89 14.568 37.531 14.448L36.991 16.292C37.531 15.58 38.044 15.056 38.537 14.735C38.978 14.417 39.508 14.245 40.052 14.243C40.77 14.243 41.33 14.458 41.713 14.89C42.096 15.321 42.3 15.942 42.3 16.742C42.2977 16.9401 42.286 17.138 42.265 17.335L43.52 12.7L43.59 12.416C43.677 12.13 43.734 11.836 43.763 11.539C43.7677 11.464 43.7526 11.389 43.7192 11.3217C43.6859 11.2543 43.6355 11.1968 43.573 11.155C43.3922 11.058 43.1878 11.0137 42.983 11.027H42.822L42.818 10.58C43.5602 10.5228 44.3005 10.4437 45.038 10.343C45.7142 10.2548 46.3867 10.1404 47.054 10L44.224 20.669C44.206 20.728 44.184 20.797 44.16 20.89C44.133 20.98 44.116 21.071 44.11 21.164C44.1032 21.2678 44.1294 21.3711 44.185 21.459C44.24 21.529 44.327 21.569 44.417 21.565C44.556 21.5457 44.6817 21.4724 44.767 21.361C44.939 21.155 45.103 20.941 45.257 20.721C45.295 19.901 45.486 19.094 45.82 18.343C46.1843 17.4661 46.7005 16.6604 47.345 15.963C47.795 15.453 48.325 15.021 48.915 14.683C49.3944 14.4054 49.9362 14.2534 50.49 14.241C50.97 14.241 51.344 14.352 51.621 14.573C51.899 14.795 52.081 15.139 52.168 15.597L52.447 14.541H55.09L55.048 14.687C55.511 14.63 55.978 14.567 56.45 14.499C57.209 14.39 57.613 14.338 57.669 14.338C57.972 14.338 58.369 15.606 58.849 18.15C59.045 19.162 59.204 19.979 59.33 20.59C59.903 19.48 60.294 18.674 60.505 18.172C60.715 17.67 60.819 17.296 60.819 17.058C60.819 16.872 60.644 16.648 60.291 16.392C59.939 16.136 59.761 15.836 59.761 15.508C59.7536 15.3371 59.7827 15.1667 59.8465 15.008C59.9103 14.8493 60.0073 14.7061 60.131 14.588C60.397 14.349 60.747 14.226 61.104 14.243C61.38 14.228 61.652 14.303 61.88 14.453L61.903 14.379C62.6325 14.229 63.3071 13.8825 63.854 13.377C64.418 12.865 64.93 12.141 65.38 11.227H65.964L65.198 14.26H66.759L66.601 14.9H64.996L63.436 20.735C63.4036 20.8534 63.3766 20.9732 63.355 21.094C63.341 21.189 63.332 21.284 63.329 21.38C63.3179 21.5405 63.3667 21.6994 63.466 21.826C63.559 21.931 63.695 21.988 63.836 21.98C64.04 21.98 64.279 21.867 64.564 21.63C64.904 21.328 65.219 21 65.507 20.65V20.637C65.5147 19.8214 65.6854 19.0156 66.009 18.267C66.3357 17.4783 66.8007 16.7542 67.382 16.129C67.9069 15.5652 68.5327 15.1046 69.227 14.771C69.8736 14.4621 70.5804 14.2999 71.297 14.296C71.949 14.296 72.46 14.442 72.831 14.731C73.204 15.008 73.416 15.451 73.399 15.915C73.399 16.821 72.844 17.607 71.746 18.269C70.648 18.931 69.212 19.317 67.429 19.454C67.3253 19.8343 67.2685 20.2259 67.26 20.62C67.26 21.126 67.388 21.516 67.655 21.779C67.958 22.086 68.375 22.254 68.805 22.243C69.299 22.243 69.866 22.019 70.49 21.697C71.175 21.33 71.823 20.897 72.423 20.403C72.4122 20.2766 72.4069 20.1498 72.407 20.023C72.4155 19.2859 72.5791 18.5588 72.887 17.889C73.2038 17.1616 73.6538 16.4999 74.214 15.938C74.714 15.428 75.306 15.02 75.958 14.733C76.5772 14.4521 77.2491 14.3062 77.929 14.305C78.634 14.305 79.196 14.461 79.613 14.768C80.016 15.046 80.251 15.508 80.24 15.998C80.245 16.294 80.127 16.58 79.914 16.785C79.715 16.997 79.437 17.115 79.147 17.113C79.0378 17.1179 78.9287 17.1002 78.8267 17.061C78.7246 17.0217 78.6318 16.9618 78.554 16.885C78.4779 16.8062 78.4186 16.7127 78.3797 16.6102C78.3409 16.5078 78.3233 16.3985 78.328 16.289C78.338 16.077 78.401 15.872 78.511 15.691C78.593 15.561 78.653 15.418 78.688 15.268C78.6852 15.212 78.6662 15.158 78.6334 15.1126C78.6006 15.0672 78.5553 15.0322 78.503 15.012C78.346 14.9395 78.1738 14.9059 78.001 14.914C77.531 14.922 77.073 15.054 76.671 15.298C76.209 15.5735 75.807 15.9391 75.489 16.373C75.0864 16.9065 74.7656 17.497 74.537 18.125C74.3234 18.7048 74.2118 19.3171 74.207 19.935C74.207 20.605 74.384 21.14 74.742 21.532C75.107 21.95 75.635 22.192 76.191 22.195C76.674 22.195 77.149 21.98 77.616 21.692C78.076 21.407 78.844 20.829 79.671 19.624ZM29.853 16.244C29.977 14.616 28.955 13.482 26.863 13.334C25.463 13.236 23.79 13.597 22.111 14.285L22.671 14.618C26.081 13.785 29.041 14.337 29.82 16.154C29.833 16.185 29.84 16.214 29.853 16.244ZM26.82 20.064C29.006 17.411 28.598 15.107 25.914 14.914C25.076 14.8755 24.2377 14.9821 23.436 15.229L26.696 17.021C26.8371 17.0989 26.9552 17.2126 27.0384 17.3506C27.1217 17.4887 27.1671 17.6462 27.1701 17.8073C27.1732 17.9685 27.1337 18.1276 27.0558 18.2687C26.9778 18.4098 26.8641 18.5278 26.726 18.611L18.677 23.283C18.5241 23.3674 18.3513 23.4095 18.1767 23.4049C18.0021 23.4002 17.8318 23.349 17.6836 23.2566C17.5354 23.1641 17.4145 23.0337 17.3336 22.8789C17.2526 22.7241 17.2144 22.5505 17.223 22.376V19.048C17.177 19.103 17.129 19.156 17.086 19.211C14.898 21.863 15.306 24.173 17.991 24.363C20.674 24.553 24.636 22.717 26.821 20.063L26.82 20.064ZM16.596 25.79H16.591C18.718 25.94 21.454 25.037 23.914 23.524C23.826 23.562 23.737 23.604 23.646 23.642C19.27 25.512 14.94 25.21 13.976 22.952C13.8411 22.6356 13.7759 22.2938 13.785 21.95C13.145 24.063 14.129 25.613 16.596 25.79ZM19.441 13.98H19.436C19.3317 13.9203 19.2137 13.8885 19.0935 13.8879C18.9733 13.8872 18.855 13.9176 18.75 13.9762C18.645 14.0348 18.557 14.1195 18.4944 14.2221C18.4319 14.3248 18.3969 14.4419 18.393 14.562L18.419 20.852C18.4138 20.9705 18.4401 21.0883 18.4952 21.1934C18.5504 21.2984 18.6324 21.387 18.7329 21.45C18.8335 21.513 18.9489 21.5483 19.0675 21.5521C19.1861 21.556 19.3036 21.5283 19.408 21.472L24.861 18.306C24.9542 18.2482 25.0307 18.1671 25.083 18.0708C25.1353 17.9744 25.1615 17.8661 25.1592 17.7564C25.1569 17.6468 25.126 17.5397 25.0697 17.4456C25.0134 17.3516 24.9335 17.2738 24.838 17.22L19.441 13.98ZM31.931 15.155C33.184 18.077 29.595 22.428 23.921 24.86C18.246 27.292 12.629 26.89 11.376 23.964C10.293 21.427 12.836 17.83 17.214 15.327V13.141C17.2202 12.9635 17.2722 12.7906 17.3649 12.6391C17.4576 12.4876 17.588 12.3626 17.7433 12.2764C17.8986 12.1901 18.0735 12.1455 18.2511 12.1468C18.4288 12.1482 18.603 12.1954 18.757 12.284L21.017 13.636C26.101 11.923 30.8 12.506 31.931 15.155ZM36.442 18.964L35.952 20.684C35.879 20.94 35.824 21.184 35.778 21.389C35.7416 21.5419 35.7198 21.698 35.713 21.855C35.703 22.015 35.761 22.172 35.873 22.287C35.9951 22.3947 36.1544 22.4506 36.317 22.443C36.607 22.443 36.904 22.288 37.212 21.98C37.578 21.585 37.88 21.136 38.106 20.647C38.442 19.935 38.724 19.198 38.95 18.444C39.16 17.722 39.27 17.154 39.27 16.749C39.2819 16.4999 39.2162 16.2532 39.082 16.043C39.0327 15.9616 38.9635 15.8941 38.881 15.8469C38.7984 15.7996 38.7051 15.7742 38.61 15.773C38.183 15.773 37.793 16.035 37.437 16.553C37.08 17.072 36.749 17.878 36.442 18.963V18.964ZM51.676 16.107C51.688 15.8899 51.6267 15.6751 51.502 15.497C51.4496 15.4251 51.3806 15.367 51.3008 15.3276C51.2211 15.2883 51.1329 15.2688 51.044 15.271C50.8947 15.2784 50.7484 15.3162 50.6143 15.3823C50.4801 15.4483 50.3609 15.5411 50.264 15.655C49.924 16.042 49.632 16.469 49.396 16.927C49.03 17.587 48.727 18.278 48.491 18.995C48.291 19.555 48.178 20.145 48.158 20.74C48.145 20.984 48.209 21.225 48.342 21.43C48.458 21.586 48.642 21.677 48.838 21.672C49.141 21.672 49.451 21.501 49.772 21.148C50.15 20.706 50.457 20.208 50.682 19.672C50.968 19.004 51.209 18.317 51.404 17.617C51.584 16.959 51.676 16.455 51.676 16.107ZM67.577 18.814C68.835 18.756 69.893 18.43 70.742 17.837C71.59 17.245 72.02 16.564 72.02 15.8C72.028 15.6947 72.014 15.5889 71.9786 15.4893C71.9433 15.3898 71.8876 15.2987 71.815 15.222C71.643 15.084 71.4248 15.0168 71.205 15.034C70.437 15.034 69.735 15.362 69.088 16.033C68.44 16.703 67.937 17.633 67.577 18.814ZM59.654 26.225V26.369C59.651 26.439 59.66 26.509 59.682 26.575C59.728 26.749 59.876 26.831 60.129 26.831C60.2158 26.8325 60.3022 26.82 60.385 26.794C60.452 26.771 60.5114 26.7298 60.5565 26.6751C60.6016 26.6204 60.6306 26.5543 60.6405 26.4841C60.6503 26.4139 60.6405 26.3424 60.6122 26.2774C60.5839 26.2124 60.5381 26.1566 60.48 26.116C60.3877 26.061 60.2922 26.0115 60.194 25.968L59.859 25.825C59.7427 25.7778 59.6312 25.7195 59.526 25.651C59.4376 25.5953 59.3656 25.5172 59.3171 25.4246C59.2687 25.3321 59.2455 25.2284 59.25 25.124C59.2437 25.0148 59.2696 24.9062 59.3246 24.8116C59.3795 24.717 59.461 24.6406 59.559 24.592C59.755 24.504 59.969 24.462 60.184 24.47C60.507 24.47 60.741 24.528 60.883 24.644C60.997 24.739 61.054 24.922 61.054 25.197V25.249H60.594V25.186L60.587 25.058C60.557 24.858 60.422 24.761 60.177 24.765C59.868 24.765 59.712 24.884 59.709 25.119C59.709 25.269 59.806 25.392 59.999 25.485C60.12 25.545 60.254 25.605 60.405 25.665C60.533 25.714 60.657 25.771 60.775 25.837C60.989 25.951 61.118 26.177 61.108 26.419C61.108 26.889 60.777 27.125 60.126 27.125C59.9054 27.1407 59.6846 27.0965 59.487 26.997C59.4043 26.9512 59.3347 26.8852 59.2847 26.805C59.2346 26.7249 59.2058 26.6334 59.201 26.539L59.195 26.333V26.229L59.654 26.225ZM61.417 25.343C61.4113 25.1859 61.4322 25.029 61.479 24.879C61.5167 24.7965 61.573 24.7238 61.6434 24.6665C61.7138 24.6093 61.7965 24.5691 61.885 24.549C62.0424 24.4987 62.2068 24.4741 62.372 24.476C62.537 24.474 62.702 24.499 62.859 24.548C62.9468 24.5685 63.0288 24.6089 63.0985 24.6661C63.1682 24.7234 63.2238 24.7958 63.261 24.878C63.308 25.029 63.33 25.186 63.325 25.343V26.207C63.327 26.342 63.318 26.477 63.298 26.611C63.248 26.951 62.942 27.123 62.385 27.123C61.981 27.123 61.709 27.043 61.572 26.883C61.467 26.763 61.415 26.536 61.417 26.205V25.343ZM61.877 26.205C61.868 26.347 61.885 26.491 61.927 26.627C61.966 26.697 62.028 26.752 62.104 26.781C62.1888 26.8168 62.2799 26.8355 62.372 26.836C62.4545 26.8368 62.5362 26.8204 62.612 26.788C62.6769 26.7688 62.7345 26.7304 62.7773 26.678C62.8201 26.6256 62.8461 26.5614 62.852 26.494C62.86 26.414 62.864 26.317 62.865 26.204V25.341C62.8776 25.2066 62.8552 25.0712 62.8 24.948C62.727 24.82 62.584 24.764 62.372 24.765C62.2927 24.7636 62.2138 24.7765 62.139 24.803C62.0705 24.8201 62.009 24.8582 61.9633 24.912C61.9176 24.9658 61.8898 25.0326 61.884 25.103C61.874 25.182 61.87 25.261 61.872 25.341L61.877 26.205ZM63.743 24.513H64.202V26.458C64.219 26.709 64.372 26.835 64.661 26.836C64.951 26.836 65.111 26.718 65.137 26.483C65.147 26.398 65.153 26.313 65.154 26.227V24.513H65.614V26.259C65.614 26.369 65.609 26.479 65.598 26.59C65.5864 26.7056 65.5318 26.8127 65.445 26.89C65.277 27.047 65.021 27.124 64.679 27.125C64.336 27.126 64.061 27.048 63.904 26.896C63.8186 26.8156 63.7652 26.7068 63.754 26.59C63.7452 26.4799 63.7419 26.3694 63.744 26.259L63.743 24.513ZM66.81 24.513H67.085C67.183 24.513 67.28 24.52 67.377 24.536C67.715 24.586 67.887 24.792 67.887 25.154C67.8981 25.3099 67.8506 25.4642 67.754 25.587C67.667 25.68 67.498 25.743 67.249 25.777C67.363 25.783 67.476 25.806 67.584 25.844C67.6302 25.8643 67.671 25.8953 67.703 25.9344C67.735 25.9735 67.7573 26.0196 67.768 26.069C67.785 26.147 67.795 26.227 67.798 26.307L67.818 26.611C67.824 26.775 67.86 26.937 67.924 27.089H67.449L67.402 26.924C67.3878 26.8657 67.3798 26.806 67.378 26.746L67.36 26.516L67.343 26.274C67.3419 26.195 67.3137 26.1188 67.2631 26.0582C67.2125 25.9975 67.1425 25.9561 67.065 25.941C66.985 25.927 66.905 25.921 66.825 25.921H66.506V27.089H66.044V24.513H66.81ZM66.506 24.802V25.629H66.835C66.9203 25.6299 67.0056 25.6243 67.09 25.612C67.1477 25.6089 67.2039 25.5928 67.2544 25.5649C67.305 25.5371 67.3486 25.4981 67.382 25.451C67.4239 25.3618 67.4418 25.2632 67.434 25.165C67.4398 25.1059 67.4285 25.0463 67.4014 24.9935C67.3742 24.9406 67.3324 24.8967 67.281 24.867C67.1476 24.8141 67.0041 24.7919 66.861 24.802H66.506ZM69.622 25.191V25.072C69.611 24.866 69.482 24.764 69.239 24.765C69.019 24.765 68.877 24.82 68.81 24.927C68.7758 24.9739 68.755 25.0292 68.75 25.087V26.313C68.7399 26.4342 68.7595 26.556 68.807 26.668C68.8529 26.7269 68.9131 26.7732 68.9819 26.8024C69.0506 26.8316 69.1257 26.8428 69.2 26.835C69.443 26.835 69.584 26.723 69.612 26.505L69.631 26.339V26.251H70.09V26.502C70.088 26.5862 70.0684 26.669 70.0324 26.7452C69.9964 26.8213 69.9448 26.889 69.881 26.944C69.803 27.0067 69.7117 27.0505 69.614 27.072C69.4846 27.1047 69.3515 27.1204 69.218 27.119C69.0993 27.1215 68.9806 27.1115 68.864 27.089C68.481 27.02 68.297 26.781 68.294 26.366V25.342C68.294 25.238 68.3 25.133 68.316 25.03C68.3304 24.9226 68.3748 24.8214 68.444 24.738C68.589 24.563 68.853 24.475 69.231 24.472C69.76 24.472 70.046 24.635 70.086 24.951C70.094 25.018 70.098 25.085 70.097 25.153V25.254H69.622V25.191ZM70.48 24.513H71.981V24.802H70.938V25.619H71.922V25.907H70.938V26.803H72.011V27.093H70.477L70.48 24.513ZM73.2 25.343C73.1923 25.1859 73.2134 25.0286 73.262 24.879C73.2989 24.7963 73.3546 24.7233 73.4248 24.666C73.495 24.6087 73.5776 24.5686 73.666 24.549C73.823 24.499 73.988 24.473 74.154 24.476C74.319 24.474 74.484 24.499 74.641 24.548C74.7288 24.569 74.8108 24.6097 74.8807 24.6668C74.9507 24.7239 75.0068 24.7961 75.045 24.878C75.091 25.029 75.112 25.186 75.107 25.343V26.207C75.108 26.342 75.1 26.477 75.082 26.611C75.028 26.951 74.725 27.123 74.167 27.123C73.761 27.123 73.49 27.043 73.354 26.883C73.249 26.763 73.198 26.537 73.2 26.205V25.343ZM73.66 26.205C73.65 26.348 73.667 26.491 73.71 26.627C73.748 26.697 73.81 26.752 73.885 26.781C73.9702 26.8169 74.0616 26.8356 74.154 26.836C74.2365 26.8369 74.3182 26.8205 74.394 26.788C74.4588 26.7686 74.5164 26.7303 74.5592 26.6779C74.6019 26.6254 74.628 26.5614 74.634 26.494C74.641 26.414 74.646 26.317 74.647 26.204V25.341C74.6596 25.2066 74.6372 25.0712 74.582 24.948C74.509 24.82 74.366 24.764 74.154 24.765C74.0747 24.7636 73.9958 24.7765 73.921 24.803C73.8533 24.8206 73.7929 24.8591 73.7482 24.9129C73.7035 24.9667 73.6769 25.0332 73.672 25.103C73.6601 25.1817 73.6557 25.2614 73.659 25.341V26.205H73.66ZM76.991 24.513V24.802H75.986V25.616H76.953V25.906H75.986V27.088H75.526V24.513H76.991ZM78.518 26.225V26.369C78.515 26.439 78.524 26.509 78.545 26.575C78.591 26.749 78.741 26.831 78.992 26.831C79.0787 26.8322 79.1651 26.8197 79.248 26.794C79.3282 26.7732 79.3987 26.7251 79.4473 26.6579C79.4958 26.5907 79.5194 26.5087 79.514 26.426C79.5155 26.3637 79.5004 26.3021 79.4701 26.2476C79.4399 26.1931 79.3957 26.1477 79.342 26.116C79.25 26.0604 79.1545 26.011 79.056 25.968L78.723 25.825C78.6067 25.7777 78.4952 25.7194 78.39 25.651C78.3021 25.5949 78.2305 25.5167 78.1824 25.4242C78.1343 25.3317 78.1114 25.2282 78.116 25.124C78.1096 25.0147 78.1357 24.9059 78.1908 24.8113C78.2459 24.7166 78.3277 24.6404 78.426 24.592C78.622 24.504 78.836 24.462 79.05 24.47C79.372 24.47 79.606 24.528 79.749 24.644C79.863 24.739 79.919 24.922 79.919 25.197V25.249H79.463V25.186L79.453 25.058C79.426 24.858 79.29 24.761 79.045 24.765C78.735 24.765 78.581 24.884 78.577 25.119C78.577 25.269 78.674 25.392 78.867 25.485C78.986 25.545 79.123 25.605 79.273 25.665C79.401 25.714 79.525 25.771 79.644 25.837C79.856 25.952 79.984 26.177 79.974 26.419C79.974 26.889 79.642 27.125 78.992 27.125C78.7713 27.1407 78.5506 27.0965 78.353 26.997C78.27 26.9517 78.2 26.8857 78.1499 26.8055C78.0998 26.7253 78.0713 26.6335 78.067 26.539L78.057 26.329V26.225H78.518ZM80.3 24.513H80.759V26.458C80.775 26.714 80.929 26.835 81.216 26.836C81.504 26.837 81.666 26.718 81.694 26.483C81.703 26.3979 81.7087 26.3125 81.711 26.227V24.513H82.169V26.259C82.17 26.369 82.165 26.48 82.153 26.59C82.1423 26.7057 82.088 26.813 82.001 26.89C81.833 27.047 81.575 27.124 81.234 27.125C80.893 27.126 80.615 27.048 80.457 26.896C80.3732 26.8146 80.3207 26.7062 80.309 26.59C80.309 26.521 80.299 26.412 80.299 26.259L80.3 24.513ZM83.962 25.191V25.072C83.951 24.866 83.821 24.764 83.579 24.765C83.361 24.765 83.22 24.82 83.154 24.927C83.1197 24.974 83.0983 25.0292 83.092 25.087V26.313C83.082 26.434 83.102 26.556 83.15 26.668C83.243 26.788 83.391 26.851 83.542 26.835C83.786 26.835 83.925 26.723 83.955 26.505L83.974 26.339V26.251H84.433V26.502C84.4316 26.5863 84.4122 26.6693 84.3762 26.7455C84.3401 26.8218 84.2882 26.8894 84.224 26.944C84.1466 27.0063 84.0559 27.0501 83.959 27.072C83.829 27.104 83.695 27.12 83.561 27.119C83.4426 27.1216 83.3242 27.1116 83.208 27.089C82.825 27.02 82.641 26.781 82.64 26.366V25.342C82.6372 25.2376 82.6439 25.1332 82.66 25.03C82.6727 24.9221 82.7172 24.8204 82.788 24.738C82.935 24.563 83.197 24.475 83.577 24.472C84.107 24.472 84.391 24.632 84.432 24.951C84.439 25.018 84.442 25.085 84.443 25.153V25.254H83.984L83.962 25.191ZM86.179 25.191V25.072C86.167 24.866 86.039 24.764 85.795 24.765C85.575 24.765 85.433 24.82 85.367 24.927C85.3325 24.9736 85.312 25.0291 85.308 25.087V26.313C85.2984 26.4341 85.3176 26.5557 85.364 26.668C85.458 26.788 85.606 26.85 85.757 26.835C86.002 26.835 86.14 26.723 86.17 26.505L86.189 26.339V26.251H86.649V26.502C86.647 26.586 86.6276 26.6687 86.592 26.7448C86.5563 26.8209 86.5053 26.8887 86.442 26.944C86.3635 27.007 86.2714 27.0509 86.173 27.072C86.043 27.105 85.91 27.12 85.776 27.119C85.6583 27.1215 85.5406 27.1114 85.425 27.089C85.041 27.02 84.857 26.781 84.855 26.366V25.342C84.8519 25.2376 84.8589 25.1331 84.876 25.03C84.8892 24.9223 84.9337 24.8208 85.004 24.738C85.151 24.563 85.413 24.475 85.793 24.472C86.322 24.472 86.606 24.632 86.646 24.951C86.655 25.018 86.659 25.085 86.659 25.153V25.254H86.199L86.179 25.191ZM87.039 24.513H88.536V24.802H87.495V25.619H88.473V25.907H87.495V26.803H88.567V27.093H87.034L87.039 24.513ZM89.243 26.225V26.369C89.241 26.439 89.251 26.509 89.273 26.575C89.319 26.749 89.467 26.831 89.719 26.831C89.8054 26.8322 89.8915 26.8197 89.974 26.794C90.0432 26.7735 90.1051 26.7336 90.1523 26.6789C90.1994 26.6242 90.2298 26.5571 90.2398 26.4856C90.2498 26.4141 90.239 26.3412 90.2087 26.2757C90.1785 26.2101 90.1299 26.1547 90.069 26.116C89.9769 26.0607 89.8813 26.0113 89.783 25.968L89.449 25.825C89.3332 25.7779 89.2224 25.7197 89.118 25.651C89.0298 25.5951 88.9578 25.517 88.9094 25.4245C88.861 25.332 88.8377 25.2283 88.842 25.124C88.8355 25.0146 88.8615 24.9058 88.9166 24.8112C88.9718 24.7165 89.0537 24.6403 89.152 24.592C89.347 24.504 89.562 24.462 89.776 24.47C90.099 24.47 90.332 24.528 90.476 24.644C90.589 24.739 90.646 24.922 90.646 25.197V25.249H90.186V25.186L90.177 25.058C90.149 24.858 90.013 24.761 89.768 24.765C89.46 24.765 89.303 24.884 89.301 25.119C89.301 25.269 89.398 25.392 89.59 25.485C89.71 25.545 89.845 25.605 89.998 25.665C90.126 25.714 90.249 25.771 90.368 25.837C90.4741 25.8918 90.5624 25.9756 90.6228 26.0786C90.6832 26.1816 90.713 26.2997 90.709 26.419C90.709 26.889 90.379 27.125 89.726 27.125C89.5053 27.141 89.2845 27.0968 89.087 26.997C89.0038 26.9518 88.9338 26.8859 88.8837 26.8057C88.8335 26.7254 88.8051 26.6335 88.801 26.539L88.793 26.333V26.229L89.243 26.225ZM91.373 26.225V26.369C91.369 26.439 91.379 26.509 91.4 26.575C91.445 26.749 91.595 26.831 91.846 26.831C91.9328 26.8325 92.0192 26.82 92.102 26.794C92.1713 26.7737 92.2333 26.7338 92.2805 26.6792C92.3278 26.6245 92.3583 26.5574 92.3684 26.4859C92.3785 26.4144 92.3678 26.3415 92.3376 26.2759C92.3074 26.2103 92.2589 26.1548 92.198 26.116C92.1059 26.0607 92.0103 26.0113 91.912 25.968L91.578 25.825C91.4626 25.7779 91.3521 25.7196 91.248 25.651C91.1591 25.5957 91.0864 25.5178 91.0376 25.4252C90.9887 25.3326 90.9654 25.2286 90.97 25.124C90.964 25.0147 90.9902 24.9061 91.0453 24.8116C91.1004 24.717 91.182 24.6407 91.28 24.592C91.476 24.504 91.69 24.462 91.905 24.47C92.228 24.47 92.461 24.528 92.605 24.644C92.718 24.739 92.775 24.922 92.775 25.197V25.249H92.317V25.186L92.305 25.058C92.278 24.858 92.142 24.761 91.896 24.765C91.59 24.765 91.432 24.884 91.43 25.119C91.43 25.269 91.526 25.392 91.72 25.485C91.839 25.545 91.976 25.605 92.126 25.665C92.254 25.714 92.377 25.771 92.496 25.837C92.709 25.951 92.838 26.177 92.828 26.419C92.828 26.889 92.497 27.125 91.848 27.125C91.627 27.1409 91.4059 27.0967 91.208 26.997C91.125 26.9517 91.055 26.8857 91.0049 26.8055C90.9548 26.7253 90.9263 26.6335 90.922 26.539L90.914 26.333V26.229L91.373 26.225Z" fill="#E8EAFB"></path>
</svg>
