<?xml version="1.0" encoding="UTF-8"?>
<svg xmlns="http://www.w3.org/2000/svg" width="96" height="40" viewBox="0 0 96 40" fill="none">
  <g clip-path="url(#clip0_1_210)">
    <g opacity="0.6">
      <path d="M18.737 25.2515C18.9604 25.2781 19.1053 25.2953 19.2903 25.3174C19.2119 25.4413 19.1585 25.5331 19.0983 25.6202C17.9985 27.2103 16.8929 28.7964 15.803 30.3932C15.6285 30.6489 15.5276 30.7242 15.2571 30.4833C12.4142 27.952 10.5672 24.8546 10.1119 21.0545C9.61541 16.9115 10.7755 13.2156 13.4978 10.0403C15.5765 7.61581 18.2112 6.0871 21.3212 5.40271C23.8296 4.85073 26.3129 5.04877 28.7584 5.80778C29.9391 6.17418 31.0681 6.64714 32.109 7.32656C32.3748 7.50007 32.3772 7.61038 32.1962 7.85233C30.8608 9.63845 29.5371 11.4335 28.2175 13.2314C28.0776 13.422 27.9432 13.5622 27.6877 13.5127C27.3547 13.4482 27.1548 13.6019 26.9617 13.8737C26.0963 15.0927 25.2064 16.2943 24.2968 17.5412C23.4181 16.3009 22.5575 15.1042 21.7207 13.8909C21.5336 13.6195 21.3464 13.495 21.0047 13.5072C20.2105 13.5357 19.4145 13.5163 18.6112 13.5163C18.6014 13.7259 18.7548 13.834 18.8474 13.9664C20.0885 15.7433 21.3286 17.521 22.5882 19.2848C22.7768 19.5488 22.7652 19.7074 22.5776 19.9624C21.3029 21.6949 20.0477 23.4416 18.737 25.2515ZM17.7173 19.8063H17.6868C17.6868 18.3724 17.7073 16.9383 17.6797 15.5049C17.6603 14.4902 17.0381 13.8432 16.0298 13.6726C15.2693 13.5439 14.5046 13.6077 13.7422 13.6076C12.8891 13.6073 12.9924 13.4146 12.9734 14.4156C12.9682 14.6933 13.0773 14.7447 13.3293 14.7488C14.4666 14.7676 14.6722 14.9891 14.6722 16.139C14.6722 18.7733 14.6784 21.4076 14.6648 24.0416C14.663 24.3909 14.7581 24.4995 15.1114 24.4864C15.8589 24.4588 16.6083 24.4674 17.3566 24.4803C17.6367 24.4851 17.728 24.4021 17.7247 24.108C17.7084 22.6743 17.7173 21.2402 17.7173 19.8063Z" fill="#E8EAFB"></path>
      <path d="M24.6632 21.3743C25.5572 22.6352 26.4222 23.8355 27.2614 25.0535C27.4443 25.3191 27.638 25.415 27.9516 25.4073C28.7448 25.3876 29.5389 25.4008 30.4306 25.4008C29.9748 24.7468 29.5632 24.1516 29.1472 23.5598C28.2238 22.2461 27.303 20.9305 26.3688 19.6245C26.1984 19.3862 26.1878 19.224 26.3726 18.9739C27.5493 17.3816 28.7049 15.7739 29.8666 14.1705C29.975 14.0209 30.077 13.8667 30.1893 13.704C30.0449 13.5622 29.8691 13.6726 29.7399 13.592C29.6882 13.5047 29.761 13.4496 29.8005 13.3923C30.9261 11.7634 32.0592 10.1396 33.1748 8.50386C33.3574 8.23615 33.48 8.22904 33.713 8.43728C36.1636 10.6275 37.9075 13.2675 38.6164 16.4915C39.4266 20.1762 38.8652 23.6841 36.8884 26.9191C34.746 30.4251 31.6374 32.6568 27.6295 33.5019C23.9578 34.2759 20.4413 33.7283 17.1774 31.7977C16.8435 31.6002 16.8086 31.4537 17.0377 31.125C18.2859 29.3347 19.5106 27.5278 20.7339 25.7201C20.8777 25.5077 21.0219 25.3528 21.2948 25.4051C21.6403 25.4712 21.8286 25.2832 22.0146 25.0234C22.8757 23.8191 23.7523 22.626 24.6632 21.3743ZM30.789 18.2355C31.3482 17.8348 31.8126 17.4741 32.3051 17.1567C32.8496 16.8057 33.3082 16.4318 33.1405 15.6857C33.1278 15.6289 33.1528 15.5626 33.1647 15.5017C33.2457 15.0875 33.4972 14.8954 33.9199 14.8953C34.3543 14.8951 34.7898 14.9582 34.8645 15.4569C35.0162 16.4696 34.9979 17.4507 34.041 18.149C33.3999 18.6168 32.7899 19.1271 32.1631 19.6147C31.2722 20.3078 30.6392 21.1148 30.7762 22.3456C30.838 22.9001 30.8081 23.4683 30.7789 24.0282C30.7606 24.3798 30.8697 24.4759 31.2213 24.4722C32.9373 24.4541 34.6537 24.464 36.3698 24.464C37.2455 24.464 37.2286 24.4638 37.238 23.5653C37.242 23.1877 37.1415 23.0479 36.7408 23.0574C35.6649 23.0827 34.5879 23.0559 33.5116 23.069C33.2285 23.0724 33.1401 22.9878 33.1328 22.7002C33.1133 21.942 33.3456 21.2981 33.8828 20.7597C34.5357 20.1055 35.3243 19.6228 36.0359 19.043C36.6664 18.5291 37.2125 17.9632 37.2348 17.0819C37.2455 16.6611 37.2502 16.2393 37.2337 15.8189C37.1932 14.7854 36.8478 14.2682 35.8987 13.9734C34.7006 13.6013 33.4824 13.5542 32.277 13.9685C31.3749 14.2786 30.8229 15.0157 30.7934 15.9707C30.7713 16.6868 30.789 17.4043 30.789 18.2355Z" fill="#E8EAFB"></path>
      <path d="M48.6647 16.0254C48.6753 16.8598 48.6838 17.6943 48.6985 18.5287C48.7014 18.6953 48.6548 18.8706 48.758 19.0262C48.8653 17.8916 49.5692 17.2567 50.5711 16.8808C51.2337 16.6323 51.9267 16.5171 52.6312 16.521C52.9955 16.5231 52.9744 16.3531 52.867 16.1274C52.729 15.8371 52.4746 15.7009 52.1612 15.6563C51.3958 15.5477 50.6716 15.69 49.9885 16.0315C49.7562 16.1475 49.621 16.1794 49.5864 15.864C49.573 15.7424 49.5196 15.6251 49.485 15.5058C49.2014 14.5264 49.1996 14.5203 50.1608 14.2206C51.0509 13.9431 51.9675 13.8679 52.8867 13.9904C54.3148 14.181 55.1826 15.1366 55.3003 16.6448C55.3512 17.2963 55.3222 17.9538 55.3321 18.6085C55.3443 19.4337 55.2841 20.2626 55.4237 21.0822C55.4735 21.3744 55.3824 21.4724 55.0846 21.449C54.759 21.4235 54.4298 21.4438 54.1022 21.443C53.654 21.4419 53.1098 21.5918 53.1997 20.7822C51.571 22.2063 49.107 21.6631 48.761 19.7002C48.5906 20.0896 48.8062 20.5294 48.6023 20.9146C48.6023 20.9144 48.6023 20.9145 48.6023 20.9146C48.5015 22.7197 47.8056 23.7671 46.3297 24.2524C45.4105 24.5547 44.4564 24.5499 43.5048 24.4289C43.041 24.37 42.5917 24.2475 42.1553 24.0707C41.9384 23.9829 41.873 23.873 41.9394 23.6477C42.0626 23.23 42.1884 22.8108 42.269 22.3839C42.3232 22.097 42.4289 22.118 42.6355 22.2259C43.0963 22.4667 43.5952 22.5796 44.1104 22.6385C45.5451 22.8025 46.2992 22.1198 46.2639 20.6359C45.956 20.8283 45.7023 21.0712 45.3743 21.1921C44.0153 21.6934 42.4241 21.1328 41.7664 19.8261C41.0024 18.3083 41.0892 16.794 41.9959 15.3383C42.8563 13.9572 45.1805 13.3247 46.5123 14.7703C46.7124 14.0947 46.7124 14.0912 47.4723 14.0961C47.8597 14.0985 48.3768 13.9684 48.6006 14.165C48.8646 14.3969 48.6548 14.9248 48.6726 15.3237C48.6829 15.557 48.6681 15.7914 48.6647 16.0254ZM62.1007 15.1345C62.7287 14.3095 63.5197 13.9047 64.5082 13.942C65.7971 13.9906 66.6755 14.8423 66.8434 16.2893C67.0328 17.9204 66.8933 19.5632 66.929 21.2004C66.9329 21.3835 66.8559 21.4464 66.6795 21.4449C66.0706 21.4397 65.4614 21.4315 64.853 21.4477C64.5322 21.4562 64.6051 21.2433 64.6047 21.0711C64.6017 19.932 64.6053 18.7929 64.6019 17.6538C64.6009 17.2796 64.5682 16.9114 64.4537 16.5477C64.3126 16.0992 64.0243 15.8684 63.5623 15.8754C63.1384 15.8819 62.7178 16.2367 62.6319 16.6651C62.5802 16.9231 62.5571 17.1906 62.5555 17.4541C62.5477 18.6557 62.5415 19.8574 62.5593 21.0588C62.5637 21.364 62.4858 21.4661 62.1727 21.4502C61.6587 21.4242 61.1413 21.4215 60.6278 21.4507C60.2833 21.4704 60.2161 21.3384 60.2207 21.0241C60.2377 19.8697 60.2315 18.7148 60.2246 17.56C60.2229 17.2809 60.217 16.9949 60.1572 16.7244C60.0313 16.1541 59.701 15.8625 59.2567 15.8742C58.7716 15.8869 58.3278 16.2846 58.2374 16.8118C58.2006 17.0255 58.1974 17.2467 58.1968 17.4645C58.1931 18.6504 58.1855 19.8366 58.2016 21.0223C58.2058 21.3339 58.144 21.4709 57.7957 21.451C57.2665 21.4209 56.7342 21.4334 56.2038 21.4476C55.9703 21.4539 55.8755 21.3994 55.8752 21.1413C55.8735 18.8944 55.9233 16.6469 55.8079 14.4014C55.7946 14.1433 55.889 14.0814 56.127 14.0903C56.548 14.1061 56.9712 14.1153 57.3911 14.0882C57.734 14.0661 57.9247 14.1423 57.8829 14.5314C57.8702 14.6482 57.9185 14.7716 57.9501 14.9584C58.5425 14.2738 59.2447 13.9176 60.0999 13.9352C60.9693 13.9531 61.6685 14.2997 62.1007 15.1345ZM82.5012 20.5985C81.5216 21.4855 80.4471 21.5885 79.3441 21.0877C78.1503 20.5458 77.6386 19.5013 77.5361 18.2439C77.4246 16.8761 77.7425 15.6507 78.8036 14.6922C79.7481 13.8392 81.6969 13.5493 82.7186 14.7738C82.7397 14.7605 82.7767 14.7494 82.7792 14.733C82.8749 14.0947 82.8745 14.0909 83.5283 14.096C83.9778 14.0995 84.5843 13.9423 84.8357 14.1704C85.1286 14.4366 84.8984 15.0477 84.8947 15.5086C84.8799 17.348 84.8793 19.1879 84.8277 21.0262C84.78 22.724 83.9281 23.8614 82.4574 24.2836C81.5587 24.5417 80.6422 24.5463 79.7236 24.426C79.2448 24.3633 78.7789 24.2449 78.3352 24.0417C78.167 23.9646 78.1008 23.9022 78.1624 23.6977C78.3182 23.1783 78.4392 22.6486 78.5819 22.0929C79.2514 22.4584 79.9401 22.6488 80.6629 22.666C81.8973 22.6956 82.5141 22.0165 82.5012 20.5985ZM72.4958 15.0044C73.1276 14.2781 73.8681 13.9205 74.7836 13.9558C76.0186 14.0036 76.8492 14.6567 77.1849 15.8565C77.2947 16.2489 77.3487 16.6483 77.3486 17.0559C77.3483 18.3967 77.3423 19.7375 77.3563 21.0781C77.3591 21.354 77.3033 21.4643 77.0003 21.4505C76.4399 21.4248 75.8771 21.4288 75.3162 21.4493C75.0405 21.4594 74.9755 21.3604 74.9786 21.1018C74.991 20.0574 74.9881 19.0128 74.9811 17.9682C74.9789 17.642 74.9583 17.3147 74.9252 16.9901C74.8476 16.2323 74.4771 15.8552 73.8645 15.8912C73.2464 15.9274 72.7693 16.4394 72.7625 17.1188C72.7498 18.3815 72.7325 19.6451 72.7697 20.9067C72.7834 21.3736 72.6453 21.4906 72.2041 21.4525C71.724 21.4112 71.2372 21.4291 70.7544 21.4486C70.4793 21.4597 70.3744 21.3907 70.3759 21.0912C70.387 18.8776 70.4076 16.6636 70.3169 14.4511C70.305 14.1612 70.3851 14.0688 70.6772 14.0882C71.0653 14.1143 71.4608 14.1302 71.8455 14.0853C72.2888 14.0337 72.4762 14.1908 72.4583 14.6274C72.4541 14.7303 72.4779 14.8344 72.4958 15.0044ZM67.4347 17.7344C67.4347 16.6436 67.4435 15.5525 67.4288 14.4619C67.425 14.1822 67.4915 14.0758 67.7903 14.0878C68.3662 14.111 68.9441 14.1056 69.5207 14.0896C69.7719 14.0826 69.8368 14.1735 69.836 14.4132C69.8286 16.6416 69.8279 18.8702 69.8368 21.0987C69.8377 21.3572 69.773 21.4577 69.4989 21.4489C68.9227 21.4305 68.3449 21.4306 67.7686 21.4488C67.4968 21.4574 67.4265 21.3616 67.4294 21.1005C67.4419 19.9786 67.4347 18.8565 67.4347 17.7344ZM82.5079 17.6199C82.4951 17.3557 82.5118 17.0861 82.4633 16.8286C82.3753 16.3622 82.1464 15.9865 81.6565 15.8354C81.1752 15.6872 80.7642 15.8126 80.4242 16.1707C79.7729 16.8565 79.7216 18.4027 80.3319 19.1269C80.6456 19.499 81.0496 19.6693 81.5394 19.5515C82.0428 19.4304 82.3401 19.1126 82.4381 18.5975C82.4998 18.2725 82.4958 17.9472 82.5079 17.6199ZM46.2278 17.6648H46.2409C46.2409 17.4003 46.268 17.1323 46.235 16.872C46.1746 16.3956 45.9424 16.0183 45.4689 15.8493C44.9791 15.6745 44.5476 15.7989 44.192 16.1706C43.5439 16.848 43.4958 18.4152 44.1053 19.127C44.435 19.5121 44.8496 19.6777 45.3571 19.5393C45.8855 19.3953 46.1634 19.0295 46.2223 18.5038C46.2533 18.2274 46.2278 17.9447 46.2278 17.6648ZM52.6157 18.0886C52.2358 18.0773 51.8863 18.1475 51.5657 18.3189C51.1455 18.5438 50.972 19.0129 51.1369 19.433C51.2801 19.7978 51.756 19.9727 52.2149 19.8293C52.7905 19.6493 53.0097 19.259 53.0276 18.4751C53.0353 18.1443 52.9908 17.9446 52.6157 18.0886Z" fill="#E8EAFB"></path>
      <path d="M68.6267 13.3443C67.8985 13.3452 67.3968 12.8658 67.3973 12.1694C67.3979 11.4909 67.936 10.9751 68.6313 10.987C69.3944 11.0001 69.8916 11.4804 69.8833 12.1966C69.8755 12.8844 69.373 13.3434 68.6267 13.3443Z" fill="#E8EAFB"></path>
    </g>
  </g>
  <defs>
    <clipPath id="clip0_1_210">
      <rect width="96" height="40" fill="white"></rect>
    </clipPath>
  </defs>
</svg>
