<?xml version="1.0" encoding="UTF-8"?>
<svg xmlns="http://www.w3.org/2000/svg" width="100" height="40" viewBox="0 0 100 40" fill="none">
  <g clip-path="url(#clip0_1_189)">
    <g opacity="0.6">
      <path d="M17.9561 13.9282C17.9561 13.9282 21.4901 8.13516 25.3211 8.23416C29.1521 8.33316 31.2131 11.2342 33.3251 14.9602C35.4371 18.6862 40.0991 29.0002 40.0991 29.0002C40.0991 29.0002 36.6131 30.9682 32.6351 29.6902C28.6571 28.4122 27.1361 25.5172 24.4361 20.1652C21.7361 14.8132 21.7841 12.8992 17.9561 13.9282Z" fill="#E8EAFB"></path>
      <path d="M23.8 24.2901C22.6044 26.5848 20.7145 28.4433 18.4 29.6001C14.617 31.4001 10 29.0511 10 29.0511C10 29.0511 15.4 18.5001 16.09 17.4651C16.78 16.4301 18.055 15.2541 19.477 16.6791C20.899 18.1041 23.8 24.2901 23.8 24.2901Z" fill="#E8EAFB"></path>
      <path d="M50.545 17.5432L49.6 14.9872H45.76L44.836 17.5432H43.6L47.023 8.12915C47.1202 8.09211 47.2206 8.064 47.323 8.04515C47.453 8.01626 47.5858 8.00118 47.719 8.00007C47.8895 7.99801 48.0578 8.03931 48.208 8.12015C48.3757 8.22731 48.4993 8.39133 48.556 8.58215L51.838 17.5432H50.545ZM47.677 9.44315L46.072 13.9732H49.267L47.677 9.44315Z" fill="#E8EAFB"></path>
      <path d="M55.573 16.7179C55.8113 16.7201 56.0484 16.6836 56.275 16.6099C56.4685 16.548 56.6523 16.4591 56.821 16.3459C56.9575 16.2551 57.0772 16.1415 57.175 16.0099C57.2504 15.919 57.2955 15.8068 57.304 15.6889V10.7989H57.4H57.478H57.571C57.8126 10.792 58.0498 10.8647 58.246 11.0059C58.4524 11.1963 58.5551 11.4741 58.522 11.7529V17.5429H57.322V16.9429C57.0875 17.1821 56.8082 17.3727 56.5 17.5039C56.0847 17.6867 55.6334 17.7728 55.18 17.7559C54.7394 17.7795 54.2999 17.6918 53.902 17.5009C53.6199 17.3509 53.3859 17.1242 53.227 16.8469C53.0786 16.5778 52.9886 16.2803 52.963 15.9739C52.935 15.6559 52.921 15.3509 52.921 15.0589V10.7989H53.005H53.083H53.176C53.4164 10.7911 53.653 10.8605 53.851 10.9969C54.0581 11.1843 54.1611 11.4607 54.127 11.7379V15.0679C54.1199 15.3639 54.1461 15.6598 54.205 15.9499C54.2448 16.1499 54.3583 16.3277 54.523 16.4479C54.6606 16.5501 54.8179 16.6227 54.985 16.6609C55.1782 16.7023 55.3755 16.7214 55.573 16.7179Z" fill="#E8EAFB"></path>
      <path d="M66.151 17.0749C66.1566 17.5928 66.1063 18.1098 66.001 18.6169C65.9171 19.0324 65.7396 19.4232 65.482 19.7599C65.2207 20.083 64.8779 20.3305 64.489 20.4769C63.9841 20.6572 63.4499 20.7417 62.914 20.7259C62.5223 20.7325 62.1312 20.6902 61.75 20.5999C61.4632 20.5358 61.1859 20.435 60.925 20.2999C60.7868 20.2228 60.6638 20.1211 60.562 19.9999C60.4946 19.9144 60.4576 19.8088 60.457 19.6999C60.4672 19.5494 60.5238 19.4058 60.619 19.2889C60.7122 19.1605 60.8123 19.0373 60.919 18.9199C60.9744 18.981 61.0368 19.0354 61.105 19.0819C61.2378 19.1808 61.3783 19.2691 61.525 19.3459C61.7221 19.4495 61.9291 19.5329 62.143 19.5949C62.3963 19.6688 62.6591 19.7052 62.923 19.7029C63.2946 19.7184 63.6652 19.6529 64.009 19.5109C64.265 19.3938 64.4816 19.2052 64.633 18.9679C64.7874 18.7138 64.8846 18.4293 64.918 18.1339C64.9619 17.7836 64.983 17.4309 64.981 17.0779V16.9639C64.905 17.0399 64.81 17.1259 64.696 17.2219C64.572 17.3241 64.436 17.4107 64.291 17.4799C64.1199 17.5624 63.941 17.6277 63.757 17.6749C63.5433 17.7292 63.3235 17.7554 63.103 17.7529C62.7399 17.7534 62.3794 17.6905 62.038 17.5669C61.6953 17.4397 61.3872 17.2342 61.138 16.9669C60.8565 16.6614 60.6456 16.2978 60.52 15.9019C60.3563 15.381 60.2793 14.8367 60.292 14.2909C60.281 13.7422 60.358 13.1952 60.52 12.6709C60.6429 12.2623 60.8469 11.8827 61.12 11.5549C61.3664 11.2736 61.6744 11.0528 62.02 10.9099C62.3624 10.7686 62.7296 10.6972 63.1 10.6999C63.4844 10.6887 63.8668 10.7593 64.222 10.9069C64.5039 11.03 64.7596 11.2062 64.975 11.4259C65.0118 11.2317 65.1311 11.0631 65.302 10.9639C65.4515 10.8701 65.6235 10.8183 65.8 10.8139H65.929H66.043C66.0808 10.8186 66.1191 10.8186 66.157 10.8139V17.0749H66.151ZM61.549 14.1559C61.5463 14.4977 61.5745 14.8391 61.633 15.1759C61.6815 15.4632 61.7832 15.7389 61.933 15.9889C62.0708 16.2159 62.2665 16.4022 62.5 16.5289C62.7672 16.6646 63.0644 16.7307 63.364 16.7209C63.5789 16.7233 63.7931 16.695 64 16.6369C64.1774 16.5877 64.3477 16.5162 64.507 16.4239C64.637 16.3495 64.7487 16.247 64.834 16.1239C64.9056 16.0251 64.9453 15.9068 64.948 15.7849V12.4849L64.726 12.2719C64.6226 12.1778 64.5077 12.0971 64.384 12.0319C64.2325 11.9506 64.0726 11.8862 63.907 11.8399C63.7115 11.7867 63.5096 11.7604 63.307 11.7619C62.8068 11.7407 62.3276 11.9646 62.023 12.3619C61.709 12.7659 61.552 13.3639 61.552 14.1559H61.549Z" fill="#E8EAFB"></path>
      <path d="M70.837 16.7179C71.0752 16.7201 71.3123 16.6836 71.539 16.6099C71.7324 16.548 71.9162 16.4591 72.0849 16.3459C72.2214 16.2551 72.3412 16.1415 72.4389 16.0099C72.5143 15.919 72.5594 15.8068 72.568 15.6889V10.7989H72.652H72.7299H72.823C73.0646 10.792 73.3018 10.8647 73.498 11.0059C73.7044 11.1963 73.807 11.4741 73.7739 11.7529V17.5429H72.574V16.9429C72.3485 17.1835 72.0785 17.3781 71.7789 17.5159C71.3637 17.6987 70.9123 17.7848 70.459 17.7679C70.0183 17.7915 69.5788 17.7038 69.181 17.5129C68.895 17.3606 68.6586 17.1295 68.5 16.8469C68.3515 16.5778 68.2615 16.2803 68.236 15.9739C68.212 15.6579 68.2 15.3529 68.2 15.0589V10.7989H68.284H68.3619H68.455C68.6953 10.7911 68.9319 10.8605 69.13 10.9969C69.3371 11.1843 69.44 11.4607 69.4059 11.7379V15.0679C69.3989 15.3639 69.425 15.6598 69.484 15.9499C69.5237 16.1499 69.6372 16.3277 69.8019 16.4479C69.9396 16.5501 70.0969 16.6227 70.264 16.6609C70.4522 16.7012 70.6444 16.7203 70.837 16.7179Z" fill="#E8EAFB"></path>
      <path d="M79.516 11.0961C79.6632 11.1688 79.7939 11.2709 79.9 11.3961C79.9606 11.4711 79.9954 11.5637 79.999 11.6601C79.9948 11.7848 79.9684 11.9077 79.921 12.0231C79.8677 12.1629 79.8035 12.2983 79.729 12.4281H79.531C79.3384 12.2017 79.0975 12.0213 78.826 11.9001C78.5177 11.7537 78.1803 11.6789 77.839 11.6811C77.7033 11.6824 77.5679 11.6945 77.434 11.7171C77.2915 11.7401 77.1531 11.7835 77.023 11.8461C76.8961 11.9065 76.7859 11.9972 76.702 12.1101C76.6131 12.2339 76.5678 12.3837 76.573 12.5361C76.5584 12.8172 76.7198 13.0779 76.978 13.1901C77.2984 13.3407 77.6344 13.4554 77.98 13.5321C78.2601 13.5972 78.5357 13.6804 78.805 13.7811C79.0568 13.8735 79.2934 14.0029 79.507 14.1651C79.7124 14.3249 79.8777 14.5303 79.99 14.7651C80.1162 15.0405 80.1768 15.3413 80.167 15.6441C80.1746 15.9622 80.1013 16.277 79.954 16.5591C79.8156 16.8162 79.6219 17.0396 79.387 17.2131C79.1357 17.3912 78.8541 17.5223 78.556 17.6001C78.2349 17.6906 77.9027 17.736 77.569 17.7351C77.2672 17.7382 76.9658 17.7121 76.669 17.6571C76.4411 17.6155 76.218 17.5512 76.003 17.4651C75.8183 17.4001 75.6488 17.298 75.505 17.1651C75.421 17.087 75.3705 16.9795 75.364 16.8651C75.3667 16.7311 75.4006 16.5996 75.463 16.4811C75.529 16.3491 75.614 16.1981 75.718 16.0281C75.784 16.0841 75.876 16.1551 75.994 16.2411C76.1269 16.3346 76.2686 16.415 76.417 16.4811C76.5931 16.5608 76.7758 16.625 76.963 16.6731C77.1708 16.7263 77.3845 16.7525 77.599 16.7511C77.7673 16.7515 77.9352 16.7344 78.1 16.7001C78.2521 16.6706 78.3981 16.6159 78.532 16.5381C78.6545 16.4634 78.7574 16.3606 78.832 16.2381C78.917 16.0862 78.9585 15.9139 78.952 15.7401C78.9593 15.5682 78.9154 15.398 78.826 15.2511C78.7383 15.121 78.6224 15.0123 78.487 14.9331C78.3383 14.8445 78.1791 14.775 78.013 14.7261C77.843 14.6721 77.672 14.6301 77.5 14.6001C77.2332 14.5457 76.9705 14.4725 76.714 14.3811C76.4696 14.292 76.2416 14.1633 76.039 14.0001C75.8438 13.8472 75.6841 13.6538 75.571 13.4331C75.4463 13.1764 75.3855 12.8933 75.394 12.6081C75.388 12.3187 75.4562 12.0326 75.592 11.7771C75.7218 11.537 75.9069 11.3314 76.132 11.1771C76.3673 11.0207 76.6268 10.9041 76.9 10.8321C77.1932 10.7514 77.496 10.711 77.8 10.7121C78.1325 10.7091 78.464 10.7474 78.787 10.8261C79.0411 10.8826 79.2864 10.9734 79.516 11.0961Z" fill="#E8EAFB"></path>
      <path d="M81.802 16.7C81.7329 16.5069 81.6925 16.3047 81.682 16.1C81.668 15.888 81.661 15.677 81.661 15.467V8.82495H81.745H81.823H81.916C82.1532 8.82004 82.386 8.88926 82.582 9.02295C82.7921 9.19972 82.8992 9.47029 82.867 9.74295V10.853H84.982V11.9H82.867V15.554C82.867 16.33 83.175 16.718 83.791 16.718C83.9367 16.719 84.0812 16.6926 84.217 16.64C84.3416 16.5913 84.4603 16.5289 84.571 16.454C84.6641 16.3917 84.7524 16.3225 84.835 16.247C84.8844 16.2043 84.9296 16.1571 84.97 16.106C85.0788 16.2363 85.1791 16.3736 85.27 16.517C85.3447 16.6314 85.3862 16.7643 85.39 16.901C85.3812 17.0054 85.3354 17.1032 85.261 17.177C85.1599 17.2888 85.0401 17.3821 84.907 17.453C84.73 17.548 84.5415 17.6196 84.346 17.666C84.1065 17.7243 83.8606 17.7525 83.614 17.75C83.2018 17.77 82.7925 17.6711 82.435 17.465C82.1456 17.2865 81.9231 17.0177 81.802 16.7Z" fill="#E8EAFB"></path>
      <path d="M48.487 28.7181C48.7349 28.7205 48.9823 28.6964 49.225 28.6461C49.4214 28.6051 49.614 28.5479 49.801 28.4751C49.9468 28.4185 50.0873 28.3492 50.221 28.2681C50.3127 28.2134 50.3982 28.1491 50.476 28.0761V25.5801H48.487V24.5721H51.655V28.5921C51.5481 28.7131 51.4261 28.82 51.292 28.9101C51.0784 29.0622 50.8503 29.1928 50.611 29.3001C49.9032 29.6149 49.1356 29.7725 48.361 29.7621C47.7116 29.7784 47.0665 29.6525 46.471 29.3931C45.9555 29.1585 45.5046 28.8023 45.157 28.3551C44.7979 27.8836 44.5368 27.345 44.389 26.7711C44.2173 26.1151 44.1336 25.4391 44.14 24.7611C44.1337 24.0965 44.2196 23.4342 44.395 22.7931C44.5462 22.2291 44.8117 21.7022 45.175 21.2451C45.5362 20.8066 45.9956 20.4592 46.516 20.2311C47.1234 19.9726 47.779 19.8468 48.439 19.8621C48.7786 19.8618 49.117 19.9021 49.447 19.9821C49.7513 20.0488 50.0471 20.1494 50.329 20.2821C50.5575 20.3914 50.7679 20.5351 50.953 20.7081C51.0899 20.8187 51.1764 20.9799 51.193 21.1551C51.1869 21.2905 51.1477 21.4223 51.079 21.5391C51.0073 21.6754 50.9218 21.8041 50.824 21.9231H50.584C50.4815 21.8026 50.3669 21.6931 50.242 21.5961C50.0889 21.4755 49.9253 21.3691 49.753 21.2781C49.5551 21.1739 49.3457 21.0933 49.129 21.0381C48.8761 20.9738 48.6159 20.9425 48.355 20.9451C47.8566 20.9266 47.3621 21.0394 46.921 21.2721C46.5559 21.4809 46.247 21.7754 46.021 22.1301C45.7885 22.4968 45.6267 22.9038 45.544 23.3301C45.4531 23.7935 45.4079 24.2648 45.409 24.7371C45.408 25.229 45.4583 25.7196 45.559 26.2011C45.6485 26.6503 45.8215 27.0787 46.069 27.4641C46.3099 27.8354 46.6359 28.1439 47.02 28.3641C47.4692 28.6094 47.9753 28.7316 48.487 28.7181Z" fill="#E8EAFB"></path>
      <path d="M58.555 27.9952C58.5517 28.1726 58.5607 28.3501 58.582 28.5262C58.5913 28.6293 58.6287 28.7279 58.69 28.8112C58.7452 28.8745 58.8204 28.9168 58.903 28.9312C59.0178 28.9519 59.1344 28.961 59.251 28.9582V29.5252C59.1531 29.5571 59.0528 29.5812 58.951 29.5972C58.8239 29.6161 58.6955 29.6251 58.567 29.6242C58.2973 29.631 58.0302 29.5701 57.79 29.4472C57.5619 29.3181 57.415 29.0819 57.4 28.8202C57.1512 29.0646 56.8645 29.2672 56.551 29.4202C56.1419 29.602 55.6964 29.6872 55.249 29.6692C54.9987 29.6692 54.7491 29.641 54.505 29.5852C54.2604 29.534 54.0294 29.4318 53.827 29.2852C53.6168 29.1257 53.4455 28.9206 53.326 28.6852C53.1829 28.3786 53.1151 28.0423 53.128 27.7042C53.111 27.273 53.2434 26.849 53.503 26.5042C53.753 26.1921 54.0698 25.9399 54.43 25.7662C54.798 25.5756 55.1923 25.4411 55.6 25.3672C55.9812 25.3047 56.366 25.2666 56.752 25.2532H57.052C57.152 25.2478 57.2521 25.2478 57.352 25.2532V25.0552C57.3782 24.705 57.2711 24.3578 57.052 24.0832C56.852 23.8612 56.461 23.7502 55.879 23.7502C55.5123 23.7404 55.1467 23.7953 54.799 23.9122C54.4976 24.0253 54.2114 24.1754 53.947 24.3592H53.8C53.7227 24.2331 53.6583 24.0994 53.608 23.9602C53.5631 23.8514 53.5368 23.7358 53.53 23.6182C53.5441 23.4718 53.6294 23.3416 53.758 23.2702C53.9427 23.1421 54.1448 23.0411 54.358 22.9702C54.6186 22.8805 54.8867 22.8143 55.159 22.7722C55.4456 22.7252 55.7356 22.7011 56.026 22.7002C56.4316 22.6911 56.8362 22.7437 57.226 22.8562C57.5197 22.95 57.7856 23.1149 58 23.3362C58.2065 23.555 58.3523 23.8238 58.423 24.1162C58.5096 24.4696 58.5509 24.8325 58.546 25.1962V27.9952H58.555ZM57.355 26.1772H56.944C56.6372 26.1777 56.3306 26.1967 56.026 26.2342C55.7348 26.2672 55.4493 26.3388 55.177 26.4472C54.9388 26.5402 54.726 26.6882 54.556 26.8792C54.3885 27.0853 54.303 27.346 54.316 27.6112C54.313 27.8839 54.4029 28.1495 54.571 28.3642C54.8195 28.6185 55.1721 28.7427 55.525 28.7002C55.7622 28.701 55.9981 28.6645 56.224 28.5922C56.434 28.5302 56.6355 28.4425 56.824 28.3312C56.9766 28.241 57.1125 28.1253 57.226 27.9892C57.3153 27.892 57.3683 27.767 57.376 27.6352V26.1772H57.355Z" fill="#E8EAFB"></path>
      <path d="M64 22.7C64.3603 22.704 64.7166 22.7763 65.05 22.913C65.3876 23.0368 65.6732 23.2716 65.86 23.579C66.1166 23.316 66.4224 23.106 66.76 22.961C67.1633 22.7794 67.6017 22.6892 68.044 22.697C68.5572 22.6655 69.0651 22.8164 69.478 23.123C69.812 23.3967 70.0418 23.777 70.129 24.2C70.1785 24.4075 70.2067 24.6197 70.213 24.833C70.213 25.065 70.213 25.29 70.213 25.508V29.543H69.013V25.553C69.013 25.373 69.013 25.2 69.013 25.034C69.0097 24.877 68.9835 24.7213 68.935 24.572C68.8768 24.3384 68.732 24.1357 68.53 24.005C68.2445 23.8535 67.9224 23.7849 67.6 23.807C67.2976 23.8046 66.9987 23.8724 66.727 24.005C66.4984 24.1085 66.294 24.2588 66.127 24.446C66.147 24.608 66.161 24.776 66.169 24.95C66.177 25.124 66.177 25.306 66.169 25.496V29.543H64.969V25.553C64.9699 25.3656 64.9609 25.1784 64.942 24.992C64.926 24.8299 64.8928 24.67 64.843 24.515C64.691 24.041 64.265 23.804 63.565 23.804C63.362 23.8033 63.16 23.8316 62.965 23.888C62.7823 23.9397 62.6077 24.0165 62.446 24.116C62.3059 24.2004 62.1811 24.3079 62.077 24.434C61.9914 24.5303 61.9416 24.6532 61.936 24.782V29.543H60.736V22.841H60.82H60.913H61.006C61.22 22.8322 61.4309 22.8945 61.606 23.018C61.7753 23.1523 61.8834 23.349 61.906 23.564C62.1546 23.3111 62.4487 23.1076 62.773 22.964C63.1584 22.7893 63.5768 22.6993 64 22.7Z" fill="#E8EAFB"></path>
      <path d="M73.6359 20.6808C73.6538 20.966 73.5117 21.2376 73.2672 21.3857C73.0227 21.5337 72.7162 21.5337 72.4717 21.3857C72.2272 21.2376 72.0851 20.966 72.1029 20.6808C72.0946 20.4652 72.1735 20.2553 72.3219 20.0988C72.4667 19.9527 72.6638 19.8706 72.8694 19.8706C73.0751 19.8706 73.2722 19.9527 73.4169 20.0988C73.5651 20.2555 73.644 20.4652 73.6359 20.6808ZM72.3159 22.7958H72.3999H72.4779H72.5709C72.8126 22.7888 73.0498 22.8615 73.2459 23.0028C73.4523 23.1931 73.555 23.4709 73.5219 23.7498V28.2798C73.5047 28.4813 73.5464 28.6835 73.6419 28.8618C73.7931 29.0013 73.9997 29.0642 74.2029 29.0328V29.5428C74.0894 29.5774 73.9729 29.6015 73.8549 29.6148C73.7117 29.633 73.5674 29.6421 73.4229 29.6418C73.2044 29.6539 72.9863 29.6095 72.7899 29.5128C72.6493 29.4338 72.5355 29.3148 72.4629 29.1708C72.3898 29.0226 72.346 28.8616 72.3339 28.6968C72.3199 28.5208 72.3129 28.3478 72.3129 28.1778V22.7988L72.3159 22.7958Z" fill="#E8EAFB"></path>
      <path d="M76 22.8261C76.2115 22.821 76.4198 22.8773 76.6 22.9881C76.7793 23.1205 76.8895 23.3265 76.9 23.5491C77.1626 23.3026 77.4675 23.1055 77.8 22.9671C78.2196 22.7876 78.6728 22.7006 79.129 22.7121C79.6557 22.6768 80.1781 22.8275 80.605 23.1381C80.934 23.4109 81.1647 23.7839 81.262 24.2001C81.3116 24.4077 81.3397 24.6198 81.346 24.8331C81.346 25.0651 81.346 25.2901 81.346 25.5081V29.5431H80.146V25.5531C80.146 25.3731 80.146 25.2001 80.146 25.0341C80.1428 24.8771 80.1165 24.7214 80.068 24.5721C80.0092 24.3372 79.862 24.134 79.657 24.0051C79.3732 23.855 79.0534 23.7864 78.733 23.8071C78.2798 23.7848 77.8301 23.8964 77.44 24.1281C77.1775 24.2575 76.9972 24.5098 76.96 24.8001V29.5431H75.76V22.8411H75.832H75.91L76 22.8261Z" fill="#E8EAFB"></path>
      <path d="M89.0019 29.0749C89.0076 29.5928 88.9573 30.1098 88.8519 30.6169C88.768 31.0324 88.5905 31.4233 88.3329 31.7599C88.0717 32.0831 87.7289 32.3306 87.3399 32.4769C86.835 32.6573 86.3009 32.7417 85.7649 32.7259C85.3731 32.7316 84.9821 32.6882 84.6009 32.5969C84.3142 32.5329 84.0369 32.4321 83.7759 32.2969C83.6377 32.2198 83.5147 32.1182 83.4129 31.9969C83.3455 31.9114 83.3086 31.8058 83.3079 31.6969C83.3179 31.5464 83.3746 31.4028 83.4699 31.2859C83.5631 31.1575 83.6632 31.0343 83.7699 30.9169C83.8254 30.9781 83.8878 31.0324 83.9559 31.0789C84.0888 31.1778 84.2292 31.2661 84.3759 31.3429C84.573 31.4466 84.7801 31.53 84.9939 31.5919C85.2473 31.6659 85.5101 31.7023 85.7739 31.6999C86.1456 31.7154 86.5162 31.6499 86.8599 31.5079C87.1159 31.3908 87.3326 31.2023 87.4839 30.9649C87.6383 30.7109 87.7356 30.4263 87.7689 30.1309C87.8129 29.7807 87.8339 29.4279 87.8319 29.0749V28.9639C87.7559 29.0399 87.6609 29.1259 87.5469 29.2219C87.423 29.3242 87.287 29.4108 87.1419 29.4799C86.9709 29.5625 86.792 29.6278 86.6079 29.6749C86.3942 29.7292 86.1744 29.7554 85.9539 29.7529C85.5908 29.7536 85.2304 29.6906 84.8889 29.5669C84.5463 29.4399 84.238 29.2344 83.9889 28.9669C83.7074 28.6615 83.4964 28.2979 83.3709 27.9019C83.2073 27.381 83.1303 26.8368 83.1429 26.2909C83.132 25.7422 83.2089 25.1953 83.3709 24.6709C83.4938 24.2624 83.6979 23.8828 83.9709 23.5549C84.2175 23.2737 84.5254 23.053 84.8709 22.9099C85.2131 22.7676 85.5803 22.6952 85.9509 22.6969C86.3354 22.6858 86.7178 22.7563 87.0729 22.9039C87.3549 23.0271 87.6105 23.2033 87.8259 23.4229C87.8628 23.2288 87.9821 23.0602 88.1529 22.9609C88.3024 22.8671 88.4745 22.8152 88.6509 22.8109H88.7799H88.8939C88.9318 22.8157 88.9701 22.8157 89.0079 22.8109V29.0749H89.0019ZM84.3999 26.1559C84.3973 26.4978 84.4254 26.8392 84.4839 27.1759C84.5325 27.4633 84.6342 27.739 84.7839 27.9889C84.9214 28.2145 85.1159 28.3997 85.3479 28.5259C85.6152 28.6616 85.9124 28.7276 86.2119 28.7179C86.4269 28.7203 86.641 28.6921 86.8479 28.6339C87.0253 28.5847 87.1957 28.5132 87.3549 28.4209C87.4849 28.3466 87.5967 28.2441 87.6819 28.1209C87.7535 28.0222 87.7933 27.9039 87.7959 27.7819V24.4819L87.5739 24.2689C87.4705 24.1749 87.3556 24.0942 87.2319 24.0289C87.0804 23.9478 86.9205 23.8834 86.7549 23.8369C86.5594 23.7837 86.3576 23.7575 86.1549 23.7589C85.6547 23.7377 85.1756 23.9616 84.8709 24.3589C84.5569 24.7649 84.3999 25.3639 84.3999 26.1559Z" fill="#E8EAFB"></path>
    </g>
  </g>
  <defs>
    <clipPath id="clip0_1_189">
      <rect width="100" height="40" fill="white"></rect>
    </clipPath>
  </defs>
</svg>
