<?xml version="1.0" encoding="UTF-8"?>
<svg xmlns="http://www.w3.org/2000/svg" width="142" height="40" viewBox="0 0 142 40" fill="none">
  <g clip-path="url(#clip0_1_221)">
    <g opacity="0.6">
      <path d="M70.2976 10.4972L66.804 13.9908C66.7231 14.0691 66.6785 14.1775 66.6808 14.29C66.679 14.4063 66.7232 14.5186 66.804 14.6024L70.28 18.096C70.3605 18.1736 70.4674 18.2176 70.5792 18.2192C70.6945 18.216 70.8051 18.1724 70.8916 18.096L74.3852 14.6024C74.466 14.5186 74.5102 14.4063 74.5084 14.29C74.5107 14.1775 74.4661 14.0691 74.3852 13.9908L70.8916 10.4972C70.8078 10.4164 70.6955 10.3722 70.5792 10.374C70.4667 10.3717 70.3583 10.4163 70.28 10.4972H70.2976ZM71.1776 10.2244L72.5724 11.6324C73.1726 11.1605 73.7967 10.7199 74.4424 10.3124L74.5172 10.264L74.5788 10.3124C74.6052 10.3124 82.0588 15.0028 82.0588 19.4688C82.0616 20.5105 81.6593 21.5124 80.9368 22.2628C80.2272 23.0053 79.2447 23.4251 78.2176 23.4244C77.4385 23.4253 76.6753 23.2039 76.0176 22.7864C75.5376 22.4926 75.1288 22.0958 74.8208 21.6248C75.1596 24.168 77.8744 24.3176 78.1868 24.3176H78.2132V24.5684H70.7904V24.3176H70.8168C71.1292 24.3176 73.8352 24.168 74.1828 21.6248C73.868 22.0902 73.4606 22.4857 72.986 22.7864C72.3276 23.2024 71.5648 23.4236 70.786 23.4244C69.7629 23.4203 68.7856 22.9993 68.08 22.2584C67.3527 21.5111 66.9495 20.5071 66.958 19.4644C66.9659 18.8933 67.0716 18.3278 67.2704 17.7924C67.4624 17.2778 67.7087 16.7851 68.0052 16.3228L66.5356 14.862C66.3905 14.707 66.3102 14.5023 66.3112 14.29C66.3093 14.0801 66.3899 13.8779 66.5356 13.7268L70.0556 10.2068C70.2027 10.0738 70.394 10 70.5924 10C70.8032 10.0002 71.0061 10.0804 71.16 10.2244H71.1776ZM10 23.684V15.1744H14.8136C15.3748 15.1422 15.9363 15.2323 16.4592 15.4384C16.8617 15.6502 17.1742 16.0002 17.3392 16.424C17.487 16.7315 17.5637 17.0684 17.5636 17.4096C17.5606 17.8454 17.4405 18.2724 17.216 18.646C17.0193 18.9998 16.7094 19.2772 16.336 19.4336C17.1324 19.7719 17.6282 20.5765 17.5724 21.44C17.5921 21.934 17.4567 22.4217 17.1852 22.8348C16.972 23.1481 16.6634 23.3842 16.3052 23.508C15.7795 23.6428 15.2372 23.702 14.6948 23.684H10ZM11.8084 18.668H14.2768C14.4652 18.6745 14.6538 18.6627 14.84 18.6328C14.9655 18.61 15.0826 18.5538 15.1788 18.47C15.4478 18.2733 15.5986 17.9535 15.5792 17.6208C15.5983 17.3187 15.456 17.0291 15.2052 16.8596C14.9326 16.7241 14.6289 16.6634 14.3252 16.6836H11.8084V18.668ZM11.8084 22.188H14.2768C14.4658 22.1887 14.6544 22.171 14.84 22.1352C14.9665 22.1076 15.0835 22.0469 15.1788 21.9592C15.447 21.7678 15.5982 21.4521 15.5792 21.1232C15.602 20.8204 15.4589 20.529 15.2052 20.362C14.9326 20.2265 14.6289 20.1658 14.3252 20.186H11.8084V22.188ZM25.0084 15.192V16.7012H22.6236C22.1707 16.6843 21.7176 16.7302 21.2772 16.8376C20.9941 16.9142 20.7428 17.0791 20.56 17.3084C20.4431 17.4619 20.3537 17.6346 20.296 17.8188C20.2356 18.1088 20.1973 18.403 20.1816 18.6988H24.9908V20.208H20.2036C20.1958 20.7859 20.4266 21.3414 20.8416 21.7436C21.4021 22.0859 22.0573 22.24 22.7116 22.1836H24.9952V23.684H22.6236C22.0598 23.6884 21.4964 23.6502 20.9384 23.5696C20.2219 23.4732 19.5674 23.1122 19.1036 22.5576C18.4202 21.6427 18.0806 20.5165 18.1444 19.3764C18.1444 17.8936 18.5844 16.7364 19.504 15.9224C19.7932 15.6608 20.1332 15.4616 20.5028 15.3372C20.9662 15.2144 21.4449 15.1596 21.924 15.1744L25.0084 15.192ZM26.0204 15.192H27.8288V19.9528C27.8357 20.3575 27.8651 20.7614 27.9168 21.1628C27.9429 21.5081 28.1532 21.8125 28.4668 21.9592C29.0022 22.1304 29.5644 22.202 30.1256 22.1704H31.8592V23.684H29.9188C29.2537 23.7178 28.5869 23.6675 27.9344 23.5344C27.0521 23.3151 26.3652 22.6231 26.1524 21.7392C26.0302 21.1535 25.9799 20.5551 26.0028 19.9572L26.0204 15.192ZM32.0264 23.684L35.5464 15.1788H37.6408L41.1608 23.684H39.04L38.2172 21.7128H34.97L34.1472 23.684H32.0264ZM36.5892 17.2204L35.3792 20.1992H37.7992L36.5892 17.2204ZM42.626 16.6836H39.92V15.1744H47.2548V16.6836H44.4344V23.684H42.626V16.6836ZM49.666 20.45V23.684H47.8664V15.1744H52.02C53.2168 15.1744 54.0528 15.324 54.528 15.6144C54.8434 15.809 55.1015 16.0838 55.276 16.4108C55.4522 16.7537 55.5427 17.1341 55.54 17.5196C55.581 18.2002 55.3571 18.8703 54.9152 19.3896C54.6344 19.675 54.2864 19.8853 53.9032 20.0012C54.1732 20.0837 54.4296 20.2053 54.6644 20.362C54.8479 20.5265 54.9973 20.7253 55.1044 20.9472C55.1987 21.1342 55.2738 21.3303 55.3288 21.5324C55.3793 21.8088 55.4131 22.0879 55.43 22.3684C55.4497 22.8035 55.5206 23.2347 55.6412 23.6532H53.6304C53.5344 23.2557 53.4711 22.851 53.4412 22.4432C53.4206 22.0513 53.3281 21.6665 53.1684 21.308C53.0412 21.0409 52.8314 20.8218 52.57 20.6832C52.1199 20.4816 51.628 20.3911 51.1356 20.4192L49.666 20.45ZM49.666 18.9276H52.24C52.5448 18.9484 52.8494 18.8845 53.12 18.7428C53.4147 18.5055 53.5661 18.1328 53.5204 17.7572C53.5756 17.3253 53.3203 16.9139 52.9088 16.7716C52.6832 16.6986 52.4459 16.6687 52.2092 16.6836H49.6748L49.666 18.9276ZM55.8524 23.6796L59.3724 15.1744H61.48L65 23.6796H62.8792L62.0564 21.7084H58.8136L57.96 23.684L55.8524 23.6796ZM60.424 17.2204L59.214 20.1992H61.634L60.424 17.2204ZM86.6524 23.8556C86.661 24.0847 86.7767 24.2965 86.9648 24.4276C87.2392 24.6053 87.5622 24.693 87.8888 24.6784C87.9941 24.6769 88.0989 24.6636 88.2012 24.6388C88.3218 24.6124 88.4385 24.571 88.5488 24.5156C88.789 24.4004 88.9986 24.23 89.1604 24.0184C89.3766 23.6958 89.5179 23.329 89.574 22.9448L89.6752 22.5048C89.5046 22.6406 89.3148 22.7504 89.112 22.8304C88.8846 22.9153 88.6506 22.9815 88.4124 23.0284C88.276 23.0548 88.1396 23.0768 87.9988 23.09C87.858 23.1032 87.726 23.1164 87.5984 23.1164H87.462C86.7049 23.1413 85.9674 22.8734 85.4028 22.3684C84.8528 21.8712 84.58 21.0836 84.58 20.0364C84.5636 18.9117 84.9332 17.8153 85.6272 16.93C86.3159 16.0473 87.391 15.5549 88.5092 15.61H88.9492C89.0541 15.6163 89.1585 15.6295 89.2616 15.6496C89.6126 15.689 89.9563 15.7779 90.2824 15.9136C90.601 16.0458 90.8746 16.2674 91.07 16.5516L91.2196 15.83H93.4636L92.016 22.584C91.9764 22.7468 91.928 22.9844 91.84 23.2836C91.7531 23.6146 91.6229 23.9326 91.4528 24.2296C91.1522 24.765 90.7246 25.2184 90.2076 25.5496C89.4584 25.9917 88.5943 26.2 87.726 26.148H87.5896L86.9516 26.1084C86.6692 26.1064 86.3882 26.0679 86.1156 25.994C85.6674 25.897 85.2493 25.6933 84.8968 25.4C84.4948 25.0309 84.2867 24.4962 84.3336 23.9524V23.8292H84.47L86.6524 23.8556ZM89.6708 21.0484C89.9509 20.7269 90.1674 20.3551 90.3088 19.9528C90.3853 19.7253 90.4399 19.4911 90.4716 19.2532C90.5036 19.0642 90.5198 18.8729 90.52 18.6812C90.5573 18.2547 90.4118 17.8325 90.1196 17.5196C89.8527 17.2692 89.5 17.1306 89.134 17.1324C88.5144 17.1512 87.9464 17.4824 87.6248 18.0124C87.2219 18.6121 87.0173 19.3231 87.0396 20.0452C87.0396 20.0716 87.0396 20.1684 87.0396 20.318C87.0648 20.4858 87.1106 20.6498 87.176 20.8064C87.2814 21.0081 87.432 21.1828 87.616 21.3168C87.8509 21.4973 88.1432 21.5864 88.4388 21.5676C88.907 21.5837 89.3588 21.394 89.6752 21.0484H89.6708ZM94.348 18.206C94.3744 18.118 94.3964 18.0168 94.4228 17.92C94.4585 17.8182 94.4997 17.7183 94.546 17.6208C94.8274 17.048 95.2613 16.5639 95.8 16.2216C96.3984 15.808 97.3356 15.5968 98.594 15.5968H98.7304C99.8392 15.5968 100.614 15.7596 101.014 16.094C101.374 16.3645 101.619 16.7602 101.7 17.2028V17.3524C101.706 17.3977 101.706 17.4435 101.7 17.4888C101.7 17.6364 101.687 17.7836 101.661 17.9288C101.634 18.0784 101.612 18.2016 101.586 18.316L100.838 21.7348L100.798 21.8844C100.788 21.9316 100.772 21.9774 100.75 22.0208C100.75 22.0824 100.724 22.1572 100.71 22.232C100.703 22.3272 100.703 22.4228 100.71 22.518V22.7908C100.703 22.8197 100.703 22.8499 100.71 22.8788C100.722 22.9382 100.748 22.9939 100.785 23.0416C100.829 23.1093 100.884 23.1689 100.948 23.2176V23.266H98.4664L98.418 22.6192C98.3107 22.7206 98.1944 22.8119 98.0704 22.892C97.9514 22.9759 97.8264 23.0509 97.6964 23.1164C97.3584 23.2821 96.9959 23.3921 96.6228 23.442C96.284 23.4816 96.0596 23.4904 95.9496 23.4904H95.8132C95.7136 23.4842 95.6136 23.4842 95.514 23.4904C95.4128 23.4904 95.3028 23.4904 95.2016 23.464C94.7738 23.4126 94.364 23.262 94.0048 23.024C93.6146 22.6913 93.4137 22.1875 93.468 21.6776C93.3882 20.8845 93.7854 20.1194 94.48 19.7284C95.1699 19.3732 95.9129 19.1325 96.68 19.0156C96.8428 18.9892 97.0056 18.9672 97.1684 18.954C97.3312 18.9408 97.4808 18.9056 97.6436 18.8924C97.7013 18.8783 97.7603 18.8694 97.8196 18.866C97.879 18.8635 97.938 18.8546 97.9956 18.8396C98.3495 18.8172 98.696 18.7276 99.0164 18.5756C99.2276 18.4524 99.342 18.162 99.342 17.6956C99.3495 17.5277 99.2798 17.3657 99.1528 17.2556C99.0312 17.16 98.8899 17.0924 98.7392 17.0576L98.5632 17.018C98.5016 17.018 98.4488 17.018 98.3872 17.018C98.0306 17.0062 97.6798 17.1113 97.3884 17.3172C97.18 17.4743 97.015 17.6817 96.9088 17.92C96.9088 17.9596 96.8692 18.008 96.8604 18.0564L96.8208 18.206H94.3524H94.348ZM98.9372 19.7768C98.8492 19.8164 98.7744 19.8384 98.6996 19.8648C98.6355 19.8909 98.5692 19.9115 98.5016 19.9264C98.4467 19.9528 98.3865 19.9664 98.3256 19.966C98.2586 19.9778 98.1925 19.9939 98.1276 20.0144C98.0726 20.0181 98.0181 20.0269 97.9648 20.0408C97.9032 20.0408 97.8416 20.0408 97.7668 20.0672C97.692 20.0936 97.5556 20.1068 97.4412 20.1288C97.3268 20.1508 97.2036 20.1772 97.0672 20.2168C96.7968 20.3004 96.5435 20.4315 96.3192 20.604C96.0834 20.8042 95.9575 21.1051 95.9804 21.4136C95.9664 21.6232 96.0676 21.8238 96.2444 21.9372C96.431 22.0584 96.6469 22.1268 96.8692 22.1352C97.0084 22.1181 97.1465 22.0931 97.2828 22.0604C97.465 22.0101 97.6375 21.9298 97.7932 21.8228C98.0253 21.6642 98.2278 21.4661 98.3916 21.2376C98.6128 20.9199 98.7629 20.5582 98.8316 20.1772L98.9372 19.7768ZM105.722 15.786L105.511 16.71C105.924 16.2582 106.445 15.9177 107.024 15.72C107.342 15.6294 107.668 15.5705 107.997 15.544H108.12C108.59 15.5078 109.058 15.6404 109.44 15.918C109.693 16.1256 109.879 16.4024 109.977 16.7144V16.7408C110.357 16.3833 110.791 16.0865 111.262 15.8608C111.723 15.6333 112.23 15.5173 112.744 15.522H112.881C113.642 15.522 114.152 15.7112 114.416 16.072C114.687 16.4168 114.852 16.8324 114.892 17.2688C114.892 17.3172 114.892 17.37 114.892 17.4184V17.568C114.892 17.7308 114.892 17.8936 114.865 18.0432C114.839 18.1928 114.817 18.3424 114.79 18.4832C114.79 18.5228 114.79 18.558 114.764 18.5976C114.738 18.6372 114.764 18.6724 114.764 18.712L113.84 23.2704H111.46L112.406 18.8704C112.432 18.7824 112.445 18.6812 112.467 18.558C112.482 18.4383 112.491 18.3178 112.494 18.1972C112.498 17.9753 112.447 17.7559 112.344 17.5592C112.196 17.3532 111.95 17.2398 111.697 17.26C111.595 17.2598 111.494 17.2761 111.398 17.3084C111.291 17.3373 111.186 17.3756 111.086 17.4228C110.846 17.5424 110.634 17.7119 110.465 17.92C110.247 18.2344 110.097 18.5912 110.025 18.9672L109.101 23.2572H106.73L107.667 18.8572C107.693 18.734 107.715 18.6064 107.728 18.4832C107.75 18.3642 107.759 18.2433 107.755 18.1224C107.76 17.9089 107.709 17.6977 107.605 17.5108C107.456 17.3289 107.228 17.2306 106.994 17.2468H106.919H106.831C106.48 17.3096 106.157 17.4803 105.907 17.7352C105.582 18.0704 105.368 18.4975 105.295 18.9584L104.384 23.2484H102.013L103.584 15.7684H105.718L105.722 15.786ZM123.406 21.11C123.339 21.2605 123.264 21.4074 123.181 21.55C123.059 21.8019 122.899 22.0334 122.706 22.2364C122.346 22.6006 121.924 22.8985 121.461 23.1164C120.783 23.4043 120.049 23.5366 119.314 23.5036H119.177C117.932 23.5036 117.056 23.2308 116.537 22.694C116.061 22.2037 115.753 21.5752 115.657 20.8988C115.632 20.8011 115.618 20.7006 115.618 20.5996C115.612 20.4956 115.612 20.3912 115.618 20.2872C115.618 20.0915 115.632 19.896 115.657 19.702C115.684 19.504 115.719 19.3016 115.758 19.0904C115.994 18.162 116.487 17.3188 117.18 16.6572C117.916 15.9092 118.976 15.5352 120.361 15.5352H120.497C121.386 15.4988 122.264 15.7436 123.005 16.2348C123.665 16.6748 123.991 17.48 123.991 18.58C123.993 18.8097 123.977 19.0392 123.942 19.2664C123.914 19.5098 123.868 19.7509 123.806 19.988H118.086C118.082 20.0794 118.073 20.1704 118.06 20.2608C118.038 20.3635 118.03 20.4684 118.033 20.5732V20.7228C118.04 20.7724 118.04 20.8228 118.033 20.8724C118.069 21.174 118.19 21.4592 118.381 21.6952C118.653 21.9776 119.037 22.1244 119.428 22.0956C119.766 22.077 120.094 21.979 120.387 21.8096C120.67 21.6525 120.886 21.3997 120.999 21.0968H123.406V21.11ZM121.597 18.8264C121.593 18.806 121.593 18.7852 121.597 18.7648C121.591 18.7269 121.591 18.6883 121.597 18.6504C121.592 18.6095 121.592 18.5681 121.597 18.5272V18.404C121.604 18.3661 121.604 18.3275 121.597 18.2896V18.184C121.638 17.8266 121.486 17.4744 121.197 17.26C120.909 17.0694 120.57 16.9698 120.224 16.974C119.942 16.9793 119.664 17.0517 119.415 17.1852C119.164 17.3287 118.945 17.5201 118.768 17.7484C118.539 18.0783 118.371 18.4463 118.271 18.8352L121.597 18.8264ZM126.675 20.9076V20.956C126.669 20.9761 126.669 20.9975 126.675 21.0176V21.1408C126.675 21.38 126.77 21.6093 126.939 21.7788C127.223 22.0172 127.59 22.1342 127.96 22.1044C128.273 22.0893 128.577 21.9905 128.84 21.8184C129.083 21.6759 129.231 21.4138 129.227 21.132C129.255 20.8735 129.12 20.6247 128.888 20.5072C128.643 20.3995 128.388 20.3155 128.127 20.2564C128.114 20.2627 128.1 20.2627 128.087 20.2564H128.061C127.946 20.23 127.85 20.208 127.762 20.1948C127.674 20.1816 127.564 20.12 127.48 20.12C126.899 20.0023 126.336 19.8054 125.808 19.5348C125.34 19.2704 125.079 18.7482 125.148 18.2148C125.15 18.0761 125.163 17.9377 125.188 17.8012C125.209 17.6507 125.248 17.5032 125.302 17.3612C125.525 16.843 125.899 16.4043 126.376 16.1028C127.123 15.6713 127.983 15.4721 128.844 15.5308H128.98C129.74 15.4738 130.501 15.626 131.18 15.9708C131.555 16.1913 131.841 16.535 131.99 16.9432C132.024 17.023 132.045 17.1077 132.052 17.194C132.058 17.2819 132.058 17.3701 132.052 17.458C132.058 17.5283 132.058 17.5989 132.052 17.6692C132.049 17.733 132.04 17.7964 132.025 17.8584H129.856C129.862 17.8205 129.862 17.7819 129.856 17.744V17.6296C129.881 17.4274 129.795 17.2276 129.632 17.106C129.486 17.0047 129.319 16.9398 129.143 16.9168C129.104 16.9168 129.055 16.9168 128.994 16.9168H128.844C128.475 16.8939 128.11 16.9996 127.81 17.216C127.616 17.3641 127.496 17.5887 127.48 17.832C127.463 18.0264 127.542 18.2169 127.691 18.3424C127.827 18.4375 127.975 18.5131 128.131 18.5668C128.193 18.5668 128.246 18.5668 128.294 18.5932C128.343 18.6081 128.393 18.6169 128.444 18.6196L128.804 18.6812C128.928 18.6812 129.042 18.7208 129.152 18.7296C129.755 18.8219 130.345 18.9813 130.912 19.2048C131.418 19.438 131.715 19.9718 131.647 20.5248C131.647 20.6876 131.62 20.8856 131.598 21.1232C131.55 21.3903 131.458 21.6476 131.326 21.8844C131.054 22.3526 130.662 22.7398 130.19 23.0064C129.426 23.3882 128.574 23.5598 127.722 23.5036H127.586C126.437 23.5036 125.614 23.3144 125.13 22.98C124.713 22.7224 124.401 22.3247 124.25 21.858C124.224 21.7568 124.202 21.6688 124.189 21.594C124.176 21.5192 124.189 21.418 124.189 21.3432C124.189 21.2684 124.189 21.1936 124.189 21.1056C124.189 21.0176 124.215 20.956 124.228 20.8944H126.648L126.675 20.9076Z" fill="white"></path>
    </g>
  </g>
  <defs>
    <clipPath id="clip0_1_221">
      <rect width="142" height="40" fill="white"></rect>
    </clipPath>
  </defs>
</svg>
