<?xml version="1.0" encoding="UTF-8"?>
<svg xmlns="http://www.w3.org/2000/svg" width="120" height="40" viewBox="0 0 120 40" fill="none">
  <g clip-path="url(#clip0_1_229)">
    <g opacity="0.6">
      <path d="M20.6415 25.8509C19.964 26.4677 18.9826 26.7763 17.6977 26.7763H13.7974C13.6297 26.7763 13.4936 26.6426 13.4936 26.4777V14.5989C13.4936 14.4341 13.6297 14.3004 13.7974 14.3004H17.4185C18.7443 14.3004 19.7518 14.5905 20.4409 15.1701C21.1299 15.75 21.4745 16.5998 21.4745 17.7192C21.4745 18.3533 21.3317 18.899 21.0471 19.356C20.8078 19.7395 20.4949 20.0364 20.1085 20.2469C20.0288 20.2903 20.0372 20.4067 20.1217 20.4396C20.5745 20.6165 20.9324 20.9109 21.1954 21.3223C21.5033 21.8052 21.6577 22.4006 21.6577 23.1089C21.6577 24.3201 21.3188 25.2338 20.6415 25.8509ZM24.7757 11.4185H10.3757C10.2433 11.4185 10.1357 11.526 10.1357 11.6585V29.4185C10.1357 29.5512 10.2433 29.6585 10.3757 29.6585H24.7757C24.9082 29.6585 25.0157 29.5512 25.0157 29.4185V11.6585C25.0157 11.526 24.9082 11.4185 24.7757 11.4185ZM17.8635 21.3523H16.3618C16.1941 21.3523 16.058 21.486 16.058 21.6509V24.3869C16.058 24.5517 16.1941 24.6857 16.3618 24.6857H17.6977C18.157 24.6857 18.506 24.5457 18.7443 24.2657C18.9826 23.9858 19.1019 23.5886 19.1019 23.0748C19.1019 21.9552 18.6891 21.3809 17.8635 21.3523ZM16.3618 19.5187H17.3924C18.3982 19.5187 18.9015 19.0075 18.9015 17.9849C18.9015 17.4194 18.7851 17.0138 18.5525 16.7681C18.3197 16.5225 17.9417 16.3997 17.4185 16.3997H16.3618C16.1941 16.3997 16.058 16.5333 16.058 16.6982V19.2201C16.058 19.385 16.1941 19.5187 16.3618 19.5187Z" fill="white"></path>
      <path opacity="0.2" d="M98.7518 11.459H98.1598C98.1245 11.459 98.0959 11.4875 98.0959 11.5231V29.6349C98.0959 29.6704 98.1245 29.699 98.1598 29.699H98.7518C98.7871 29.699 98.8159 29.6704 98.8159 29.6349V11.5231C98.8159 11.4875 98.7871 11.459 98.7518 11.459ZM83.8718 11.459H83.2798C83.2445 11.459 83.2159 11.4875 83.2159 11.5231V29.6349C83.2159 29.6704 83.2445 29.699 83.2798 29.699H83.8718C83.9071 29.699 83.9359 29.6704 83.9359 29.6349V11.5231C83.9359 11.4875 83.9071 11.459 83.8718 11.459ZM68.9918 11.459H68.3998C68.3645 11.459 68.3359 11.4875 68.3359 11.5231V29.6349C68.3359 29.6704 68.3645 29.699 68.3998 29.699H68.9918C69.0271 29.699 69.0559 29.6704 69.0559 29.6349V11.5231C69.0559 11.4875 69.0271 11.459 68.9918 11.459ZM54.1118 11.459H53.5198C53.4845 11.459 53.4559 11.4875 53.4559 11.5231V29.6349C53.4559 29.6704 53.4845 29.699 53.5198 29.699H54.1118C54.1471 29.699 54.1759 29.6704 54.1759 29.6349V11.5231C54.1759 11.4875 54.1471 11.459 54.1118 11.459ZM39.2318 11.459H38.6398C38.6045 11.459 38.5759 11.4875 38.5759 11.5231V29.6349C38.5759 29.6704 38.6045 29.699 38.6398 29.699H39.2318C39.2671 29.699 39.2959 29.6704 39.2959 29.6349V11.5231C39.2959 11.4875 39.2671 11.459 39.2318 11.459Z" fill="white"></path>
      <path d="M109.831 20.6042H106.397C106.274 20.6042 106.175 20.7021 106.175 20.8228V21.7204C106.175 21.8414 106.274 21.9391 106.397 21.9391H108.25C108.373 21.9391 108.472 22.0372 108.472 22.1579V24.6875C108.472 24.7487 108.446 24.8068 108.401 24.8483L108.239 24.9947C107.796 25.4013 107.148 25.6043 106.296 25.6043C105.392 25.6043 104.698 25.2715 104.214 24.6052C103.73 23.9392 103.488 22.9823 103.488 21.7351V19.2095C103.506 17.9339 103.724 17.0056 104.145 16.4246C104.565 15.8435 105.227 15.5529 106.132 15.5529C106.886 15.5529 107.449 15.7696 107.82 16.2035C108.159 16.5995 108.37 17.1364 108.452 17.8137C108.466 17.9248 108.559 18.0105 108.672 18.0105H109.813C109.943 18.0105 110.047 17.9008 110.036 17.7739C109.934 16.6696 109.567 15.8119 108.935 15.1999C108.258 14.5451 107.321 14.2178 106.123 14.2178C104.718 14.2178 103.663 14.65 102.957 15.5145C102.252 16.3792 101.899 17.6788 101.899 19.4138V21.8457C101.916 23.4671 102.312 24.7214 103.087 25.6087C103.861 26.4959 104.928 26.9395 106.287 26.9395C107.819 26.9395 108.982 26.4832 109.777 25.5703L110.005 25.2902C110.036 25.2513 110.053 25.2031 110.053 25.1534V20.8228C110.053 20.7021 109.954 20.6042 109.831 20.6042ZM94.9791 14.4597H93.859C93.7373 14.4597 93.6385 14.5583 93.6385 14.68V23.2149C93.6385 23.4458 93.3286 23.5214 93.2221 23.3164L88.6822 14.5785C88.6443 14.5055 88.5689 14.4597 88.4864 14.4597H87.2629C87.1409 14.4597 87.0423 14.5583 87.0423 14.68V26.7172C87.0423 26.8389 87.1409 26.9375 87.2629 26.9375H88.4C88.5217 26.9375 88.6205 26.8389 88.6205 26.7172V18.2241C88.6205 17.9935 88.9304 17.9179 89.0369 18.1226L93.5595 26.8187C93.5977 26.8917 93.673 26.9375 93.7553 26.9375H94.9791C95.101 26.9375 95.1997 26.8389 95.1997 26.7172V14.68C95.1997 14.5583 95.101 14.4597 94.9791 14.4597ZM76.7729 14.4597H75.5852C75.4568 14.4597 75.3529 14.5583 75.3529 14.68V26.7172C75.3529 26.8389 75.4568 26.9375 75.5852 26.9375H76.7729C76.9011 26.9375 77.005 26.8389 77.005 26.7172V14.68C77.005 14.5583 76.9011 14.4597 76.7729 14.4597ZM66.4213 14.4597H64.7801C64.6844 14.4597 64.5994 14.5216 64.5704 14.6131L61.5728 23.9843C61.5073 24.1888 61.2183 24.1888 61.1528 23.9843L58.1554 14.6131C58.1261 14.5216 58.0412 14.4597 57.9454 14.4597H56.3043C56.1824 14.4597 56.0837 14.5583 56.0837 14.68V26.7172C56.0837 26.8389 56.1824 26.9375 56.3043 26.9375H57.4316C57.5535 26.9375 57.6521 26.8389 57.6521 26.7172V22.0785L57.5343 18.1699C57.5295 18.0129 57.7505 17.9733 57.8005 18.1223L60.704 26.7871C60.734 26.8771 60.8182 26.9375 60.9128 26.9375H61.7957C61.8903 26.9375 61.9745 26.8771 62.0045 26.7873L64.9256 18.0859C64.9755 17.9368 65.1963 17.9762 65.1915 18.1334L65.0734 22.0785V26.7172C65.0734 26.8389 65.1721 26.9375 65.294 26.9375H66.4213C66.5429 26.9375 66.6416 26.8389 66.6416 26.7172V14.68C66.6416 14.5583 66.5429 14.4597 66.4213 14.4597ZM47.995 22.3269H45.1681C45.0195 22.3269 44.9129 22.1846 44.9557 22.0435L46.3654 17.3579C46.4285 17.1484 46.7269 17.1482 46.7902 17.3575L48.2072 22.043C48.2501 22.1843 48.1436 22.3269 47.995 22.3269ZM47.3081 14.6123C47.2784 14.5214 47.1932 14.4597 47.0969 14.4597H46.0664C45.9701 14.4597 45.8849 14.5214 45.8554 14.6126L41.9545 26.6495C41.9084 26.7919 42.0152 26.9375 42.1657 26.9375H43.3165C43.4149 26.9375 43.5013 26.8735 43.5291 26.7799L44.4094 23.83C44.4373 23.7364 44.5237 23.6723 44.6218 23.6723H48.5336C48.6313 23.6723 48.7177 23.7359 48.746 23.8291L49.6421 26.7808C49.6705 26.8739 49.7566 26.9375 49.8545 26.9375H51.0061C51.1565 26.9375 51.2633 26.7919 51.217 26.6493L47.3081 14.6123ZM35.431 20.6042H31.9969C31.8742 20.6042 31.7749 20.7021 31.7749 20.8228V21.7204C31.7749 21.8414 31.8742 21.9391 31.9969 21.9391H33.8504C33.973 21.9391 34.0724 22.0372 34.0724 22.1579V24.6875C34.0724 24.7485 34.0465 24.8068 34.0009 24.8483L33.8391 24.9947C33.3958 25.4013 32.7478 25.6043 31.8958 25.6043C30.9915 25.6043 30.2977 25.2715 29.8141 24.6052C29.3302 23.9392 29.0883 22.9823 29.0883 21.7351V19.2095C29.1058 17.9339 29.3245 17.0056 29.7449 16.4246C30.1652 15.8435 30.8273 15.5529 31.7314 15.5529C32.486 15.5529 33.0488 15.7696 33.4203 16.2035C33.7594 16.5995 33.9701 17.1364 34.0525 17.8137C34.0659 17.9248 34.1588 18.0105 34.2723 18.0105H35.413C35.5424 18.0105 35.6473 17.9008 35.6355 17.7739C35.5337 16.6696 35.1665 15.8119 34.5346 15.1999C33.8578 14.5451 32.9206 14.2178 31.723 14.2178C30.3178 14.2178 29.2625 14.65 28.5572 15.5145C27.8516 16.3792 27.499 17.6788 27.499 19.4138V21.8457C27.5163 23.4671 27.9121 24.7214 28.6868 25.6087C29.461 26.4959 30.5278 26.9395 31.8869 26.9395C33.4189 26.9395 34.5819 26.4832 35.3768 25.5703L35.6045 25.2899C35.636 25.2513 35.653 25.2031 35.653 25.1536V20.8228C35.653 20.7021 35.5537 20.6042 35.431 20.6042Z" fill="white"></path>
    </g>
  </g>
  <defs>
    <clipPath id="clip0_1_229">
      <rect width="120" height="40" fill="white"></rect>
    </clipPath>
  </defs>
</svg>
