<?xml version="1.0" encoding="UTF-8"?>
<svg xmlns="http://www.w3.org/2000/svg" width="110" height="40" viewBox="0 0 110 40" fill="none">
  <g clip-path="url(#clip0_1_240)">
    <g opacity="0.6">
      <path d="M73.7671 22.7708V17.9968C73.7671 17.0398 73.9101 16.2258 74.1961 15.5768C74.4821 14.9278 74.8671 14.3998 75.3621 14.0038C75.8351 13.6298 76.3741 13.3658 77.0121 13.1898C77.6391 13.0138 78.2881 12.9258 78.9591 12.9258C79.0031 12.9258 79.0691 12.9258 79.1461 12.9258C79.2231 12.9258 79.2781 12.9258 79.3331 12.9258V15.5548H78.4861C77.7711 15.5548 77.2431 15.7308 76.8911 16.0718C76.5501 16.4128 76.3741 16.9628 76.3741 17.6998V22.7708H73.7671Z" fill="white"></path>
      <path d="M80.0811 10.0439H81.4121C81.7531 10.0439 82.0501 10.1649 82.3031 10.4179C82.5451 10.6599 82.6771 10.9569 82.6771 11.3089V12.0899H80.0921L80.0811 10.0439ZM80.0811 12.9259H81.4121C81.7531 12.9259 82.0501 13.0469 82.3031 13.2999C82.5451 13.5419 82.6771 13.8389 82.6771 14.1909V22.7709H80.0921L80.0811 12.9259Z" fill="white"></path>
      <path d="M91.9279 22.7711H90.6299C90.2559 22.7711 89.9589 22.6501 89.7279 22.4191C89.4969 22.1881 89.3759 21.8801 89.3759 21.5171V16.4901C89.3759 15.8961 89.1999 15.4671 88.8369 15.1921C88.4739 14.9171 88.0779 14.7851 87.6379 14.7851C87.1979 14.7851 86.8019 14.9171 86.4499 15.1921C86.1089 15.4671 85.9329 15.8961 85.9329 16.4901V22.7711H83.3479V16.9961C83.3479 15.3241 83.7879 14.2021 84.6569 13.6301C85.5369 13.0581 86.5049 12.7501 87.5609 12.7061C88.6499 12.7061 89.6399 12.9921 90.5529 13.5531C91.4659 14.1251 91.9169 15.2691 91.9169 16.9961L91.9279 22.7711Z" fill="white"></path>
      <path d="M96.7021 22.7709C95.8881 22.8149 95.0081 22.8039 94.0621 22.7379C93.1161 22.6609 92.6431 22.0559 92.6431 20.9229V10.0439H93.9741C94.2931 10.0439 94.5791 10.1649 94.8211 10.4179C95.0631 10.6599 95.1951 10.9569 95.1951 11.3089V12.9699H96.7021V13.4869C96.7021 13.8609 96.5811 14.1579 96.3281 14.3889C96.0861 14.6199 95.7891 14.7409 95.4371 14.7409H95.1731V20.2189C95.1731 20.6369 95.4151 20.8459 95.9101 20.8459H96.6911V22.7709H96.7021Z" fill="white"></path>
      <path d="M66.551 25.1358C66.551 25.4768 66.43 25.7738 66.177 26.0268C65.935 26.2688 65.638 26.4008 65.286 26.4008H64.032V17.1938C64.032 15.4668 64.538 14.2898 65.55 13.6628C66.562 13.0358 67.662 12.7168 68.839 12.7168C69.455 12.7168 70.082 12.8378 70.709 13.0688C71.336 13.2998 71.842 13.6408 72.205 14.0808C72.942 15.0378 73.316 16.2808 73.316 17.7768C73.316 19.3278 72.942 20.5928 72.205 21.5498C71.468 22.4848 70.511 22.9578 69.356 22.9578C68.74 22.9578 68.201 22.8478 67.728 22.6278C67.233 22.3858 66.837 22.0008 66.54 21.4838L66.551 25.1358ZM70.775 17.8868C70.775 16.9298 70.588 16.1818 70.225 15.6648C69.851 15.1478 69.323 14.8838 68.63 14.8838C67.959 14.8838 67.442 15.1478 67.079 15.6648C66.738 16.1378 66.562 16.8748 66.562 17.8868C66.562 18.8218 66.749 19.5258 67.112 19.9988C67.486 20.5158 68.014 20.7798 68.707 20.7798C69.345 20.7798 69.851 20.5158 70.225 19.9988C70.588 19.4818 70.775 18.7778 70.775 17.8868Z" fill="white"></path>
      <path d="M37.764 12.706C37.126 12.706 36.576 12.827 36.136 13.08C35.619 13.377 35.223 13.762 34.948 14.224V11.265C34.948 10.924 34.827 10.627 34.574 10.374C34.332 10.132 34.035 10 33.683 10H32.429V18.47C32.429 20.219 32.935 21.407 33.947 22.023C34.959 22.639 36.059 22.947 37.236 22.947C37.852 22.947 38.479 22.837 39.106 22.628C39.733 22.419 40.239 22.078 40.602 21.616C41.339 20.659 41.713 19.405 41.713 17.876C41.713 16.347 41.339 15.104 40.602 14.136C39.876 13.19 38.93 12.706 37.764 12.706ZM38.622 20.032C38.248 20.549 37.72 20.813 37.027 20.813C36.356 20.813 35.839 20.549 35.476 20.032C35.135 19.559 34.959 18.811 34.959 17.777C34.959 16.886 35.146 16.182 35.509 15.665C35.883 15.17 36.411 14.928 37.104 14.928C37.742 14.928 38.248 15.192 38.622 15.709C38.996 16.204 39.172 16.897 39.172 17.777C39.172 18.767 38.985 19.515 38.622 20.032Z" fill="white"></path>
      <path d="M43.6159 10.0439H42.2849V22.7709H44.8699V11.2649C44.8699 10.9239 44.7489 10.6269 44.4959 10.3959C44.2539 10.1649 43.9569 10.0439 43.6159 10.0439Z" fill="white"></path>
      <path d="M51.8881 13.2998C51.6571 13.5418 51.5361 13.8388 51.5361 14.1908V19.2178C51.5361 19.8118 51.3601 20.2408 50.9971 20.5158C50.6341 20.7908 50.2381 20.9228 49.7981 20.9228C49.3581 20.9228 48.9621 20.7908 48.6101 20.5158C48.2691 20.2408 48.0931 19.8118 48.0931 19.2178V12.9258H45.5081V18.7008C45.5081 20.4058 45.9481 21.5278 46.8171 22.0668C47.6971 22.6058 48.6651 22.9028 49.7211 22.9578C50.8101 22.9578 51.8001 22.6828 52.7131 22.1438C53.6261 21.6048 54.0771 20.4608 54.0771 18.7008V12.9258H52.7791C52.4161 12.9258 52.1191 13.0578 51.8881 13.2998Z" fill="white"></path>
      <path d="M62.448 14.0371C61.634 13.1461 60.49 12.7061 59.005 12.7061C57.597 12.7061 56.497 13.1571 55.716 14.0701C54.957 14.9611 54.572 16.1931 54.572 17.7661C54.572 19.4161 54.968 20.6921 55.76 21.5721C56.552 22.4851 57.641 22.9361 59.049 22.9361C60.204 22.9361 61.172 22.6501 61.931 22.0891C62.69 21.5501 63.218 20.7581 63.482 19.7241H61.634C61.337 19.7241 61.106 19.7901 60.952 19.9111C60.787 20.0321 60.501 20.4171 60.27 20.5381C59.973 20.7031 59.621 20.8021 59.192 20.8021C58.554 20.8021 58.07 20.6041 57.751 20.2081C57.41 19.8341 57.223 19.2731 57.201 18.5031H63.592C63.614 18.4591 63.625 18.3711 63.625 18.2391C63.625 18.2171 63.625 18.1621 63.625 18.0961C63.625 18.0191 63.625 17.9311 63.625 17.8321C63.636 16.2261 63.24 14.9501 62.448 14.0371ZM57.201 16.8531C57.223 16.2151 57.41 15.7201 57.751 15.3681C58.092 15.0271 58.543 14.8511 59.082 14.8511C59.676 14.8511 60.127 15.0271 60.446 15.3681C60.743 15.6871 60.919 16.1821 60.963 16.8531H57.201Z" fill="white"></path>
      <path d="M73.4041 27.9958C73.4041 28.0178 73.4041 28.0508 73.4041 28.0838C73.4041 28.1278 73.4041 28.1608 73.4041 28.1718C73.4041 28.4138 73.3821 28.6338 73.3381 28.8318C73.2941 29.0408 73.2281 29.2278 73.1401 29.4148C72.8761 29.9318 72.5241 30.3388 72.0731 30.6248C71.6221 30.9108 71.1161 31.0538 70.5441 31.0538C70.1261 31.0538 69.7411 30.9768 69.3781 30.8118C69.0261 30.6468 68.7071 30.4158 68.4211 30.0968C68.1901 29.8328 68.0031 29.5358 67.8821 29.1948C67.7611 28.8648 67.6951 28.5018 67.6951 28.1278C67.6951 27.7428 67.7721 27.3798 67.9151 27.0278C68.0691 26.6758 68.2891 26.3678 68.5751 26.0818C68.8501 25.8068 69.1581 25.6088 69.4881 25.4768C69.8291 25.3448 70.2031 25.2788 70.6101 25.2788C71.2041 25.2788 71.7211 25.4218 72.1611 25.7188C72.6011 26.0158 72.9311 26.4338 73.1621 26.9948H71.8421C71.6771 26.7968 71.4901 26.6428 71.2811 26.5438C71.0611 26.4448 70.8191 26.3898 70.5551 26.3898C70.0821 26.3898 69.6751 26.5658 69.3451 26.9068C69.0151 27.2478 68.8501 27.6658 68.8501 28.1608C68.8501 28.6558 69.0151 29.0738 69.3561 29.4258C69.6861 29.7668 70.1041 29.9428 70.5881 29.9428C70.9291 29.9428 71.2371 29.8548 71.5121 29.6678C71.7871 29.4808 71.9961 29.2388 72.1281 28.9308H69.9501V27.9958H73.4041Z" fill="white"></path>
      <path d="M74.4931 29.7777L74.0641 30.9437H72.9421L75.0981 25.3887H76.0331L78.1561 30.9437H76.9901L76.5501 29.7777H74.4931ZM76.1981 28.7547L75.5381 26.9617L74.8671 28.7547H76.1981Z" fill="white"></path>
      <path d="M79.5201 30.9437H78.4421V25.3887H79.8831L81.2911 29.4257L82.6991 25.3887H84.1401V30.9437H83.0731L83.1061 26.9177L81.6981 30.9437H80.8841L79.4761 26.9177L79.5201 30.9437Z" fill="white"></path>
      <path d="M84.679 30.9437V25.3887H85.768V30.9437H84.679Z" fill="white"></path>
      <path d="M87.3741 30.9437H86.3071V25.3887H87.3411L89.6401 28.9307V25.3887H90.7071V30.9437H89.7061L87.3961 27.2917V30.9437H87.3741Z" fill="white"></path>
      <path d="M96.6912 27.9958C96.6912 28.0178 96.6912 28.0508 96.6912 28.0838C96.6912 28.1278 96.6912 28.1608 96.6912 28.1718C96.6912 28.4138 96.6692 28.6338 96.6252 28.8318C96.5812 29.0408 96.5152 29.2278 96.4272 29.4148C96.1632 29.9318 95.8112 30.3388 95.3602 30.6248C94.9092 30.9108 94.4032 31.0538 93.8312 31.0538C93.4132 31.0538 93.0282 30.9768 92.6652 30.8118C92.3132 30.6468 91.9942 30.4158 91.7082 30.0968C91.4662 29.8328 91.2902 29.5358 91.1692 29.1948C91.0482 28.8648 90.9822 28.5018 90.9822 28.1278C90.9822 27.7428 91.0592 27.3798 91.2022 27.0278C91.3562 26.6758 91.5762 26.3678 91.8622 26.0818C92.1372 25.8068 92.4452 25.6088 92.7752 25.4768C93.1162 25.3448 93.4902 25.2788 93.8972 25.2788C94.4912 25.2788 95.0082 25.4218 95.4482 25.7188C95.8882 26.0158 96.2182 26.4338 96.4602 26.9948H95.1402C94.9752 26.7968 94.7882 26.6428 94.5792 26.5438C94.3592 26.4448 94.1172 26.3898 93.8532 26.3898C93.3802 26.3898 92.9732 26.5658 92.6432 26.9068C92.3132 27.2478 92.1482 27.6658 92.1482 28.1608C92.1482 28.6558 92.3132 29.0738 92.6542 29.4258C92.9842 29.7668 93.4022 29.9428 93.8862 29.9428C94.2272 29.9428 94.5352 29.8548 94.8102 29.6678C95.0852 29.4808 95.2942 29.2388 95.4262 28.9308H93.2482V27.9958H96.6912Z" fill="white"></path>
      <path d="M97.4609 25.4878H97.2849V23.9148H96.9329V23.7388H97.8019V23.9148H97.4499L97.4609 25.4878Z" fill="white"></path>
      <path d="M97.9998 25.4878V23.7388H98.2528L98.8578 25.2568L99.4628 23.7388H99.7158V25.4878H99.5508V23.9478L98.9348 25.4878H98.7808L98.1648 23.9478V25.4878H97.9998Z" fill="white"></path>
      <path d="M30.68 18.6132L25.818 18.3272L28.799 14.4332L24.157 16.4902L25.202 12.2772L22.551 14.6862L22.287 10.6602L19.867 14.9942L17.414 11.3532L17.788 15.9182L13.751 12.9482L15.555 17.1392L11.771 16.3252L15.214 19.6362L10.396 20.5822L14.554 22.0232L11.067 24.1022L15.753 23.5302L12.805 27.3472L17.26 25.2132L16.468 30.1632L19.174 26.8742L20.296 30.2512L21.484 26.8632L24.322 30.4162L23.871 25.1582L27.886 27.7542L26.06 23.1892L30.141 23.1122L26.214 21.4512L30.68 18.6132ZM20.659 26.1152C17.678 26.1152 15.258 23.6952 15.258 20.7142C15.258 17.7332 17.678 15.3132 20.659 15.3132C23.64 15.3132 26.06 17.7332 26.06 20.7142C26.06 23.6952 23.64 26.1152 20.659 26.1152Z" fill="white"></path>
      <path d="M24.421 22.3203C23.97 21.8913 23.849 21.3523 23.849 21.3523C23.827 21.2643 23.772 21.2863 23.772 21.2863C23.717 21.2973 23.739 21.3633 23.739 21.3633C23.838 21.7593 23.893 21.8583 23.893 21.8583C20.406 22.5953 17.271 21.7813 17.271 21.7813C17.414 21.5503 17.513 21.3083 17.513 21.3083C17.535 21.2313 17.491 21.2203 17.491 21.2203C17.436 21.1983 17.414 21.2643 17.414 21.2643C17.084 21.8913 16.622 22.1223 16.622 22.1223C16.622 22.1223 16.534 22.1773 16.567 22.2213C16.567 22.2213 16.589 22.2543 16.699 22.2213C16.919 22.1113 17.139 21.9243 17.139 21.9243C17.491 22.5733 18.063 23.1893 18.063 23.1893C18.69 23.8823 19.372 24.1353 19.372 24.1353C19.823 24.3663 20.428 24.3773 20.428 24.3773C22.859 24.4983 23.959 22.0343 23.959 22.0343C24.069 22.2213 24.344 22.4083 24.344 22.4083C24.476 22.4523 24.421 22.3203 24.421 22.3203ZM20.516 24.2013C18.492 24.1793 17.37 21.9793 17.37 21.9793L17.524 22.0123C19.306 22.4193 20.758 22.3643 20.945 22.3533C20.505 22.3643 22.21 22.3643 23.563 22.0893L23.739 22.0563C23.75 22.0453 22.672 24.2233 20.516 24.2013Z" fill="white"></path>
      <path d="M19.7679 20.67C19.8119 20.67 20.5049 20.681 20.5049 20.681C20.7029 20.648 20.6149 20.89 20.6149 20.89C20.5489 20.978 20.6259 21 20.6259 21C20.7359 21 20.7799 20.769 20.7799 20.769C20.8129 20.516 20.6039 20.56 20.6039 20.56L19.8339 20.538C19.0859 20.472 19.1299 19.724 19.1299 19.724C19.1299 19.229 19.6029 18.8 19.6029 18.8C19.9769 18.459 20.6479 18.261 20.6479 18.261C20.7359 18.217 20.7139 18.195 20.7139 18.195C20.6919 18.129 20.3289 18.25 20.3289 18.25C20.3289 18.25 19.0529 18.613 18.9759 19.691C18.9539 19.702 18.8879 20.582 19.7679 20.67Z" fill="white"></path>
      <path d="M16.446 18.998C16.446 18.998 16.886 18.118 17.623 18.305C18.36 18.492 18.36 19.394 18.36 19.394C18.36 19.394 18.492 18.338 17.667 18.118C16.732 17.887 16.446 18.998 16.446 18.998Z" fill="white"></path>
      <path d="M23.2109 18.415C24.2779 18.503 24.2779 19.68 24.2779 19.68C24.2779 19.68 24.1129 18.646 23.2109 18.569C22.5839 18.514 22.2429 19.284 22.2429 19.284C22.2429 19.284 22.4409 18.349 23.2109 18.415Z" fill="white"></path>
      <path d="M17.3589 18.9871C16.8419 18.9871 16.5889 20.5491 17.2049 20.6041C17.8099 20.6701 18.0079 18.9321 17.3589 18.9871Z" fill="white"></path>
      <path d="M17.2158 19.2183C17.2158 19.2183 17.0728 19.2953 17.0398 19.5373C17.0068 19.7793 17.0068 19.8343 17.0068 19.8343C17.0068 19.8343 17.0618 19.8783 17.1278 19.8563C17.1938 19.8453 17.2598 19.7793 17.2598 19.7793C17.2598 19.7793 17.2378 19.7133 17.2708 19.5153C17.3148 19.3283 17.3588 19.2183 17.3588 19.2183C17.3588 19.2183 17.3258 19.2073 17.2928 19.1963C17.2598 19.2073 17.2158 19.2183 17.2158 19.2183Z" fill="white"></path>
      <path d="M23.585 19.834C23.574 19.625 23.519 19.405 23.409 19.317C23.409 19.317 23.343 19.262 23.31 19.251C23.277 19.24 23.211 19.229 23.211 19.229C22.672 19.196 22.43 20.89 22.969 20.945C23.343 20.989 23.618 20.329 23.585 19.834Z" fill="white"></path>
      <path d="M23.0679 19.438C23.0679 19.438 22.9249 19.515 22.8919 19.757C22.8589 19.999 22.8589 20.054 22.8589 20.054C22.8589 20.054 22.9139 20.098 22.9799 20.076C23.0459 20.065 23.1119 19.999 23.1119 19.999C23.1119 19.999 23.0899 19.933 23.1229 19.735C23.1669 19.548 23.2109 19.438 23.2109 19.438C23.2109 19.438 23.1779 19.427 23.1449 19.416C23.1119 19.427 23.0679 19.438 23.0679 19.438Z" fill="white"></path>
    </g>
  </g>
  <defs>
    <clipPath id="clip0_1_240">
      <rect width="110" height="40" fill="white"></rect>
    </clipPath>
  </defs>
</svg>
