<?xml version="1.0" encoding="UTF-8"?>
<svg xmlns="http://www.w3.org/2000/svg" width="84" height="40" viewBox="0 0 84 40" fill="none">
  <g clip-path="url(#clip0_1_378)">
    <g opacity="0.6">
      <path d="M24.8478 25.2954H28.2054V29.265C27.7203 29.6155 27.2067 29.8761 26.6597 30.0324C26.1128 30.1935 25.5421 30.2692 24.9477 30.2692C24.1724 30.2692 23.4638 30.1461 22.8265 29.9045C22.1893 29.6629 21.6424 29.3266 21.1906 28.9003C20.7387 28.4739 20.3868 27.9671 20.1395 27.3797C19.8922 26.7923 19.7686 26.1528 19.7686 25.4659C19.7686 24.7648 19.8874 24.1206 20.1205 23.5332C20.3535 22.9458 20.6864 22.439 21.1192 22.0126C21.552 21.5863 22.0799 21.2547 22.6934 21.0179C23.3069 20.781 23.9965 20.6626 24.7574 20.6626C25.1521 20.6626 25.5183 20.6958 25.8655 20.7573C26.2127 20.8237 26.5313 20.9089 26.8215 21.0226C27.1115 21.1363 27.3779 21.2689 27.6204 21.4205C27.863 21.5769 28.077 21.7426 28.2672 21.9226L27.6347 22.8843C27.5348 23.0358 27.4064 23.1258 27.2495 23.1637C27.0925 23.1969 26.9213 23.159 26.7406 23.0453C26.5694 22.9411 26.4029 22.8511 26.2508 22.7753C26.0985 22.6995 25.9416 22.6379 25.7799 22.5906C25.6182 22.5432 25.4518 22.51 25.2758 22.4864C25.0998 22.4627 24.9001 22.4532 24.6813 22.4532C24.2723 22.4532 23.9014 22.5242 23.5732 22.6711C23.2451 22.8132 22.9645 23.0169 22.7362 23.2822C22.5032 23.5427 22.3272 23.8601 22.2035 24.2295C22.0799 24.5991 22.0181 25.0064 22.0181 25.4565C22.0181 25.9538 22.0894 26.3991 22.2273 26.7875C22.3652 27.176 22.5602 27.5028 22.8123 27.7681C23.0643 28.0334 23.3687 28.2371 23.7206 28.3792C24.0726 28.5165 24.4626 28.5876 24.8906 28.5876C25.1521 28.5876 25.3947 28.5639 25.6087 28.5118C25.8227 28.4597 26.032 28.3934 26.2317 28.3034V26.8776H25.2996C25.1616 26.8776 25.0523 26.8397 24.9762 26.7686C24.9001 26.6975 24.8573 26.6028 24.8573 26.4891V25.2954H24.8478Z" fill="white"></path>
      <path d="M37.9974 30.1648H36.2997C36.1092 30.1648 35.9573 30.1222 35.8382 30.0322C35.7194 29.9422 35.6337 29.8332 35.5721 29.6911L35.0156 28.0521H31.4249L30.8733 29.6959C30.8257 29.8143 30.7401 29.9232 30.6164 30.0227C30.4928 30.1175 30.3406 30.1695 30.1599 30.1695H28.4478L32.1003 20.7666H34.3449L37.9974 30.1648ZM34.5209 26.5742L33.6458 24.002C33.5792 23.8409 33.5126 23.6467 33.4366 23.424C33.3653 23.2014 33.2894 22.9646 33.2177 22.704C33.1511 22.9646 33.0849 23.2109 33.0086 23.4336C32.9373 23.6562 32.866 23.8504 32.7994 24.0162L31.9386 26.5742H34.5209Z" fill="white"></path>
      <path d="M49.3545 20.7666V30.1695H47.4238V24.7599C47.4238 24.6367 47.4285 24.4994 47.4331 24.3525C47.4378 24.2057 47.4522 24.0588 47.4666 23.9072L44.9603 28.739C44.884 28.8906 44.7796 29.0043 44.6464 29.08C44.5132 29.1558 44.3656 29.1985 44.1946 29.1985H43.8947C43.7284 29.1985 43.5761 29.1606 43.4429 29.08C43.3097 29.0043 43.2053 28.8906 43.129 28.739L40.6227 23.893C40.6371 24.0493 40.6468 24.2009 40.6561 24.3478C40.6655 24.4946 40.6705 24.632 40.6705 24.7551V30.1601H38.7395V20.7666H40.4088C40.5039 20.7666 40.5849 20.7666 40.6561 20.7714C40.7274 20.7761 40.7893 20.7903 40.8462 20.8092C40.9035 20.8282 40.951 20.8661 40.9985 20.9087C41.046 20.9561 41.0889 21.0177 41.1317 21.0982L43.5714 25.8683C43.6571 26.0342 43.7428 26.1999 43.8187 26.3799C43.8997 26.5552 43.9757 26.7352 44.047 26.92C44.1183 26.7305 44.1993 26.5458 44.2752 26.3658C44.3562 26.1858 44.4419 26.0152 44.5323 25.8494L46.9529 21.0982C46.9957 21.0177 47.0386 20.9514 47.0861 20.9087C47.1336 20.8614 47.1811 20.8282 47.238 20.8092C47.2953 20.7855 47.3572 20.7761 47.4285 20.7714C47.4997 20.7666 47.5807 20.7666 47.6758 20.7666H49.3545Z" fill="white"></path>
      <path d="M53.3824 22.4435V24.6367H56.3503V26.2521H53.3824V28.4927H57.2585V30.1695H51.1807V20.7666H57.2585V22.4435H53.3824Z" fill="white"></path>
      <path d="M63.8219 22.6757C63.7553 22.7799 63.6887 22.8557 63.6174 22.9078C63.5462 22.9599 63.4558 22.9836 63.3417 22.9836C63.2416 22.9836 63.1372 22.9504 63.0231 22.8888C62.909 22.8273 62.7804 22.7562 62.6328 22.6804C62.4903 22.6046 62.324 22.5336 62.1382 22.472C61.9528 22.4104 61.739 22.3772 61.501 22.3772C61.092 22.3772 60.7828 22.4625 60.5834 22.6378C60.3836 22.813 60.2835 23.0452 60.2835 23.3436C60.2835 23.5331 60.3454 23.6894 60.4642 23.8125C60.5834 23.9357 60.745 24.0447 60.9398 24.1347C61.1349 24.2247 61.3631 24.31 61.6151 24.381C61.8671 24.4568 62.1242 24.542 62.3906 24.632C62.6519 24.7268 62.9136 24.831 63.1656 24.9589C63.4176 25.0821 63.6412 25.2431 63.841 25.4373C64.0361 25.6315 64.1978 25.8684 64.3166 26.1431C64.4354 26.4226 64.4973 26.7542 64.4973 27.1474C64.4973 27.5832 64.4213 27.9906 64.269 28.3648C64.1168 28.7438 63.8979 29.0753 63.6128 29.3548C63.3273 29.6343 62.9705 29.857 62.5522 30.018C62.1288 30.1791 61.6533 30.2596 61.1158 30.2596C60.821 30.2596 60.5214 30.2312 60.2169 30.1696C59.9127 30.108 59.6178 30.0228 59.3324 29.9138C59.0472 29.8048 58.7808 29.6722 58.5288 29.5254C58.2765 29.3738 58.058 29.208 57.8726 29.0233L58.5191 28.0048C58.5713 27.9337 58.6379 27.8722 58.7236 27.8201C58.8093 27.7727 58.8996 27.7443 58.9994 27.7443C59.1279 27.7443 59.2611 27.7869 59.3896 27.8674C59.5228 27.948 59.67 28.038 59.8367 28.1374C60.003 28.2369 60.1931 28.3269 60.412 28.4074C60.6258 28.488 60.8829 28.5306 61.1777 28.5306C61.5773 28.5306 61.8815 28.4453 62.1051 28.2701C62.324 28.0948 62.4334 27.8201 62.4334 27.4411C62.4334 27.2232 62.3715 27.0432 62.2527 26.9058C62.1335 26.7684 61.9719 26.6547 61.7768 26.5647C61.582 26.4747 61.3584 26.3942 61.1064 26.3279C60.8544 26.2568 60.5974 26.1811 60.336 26.1005C60.0743 26.0153 59.8176 25.9158 59.5656 25.7926C59.3133 25.6695 59.0897 25.5084 58.895 25.3095C58.6998 25.1105 58.5382 24.8594 58.4194 24.561C58.3002 24.2626 58.2387 23.8931 58.2387 23.4525C58.2387 23.102 58.31 22.7562 58.4525 22.4199C58.5954 22.0835 58.8046 21.7851 59.0804 21.5246C59.3561 21.264 59.6938 21.0509 60.0981 20.8946C60.4977 20.7382 60.9588 20.6577 61.4772 20.6577C61.7674 20.6577 62.0478 20.6814 62.324 20.724C62.5997 20.7667 62.8564 20.8377 63.1037 20.923C63.351 21.013 63.5793 21.1172 63.7935 21.2403C64.0073 21.3635 64.1978 21.5009 64.3688 21.6572L63.8219 22.6757Z" fill="white"></path>
      <path d="M13.4718 9.09961C14.1233 9.09961 14.6797 9.16117 15.1363 9.27961C15.5929 9.39801 15.9686 9.56855 16.2587 9.79121C16.5488 10.0138 16.758 10.2791 16.8912 10.5917C17.0244 10.9044 17.091 11.2549 17.091 11.6434C17.091 11.8565 17.0624 12.0555 17.0006 12.2544C16.9387 12.4487 16.8436 12.6334 16.7152 12.8039C16.5868 12.9745 16.4204 13.1308 16.2159 13.2729C16.0114 13.415 15.7688 13.5382 15.4835 13.6424C16.1065 13.794 16.5631 14.0356 16.8627 14.3719C17.1623 14.7082 17.3097 15.144 17.3097 15.6746C17.3097 16.0725 17.2336 16.4467 17.0767 16.7925C16.9197 17.1383 16.6915 17.4367 16.3918 17.6925C16.0922 17.9483 15.7213 18.1473 15.279 18.2941C14.8367 18.4362 14.3373 18.512 13.7714 18.512H10V9.09961H13.4718ZM12.1877 10.7339V13.055H13.3291C13.5716 13.055 13.7904 13.0361 13.9854 13.0029C14.1804 12.9697 14.3468 12.9082 14.48 12.8229C14.6179 12.7376 14.7178 12.6192 14.7891 12.4676C14.8605 12.316 14.8938 12.1266 14.8938 11.8991C14.8938 11.6765 14.8652 11.4918 14.8082 11.3402C14.7511 11.1934 14.6655 11.0702 14.5513 10.9802C14.4324 10.8902 14.285 10.8239 14.109 10.786C13.9283 10.7481 13.7191 10.7291 13.4718 10.7291H12.1877V10.7339ZM13.7286 16.8588C14.0187 16.8588 14.2565 16.8209 14.4372 16.7499C14.6227 16.6788 14.7654 16.5841 14.87 16.4656C14.9746 16.3472 15.0459 16.2193 15.084 16.0725C15.122 15.9256 15.1411 15.7788 15.1411 15.6272C15.1411 15.4567 15.1173 15.3003 15.0745 15.163C15.0269 15.0256 14.9508 14.9072 14.8414 14.8124C14.7321 14.7177 14.5846 14.6466 14.4039 14.5945C14.2232 14.5424 13.9949 14.5187 13.7191 14.5187H12.1877V16.8588H13.7286Z" fill="white"></path>
      <path d="M50.3862 9.09961V18.5026H48.4555V13.0976C48.4555 12.9745 48.4602 12.8371 48.4649 12.6902C48.4699 12.5434 48.484 12.3966 48.4984 12.245L45.992 17.0767C45.9157 17.2283 45.8113 17.342 45.6781 17.4178C45.5449 17.4936 45.3973 17.5362 45.2263 17.5362H44.9268C44.7601 17.5362 44.6078 17.4983 44.475 17.4178C44.3418 17.342 44.237 17.2283 44.1611 17.0767L41.6548 12.2307C41.6688 12.3871 41.6785 12.5387 41.6879 12.6855C41.6976 12.8323 41.7023 12.9697 41.7023 13.0929V18.4978H39.7712V9.09961H41.4406C41.5356 9.09961 41.6166 9.09961 41.6879 9.10433C41.7592 9.10908 41.8211 9.1233 41.8783 9.14223C41.9352 9.16592 41.9827 9.19908 42.0302 9.2417C42.0778 9.28908 42.1206 9.35067 42.1634 9.43121L44.5938 14.2013C44.6795 14.3672 44.7648 14.5329 44.8411 14.7129C44.9218 14.8882 44.9981 15.0682 45.0694 15.253C45.1406 15.0635 45.2216 14.8788 45.2976 14.6987C45.3786 14.5187 45.4639 14.3482 45.5543 14.1824L47.9753 9.43121C48.0181 9.35067 48.0606 9.28433 48.1085 9.2417C48.156 9.19433 48.2035 9.16117 48.2604 9.14223C48.3176 9.11855 48.3796 9.10908 48.4508 9.10433C48.5221 9.09961 48.6028 9.09961 48.6982 9.09961H50.3862Z" fill="white"></path>
      <path d="M54.4193 18.5026H52.2175V9.09961H54.4193V18.5026Z" fill="white"></path>
      <path d="M64.4828 9.09961V18.5026H63.3413C63.175 18.5026 63.0324 18.4741 62.9183 18.422C62.8042 18.3699 62.6897 18.2752 62.5756 18.1426L58.1242 12.5339C58.1432 12.6997 58.1526 12.8655 58.1576 13.0218C58.1623 13.1782 58.167 13.325 58.167 13.4624V18.5026H56.2363V9.09961H57.3872C57.4823 9.09961 57.5629 9.10433 57.6248 9.11379C57.6914 9.1233 57.7487 9.13748 57.8009 9.16117C57.8531 9.18486 57.9006 9.21801 57.9481 9.26067C57.996 9.3033 58.0482 9.36014 58.1101 9.43592L62.5993 15.0824C62.5756 14.9024 62.5615 14.7272 62.5518 14.5566C62.5424 14.3861 62.5378 14.225 62.5378 14.0782V9.10433H64.4828V9.09961Z" fill="white"></path>
      <path d="M70.8461 13.6328H74.2038V17.6024C73.7185 17.9529 73.2052 18.2135 72.658 18.3698C72.1111 18.5309 71.5405 18.6066 70.9462 18.6066C70.1707 18.6066 69.4622 18.4835 68.825 18.2419C68.1875 18.0003 67.6406 17.664 67.1888 17.2377C66.737 16.8113 66.3853 16.3045 66.138 15.7171C65.8907 15.1297 65.7668 14.4902 65.7668 13.8033C65.7668 13.1022 65.8856 12.458 66.1189 11.8706C66.3518 11.2832 66.6848 10.7764 67.1176 10.35C67.5503 9.92372 68.0784 9.59213 68.6918 9.35528C69.3053 9.11844 69.9947 9 70.7557 9C71.1506 9 71.5168 9.03316 71.8638 9.09475C72.2112 9.16106 72.5298 9.24631 72.82 9.36C73.1098 9.47369 73.3762 9.60635 73.6188 9.75791C73.8614 9.91426 74.0753 10.08 74.2657 10.26L73.6332 11.2264C73.5331 11.378 73.405 11.468 73.248 11.5059C73.091 11.539 72.9197 11.5011 72.739 11.3874C72.5676 11.2832 72.4013 11.1932 72.249 11.1174C72.0971 11.0416 71.9401 10.9801 71.7781 10.9327C71.6165 10.8853 71.4502 10.8522 71.2741 10.8285C71.0981 10.8048 70.8983 10.7953 70.6798 10.7953C70.2708 10.7953 69.8996 10.8664 69.5717 11.0132C69.2434 11.1553 68.9629 11.359 68.7347 11.6243C68.5014 11.8848 68.3257 12.2022 68.2019 12.5717C68.0784 12.9412 68.0165 13.3486 68.0165 13.7986C68.0165 14.296 68.0878 14.7412 68.2256 15.1297C68.3635 15.5181 68.5586 15.845 68.8106 16.1103C69.0626 16.3755 69.3672 16.5792 69.7189 16.7213C70.071 16.8587 70.4609 16.9298 70.8889 16.9298C71.1506 16.9298 71.3929 16.9061 71.6071 16.8539C71.821 16.8018 72.0305 16.7355 72.2299 16.6455V15.2197H71.2979C71.16 15.2197 71.0506 15.1818 70.9746 15.1107C70.8983 15.0397 70.8558 14.9449 70.8558 14.8312V13.6328H70.8461Z" fill="white"></path>
      <path d="M36.5704 14.2676C36.3044 15.7029 35.0487 16.7403 33.5839 16.7403C33.5601 16.7403 33.5363 16.7403 33.5173 16.7403C33.3034 16.7356 33.0748 16.7403 32.5042 16.4987C31.9383 16.2571 31.8148 16.115 31.4008 15.7929C31.1631 15.6081 30.8207 15.2529 30.4831 14.9544C30.1501 15.3145 29.394 16.1481 29.3274 16.2145C29.6175 16.5271 30.3261 17.1429 30.6115 17.3608L30.5687 17.3229C31.1964 17.844 31.9621 18.2087 32.8037 18.3461C33.0655 18.3887 33.2937 18.4077 33.5126 18.4077C33.7502 18.4077 33.9453 18.3983 34.1545 18.3746C36.0333 18.1472 37.6072 16.8161 38.1209 14.9923L36.5704 14.2676Z" fill="white"></path>
      <path d="M31.2919 11.7285C31.8484 11.0889 32.6663 10.6863 33.5793 10.6863C34.2928 10.6863 34.9631 10.9326 35.4959 11.3637L34.7731 11.88L38.107 13.4053L37.7647 9.76732L36.9035 10.3737C36.0334 9.50678 34.849 9.01416 33.584 9.01416C32.1242 9.01416 30.821 9.67732 29.9554 10.7195C29.9554 10.7195 29.9554 10.7195 29.9554 10.7242C29.9221 10.7668 27.3112 13.9454 26.2364 14.997C26.1793 15.0538 26.1175 15.1059 26.0557 15.158C26.0461 15.1675 26.0319 15.177 26.0224 15.1865C25.9463 15.2528 25.8701 15.3191 25.7941 15.3807C25.7798 15.3949 25.7608 15.4091 25.7465 15.4186C25.6752 15.4754 25.6038 15.5322 25.5373 15.5844C25.5182 15.5986 25.4992 15.6128 25.4849 15.627C25.4374 15.6649 25.3898 15.6981 25.347 15.7312C25.328 15.7454 25.309 15.7596 25.2947 15.7738C25.2757 15.7881 25.2567 15.8023 25.2376 15.8118C25.1758 15.8544 25.114 15.897 25.0569 15.9396C25.0379 15.9538 25.0236 15.9633 25.0046 15.9728C24.9475 16.0107 24.8905 16.0486 24.8334 16.0865C24.8191 16.096 24.8049 16.1054 24.7858 16.1149C24.7335 16.1481 24.686 16.1765 24.6384 16.2049C24.6194 16.2144 24.6004 16.2286 24.5813 16.2381C24.5338 16.2665 24.491 16.2902 24.4482 16.3139C24.1343 16.4844 23.8727 16.5933 23.654 16.6597C23.4352 16.726 23.264 16.7591 22.9168 16.7591C21.2332 16.6786 19.9016 15.2291 20.03 13.5096C20.1394 12.0221 21.3617 10.8189 22.855 10.7195C23.8109 10.6579 24.6527 11.0653 25.2804 11.6763C25.3851 11.7758 26.2364 12.69 26.4171 12.9127C26.7405 12.5669 27.5157 11.6574 27.5442 11.6242C27.392 11.4253 26.75 10.7526 26.7072 10.7053C25.7941 9.68678 24.4767 9.02363 22.9976 9.04256C20.5389 9.07572 18.4844 11.0321 18.3512 13.4764C18.2085 16.0818 20.206 18.2608 22.7456 18.4313C22.836 18.436 23.2402 18.4503 23.4542 18.4266C23.673 18.4029 23.868 18.3555 24.0344 18.3176C24.3007 18.256 24.5718 18.1139 24.5766 18.1139C24.5909 18.1092 24.6051 18.0997 24.6194 18.095C24.6717 18.0713 24.7288 18.0476 24.7858 18.0192C24.8096 18.0097 24.8381 17.9955 24.8619 17.9813C24.919 17.9529 24.9808 17.9244 25.0427 17.8913C25.0664 17.8818 25.0855 17.8676 25.1092 17.8581C25.2757 17.7681 25.4564 17.6686 25.6371 17.5549C25.6609 17.5408 25.6894 17.5218 25.7132 17.5076C25.7798 17.4649 25.8464 17.4223 25.9177 17.3749C25.9463 17.356 25.9796 17.3323 26.0129 17.3134C26.0794 17.266 26.1508 17.2186 26.2221 17.1665C26.2506 17.1429 26.2792 17.1239 26.3124 17.1002C26.3838 17.0481 26.4551 16.9913 26.5265 16.9392C26.5455 16.9249 26.5645 16.9107 26.5788 16.8965C26.5931 16.887 26.6026 16.8776 26.6168 16.8681C26.7215 16.7876 26.8261 16.6976 26.9355 16.6076C26.9593 16.5886 26.9878 16.5649 27.0116 16.5413C27.0924 16.4702 27.178 16.3991 27.2636 16.3233C27.3017 16.2902 27.335 16.257 27.373 16.2286C27.3873 16.2144 27.4063 16.2002 27.4206 16.186C27.4824 16.1291 27.5442 16.0723 27.6108 16.0107C27.6488 15.9775 28.6 15.0491 29.2421 14.2722C29.8841 13.4953 30.5784 12.5669 31.2919 11.7285Z" fill="white"></path>
    </g>
  </g>
  <defs>
    <clipPath id="clip0_1_378">
      <rect width="84" height="40" fill="white"></rect>
    </clipPath>
  </defs>
</svg>
