<?xml version="1.0" encoding="UTF-8"?>
<svg xmlns="http://www.w3.org/2000/svg" width="106" height="40" viewBox="0 0 106 40" fill="none">
  <g clip-path="url(#clip0_1_367)">
    <g opacity="0.6">
      <path fill-rule="evenodd" clip-rule="evenodd" d="M40.96 9.72C40.96 9.72 36.34 3 25.98 3C17.44 3 11 7.76 11 10.56C11 13.78 17.44 15.46 17.44 20.5H28.5C28.5 17.56 18.84 16.02 18.84 9.72C18.84 3.98 33.82 4.4 40.96 9.72Z" fill="url(#paint0_linear_1_367)"></path>
      <path fill-rule="evenodd" clip-rule="evenodd" d="M40.96 31.28C40.96 31.28 36.34 38 25.98 38C17.44 38 11 33.24 11 30.44C11 27.22 17.44 25.4 17.44 20.5H28.5C28.5 23.44 18.84 24.98 18.84 31.28C18.84 37.02 33.82 36.6 40.96 31.28Z" fill="url(#paint1_linear_1_367)"></path>
      <path fill-rule="evenodd" clip-rule="evenodd" d="M11.14 9.58008C11 10.0001 11 10.2801 11 10.5601C11 13.7801 17.44 15.4601 17.44 20.5001C17.44 25.4001 11 27.2201 11 30.4401C11 30.7201 11 31.0001 11.14 31.2801C10.3 28.2001 21.5 25.5401 26.68 22.7401C27.8 22.0401 28.5 21.3401 28.5 20.5001C28.5 19.6601 27.8 18.9601 26.68 18.2601C21.5 15.4601 10.3 12.8001 11.14 9.58008Z" fill="url(#paint2_linear_1_367)"></path>
      <path d="M36.2 21.7598H37.32C37.18 22.3198 36.9 22.7398 36.34 23.0198C35.92 23.2998 35.36 23.5798 34.52 23.5798C33.68 23.5798 32.98 23.2998 32.56 22.7398C32 22.3198 31.72 21.6198 31.72 20.6398C31.72 19.7998 32 19.0998 32.56 18.5398C32.98 18.1198 33.68 17.8398 34.52 17.8398C35.5 17.8398 36.2 18.1198 36.76 18.5398C37.18 19.0998 37.46 19.7998 37.46 20.6398C37.46 20.7798 37.46 20.7798 37.46 20.7798C37.46 20.9198 37.46 20.9198 37.46 20.9198C37.46 21.0598 37.46 21.0598 37.46 21.0598H33.4C33.4 21.4798 33.54 21.7598 33.82 22.0398C33.96 22.1798 34.24 22.3198 34.66 22.3198C34.94 22.3198 35.08 22.3198 35.36 22.1798C35.36 22.1798 35.36 22.1798 35.5 22.1798C35.5 22.0398 35.5 22.0398 35.64 22.0398C35.64 21.8998 35.64 21.8998 35.78 21.8998C35.92 21.7598 36.06 21.7598 36.2 21.7598ZM33.4 20.0798H35.78C35.78 19.7998 35.64 19.5198 35.5 19.3798C35.22 19.0998 34.94 19.0998 34.66 19.0998C34.24 19.0998 33.96 19.0998 33.82 19.3798C33.54 19.5198 33.4 19.7998 33.4 20.0798ZM44.32 23.4398H43.48C43.34 23.4398 43.06 23.2998 42.92 23.1598C42.78 23.1598 42.78 22.8798 42.78 22.7398V19.9398C42.78 19.6598 42.64 19.3798 42.36 19.2398C42.22 19.0998 41.94 18.9598 41.66 18.9598C41.38 18.9598 41.1 19.0998 40.96 19.2398C40.68 19.3798 40.68 19.6598 40.68 19.9398V23.4398H39V20.2198C39 19.2398 39.28 18.6798 39.84 18.3998C40.4 17.9798 40.96 17.8398 41.66 17.8398C42.36 17.8398 42.92 17.9798 43.48 18.2598C44.04 18.6798 44.32 19.2398 44.32 20.2198V23.4398ZM49.92 16.2998H50.76C51.04 16.2998 51.18 16.4398 51.32 16.5798C51.46 16.7198 51.6 16.8598 51.6 16.9998V21.0598C51.6 22.0398 51.18 22.7398 50.62 23.0198C49.92 23.2998 49.36 23.5798 48.52 23.5798C48.1 23.5798 47.82 23.4398 47.4 23.2998C46.98 23.2998 46.7 23.0198 46.42 22.7398C46 22.3198 45.86 21.6198 45.86 20.7798C45.86 19.7998 46 19.0998 46.42 18.6798C46.98 18.1198 47.54 17.8398 48.24 17.8398C48.66 17.8398 48.94 17.9798 49.22 18.1198C49.5 18.2598 49.78 18.3998 49.92 18.6798V16.2998ZM47.4 20.6398C47.4 21.1998 47.54 21.6198 47.68 21.8998C47.96 22.1798 48.24 22.3198 48.66 22.3198C49.08 22.3198 49.5 22.1798 49.64 21.8998C49.92 21.6198 49.92 21.1998 49.92 20.6398C49.92 20.2198 49.92 19.7998 49.64 19.5198C49.36 19.2398 49.08 19.0998 48.66 19.0998C48.24 19.0998 47.96 19.2398 47.68 19.5198C47.54 19.7998 47.4 20.2198 47.4 20.6398ZM53.98 22.8798C53.56 22.7398 53.42 22.3198 53.28 21.8998C53.14 21.4798 53 21.0598 53 20.6398C53 20.2198 53.14 19.9398 53.14 19.5198C53.28 19.0998 53.42 18.8198 53.7 18.5398C54.12 18.2598 54.68 17.9798 55.24 17.8398C55.94 17.8398 56.5 17.8398 56.92 17.9798C57.62 18.2598 58.04 18.5398 58.32 19.0998C58.6 19.5198 58.6 20.0798 58.6 20.6398C58.6 21.0598 58.6 21.4798 58.46 21.7598C58.46 22.0398 58.32 22.3198 58.04 22.5998C57.76 23.0198 57.2 23.2998 56.64 23.4398C56.22 23.5798 55.66 23.5798 55.1 23.4398C54.68 23.2998 54.26 23.1598 53.98 22.8798ZM54.96 19.3798C54.68 19.6598 54.54 20.0798 54.54 20.7798C54.68 21.3398 54.68 21.7598 54.96 22.0398C55.1 22.1798 55.24 22.1798 55.52 22.3198C55.66 22.3198 55.94 22.3198 56.22 22.3198C56.36 22.3198 56.64 22.1798 56.78 21.8998C56.92 21.6198 57.06 21.1998 57.06 20.6398C57.06 20.2198 57.06 19.7998 56.78 19.5198C56.64 19.3798 56.5 19.0998 56.22 19.0998C55.94 18.9598 55.8 18.9598 55.52 19.0998C55.24 19.0998 55.1 19.2398 54.96 19.3798ZM60.28 23.4398V20.7798C60.28 20.2198 60.28 19.7998 60.56 19.3798C60.7 19.0998 60.98 18.8198 61.26 18.5398C61.54 18.3998 61.82 18.2598 62.24 18.1198C62.66 17.9798 63.08 17.9798 63.5 17.9798C63.5 17.9798 63.5 17.9798 63.64 17.9798V19.3798H63.22C62.66 19.3798 62.38 19.5198 62.24 19.6598C61.96 19.9398 61.82 20.2198 61.82 20.6398V23.4398H60.28ZM66.72 24.6998C66.72 24.9798 66.72 25.1198 66.58 25.2598C66.3 25.3998 66.16 25.3998 66.02 25.3998H65.18V20.3598C65.18 19.3798 65.46 18.6798 66.16 18.3998C66.72 17.9798 67.42 17.8398 68.12 17.8398C68.54 17.8398 68.96 17.9798 69.38 17.9798C69.8 18.1198 70.08 18.3998 70.22 18.5398C70.78 19.0998 70.92 19.7998 70.92 20.6398C70.92 21.4798 70.78 22.1798 70.22 22.7398C69.8 23.2998 69.24 23.5798 68.54 23.5798C68.12 23.5798 67.84 23.4398 67.42 23.2998C67.14 23.1598 67 23.0198 66.72 22.7398V24.6998ZM69.38 20.7798C69.38 20.2198 69.24 19.7998 69.1 19.5198C68.82 19.2398 68.54 19.0998 67.98 19.0998C67.56 19.0998 67.28 19.2398 67.14 19.5198C66.86 19.7998 66.72 20.2198 66.72 20.7798C66.72 21.1998 66.86 21.6198 67.14 21.8998C67.28 22.1798 67.7 22.3198 68.12 22.3198C68.54 22.3198 68.82 22.1798 69.1 21.8998C69.24 21.6198 69.38 21.1998 69.38 20.7798ZM76.38 19.5198C76.24 19.2398 75.82 19.0998 75.54 19.0998C74.98 19.0998 74.7 19.2398 74.42 19.5198C74.28 19.7998 74.14 20.0798 74.14 20.6398V23.4398H72.6V16.4398H73.3C73.58 16.4398 73.72 16.4398 73.86 16.5798C74 16.7198 74.14 16.8598 74.14 16.9998V18.6798C74.42 18.2598 74.84 17.9798 75.26 17.9798C75.82 17.8398 76.24 17.8398 76.8 17.9798C77.22 18.1198 77.5 18.3998 77.78 18.8198C78.2 19.0998 78.34 19.6598 78.34 20.2198V23.4398H76.8V20.6398C76.8 20.3598 76.66 20.2198 76.66 20.0798C76.66 19.7998 76.52 19.6598 76.38 19.5198ZM80.02 17.9798H80.86C81 17.9798 81.28 17.9798 81.42 18.1198C81.56 18.2598 81.7 18.5398 81.7 18.6798V23.4398H80.02V17.9798ZM80.02 16.4398H80.86C81 16.4398 81.28 16.4398 81.42 16.5798C81.56 16.7198 81.7 16.8598 81.7 16.9998V17.5598H80.02V16.4398ZM88.42 23.4398H87.58C87.3 23.4398 87.16 23.2998 87.02 23.1598C86.88 23.1598 86.74 22.8798 86.74 22.7398V19.9398C86.74 19.6598 86.74 19.3798 86.46 19.2398C86.18 19.0998 86.04 18.9598 85.76 18.9598C85.48 18.9598 85.2 19.0998 84.92 19.2398C84.78 19.3798 84.64 19.6598 84.64 19.9398V23.4398H83.1V20.2198C83.1 19.2398 83.24 18.6798 83.8 18.3998C84.36 17.9798 85.06 17.8398 85.62 17.8398C86.32 17.8398 87.02 17.9798 87.58 18.2598C88.14 18.6798 88.42 19.2398 88.42 20.2198V23.4398ZM93.46 20.6398C93.32 20.7798 93.04 20.9198 92.62 20.9198C92.2 21.0598 92.06 21.0598 92.06 21.0598C91.78 21.0598 91.64 21.1998 91.5 21.3398C91.36 21.4798 91.36 21.6198 91.36 21.7598C91.36 21.8998 91.36 22.1798 91.5 22.3198C91.64 22.3198 91.92 22.4598 92.06 22.4598C92.62 22.4598 92.9 22.3198 93.18 22.0398C93.32 21.8998 93.46 21.6198 93.46 21.1998V20.6398ZM93.88 23.1598C93.6 23.2998 93.18 23.4398 92.9 23.4398C92.48 23.4398 92.2 23.5798 91.92 23.5798C91.36 23.5798 90.8 23.4398 90.38 23.1598C89.96 22.8798 89.82 22.4598 89.82 21.7598C89.82 21.1998 89.96 20.7798 90.38 20.6398C90.8 20.3598 91.22 20.2198 91.78 20.0798C91.92 20.0798 91.92 20.0798 92.06 20.0798C92.2 20.0798 92.34 20.0798 92.48 19.9398C93.18 19.9398 93.46 19.7998 93.46 19.5198C93.46 19.2398 93.32 19.0998 93.18 19.0998C92.9 18.9598 92.62 18.9598 92.48 18.9598C92.2 18.9598 92.06 18.9598 91.92 19.0998C91.78 19.0998 91.64 19.2398 91.5 19.3798H89.96C90.1 18.9598 90.24 18.5398 90.66 18.2598C91.08 17.9798 91.64 17.8398 92.34 17.8398C93.32 17.8398 93.88 17.9798 94.3 18.2598C94.72 18.5398 95 18.9598 95 19.3798V21.1998C95 21.7598 94.86 22.1798 94.72 22.5998C94.44 22.8798 94.16 23.0198 93.88 23.1598Z" fill="white"></path>
    </g>
  </g>
  <defs>
    <linearGradient id="paint0_linear_1_367" x1="1399.4" y1="1195.87" x2="1476.23" y2="542.798" gradientUnits="userSpaceOnUse">
      <stop stop-color="#CACCDD"></stop>
      <stop offset="0.219608" stop-color="#E8EAFB"></stop>
      <stop offset="0.501961" stop-color="#F2F4FF"></stop>
      <stop offset="1" stop-color="white"></stop>
    </linearGradient>
    <linearGradient id="paint1_linear_1_367" x1="1399.4" y1="576.513" x2="1476.23" y2="1229.58" gradientUnits="userSpaceOnUse">
      <stop stop-color="#B6B8C9"></stop>
      <stop offset="0.219608" stop-color="#D4D6E7"></stop>
      <stop offset="0.501961" stop-color="#E8EAFB"></stop>
      <stop offset="1" stop-color="white"></stop>
    </linearGradient>
    <linearGradient id="paint2_linear_1_367" x1="11" y1="1099.94" x2="1759.35" y2="1099.94" gradientUnits="userSpaceOnUse">
      <stop stop-color="#C0C2D3"></stop>
      <stop offset="0.368627" stop-color="#E8EAFB"></stop>
      <stop offset="0.678431" stop-color="white"></stop>
      <stop offset="1" stop-color="white"></stop>
    </linearGradient>
    <clipPath id="clip0_1_367">
      <rect width="106" height="40" fill="white"></rect>
    </clipPath>
  </defs>
</svg>
