<?xml version="1.0" encoding="UTF-8"?>
<svg xmlns="http://www.w3.org/2000/svg" width="102" height="40" viewBox="0 0 102 40" fill="none">
  <g clip-path="url(#clip0_1_337)">
    <g opacity="0.6">
      <path d="M30.73 8.30029H39.604L39.823 11.3003H39.298C39.091 10.0673 39.064 9.80029 38.614 9.32329C38.164 8.84629 37.27 8.87629 36.547 8.87629H34.279C34.126 8.86558 33.9756 8.92007 33.865 9.02629C33.7616 9.1536 33.7111 9.31579 33.724 9.47929V13.3013H34.717C35.2122 13.3178 35.6881 13.1081 36.01 12.7313C36.34 12.3513 36.518 11.7663 36.544 10.9763H37.084V16.3373H36.544C36.518 15.4493 36.337 14.8143 36.001 14.4323C35.6545 14.0431 35.1505 13.8313 34.63 13.8563H33.73V18.1583C33.7209 18.3059 33.7834 18.4488 33.898 18.5423C34.0646 18.646 34.2606 18.6923 34.456 18.6743H36.256C38.2 18.6743 39.322 18.0383 39.619 15.5543H40.183L39.97 19.2593H30.73V18.6593H31.219C31.4467 18.6811 31.6752 18.6251 31.867 18.5003C31.9963 18.3815 32.0647 18.2105 32.053 18.0353V9.47929C32.0696 9.3133 32.0139 9.1482 31.9 9.02629C31.7524 8.91428 31.5686 8.86084 31.384 8.87629H30.73V8.30029Z" fill="white"></path>
      <path d="M39.418 11.9243H43.423V12.4583C43.1115 12.4405 42.7995 12.4843 42.505 12.5873C42.3806 12.6469 42.3021 12.7734 42.304 12.9113C42.3047 13.0306 42.3313 13.1483 42.382 13.2563L44.326 17.6003L46.096 13.4003C46.1213 13.3301 46.1345 13.256 46.135 13.1813C46.135 12.8013 45.76 12.5643 45.01 12.4703V11.9243H48.046V12.4583C47.783 12.4734 47.529 12.5594 47.311 12.7073C47.1276 12.8505 46.9857 13.04 46.9 13.2563L44.2 19.4813H43.78L40.9 13.0853C40.8232 12.8912 40.6906 12.7241 40.519 12.6053C40.1631 12.5036 39.7941 12.4551 39.424 12.4613L39.418 11.9243Z" fill="white"></path>
      <path d="M50.875 11.7052C51.8181 11.687 52.7233 12.0762 53.359 12.7732C54.0506 13.5428 54.4116 14.5536 54.364 15.5872C54.3848 16.2987 54.2303 17.0045 53.914 17.6422C53.6207 18.2011 53.1756 18.6659 52.63 18.9832C52.0866 19.3099 51.464 19.4811 50.83 19.4782C49.9108 19.4853 49.0343 19.0908 48.43 18.3982C47.7512 17.6267 47.3965 16.6229 47.44 15.5962C47.3973 14.572 47.7508 13.5707 48.427 12.8002C49.0431 12.0942 49.9379 11.6939 50.875 11.7052ZM50.875 12.2602C50.2902 12.2601 49.7464 12.5603 49.435 13.0552C49.059 13.5852 48.871 14.4212 48.871 15.5632C48.871 16.7052 49.058 17.5562 49.432 18.1162C49.7398 18.6179 50.2863 18.9235 50.875 18.9233C51.4752 18.9284 52.0356 18.6232 52.357 18.1162C52.735 17.5782 52.924 16.6992 52.924 15.4792C52.924 14.3472 52.737 13.5282 52.363 13.0222C52.0258 12.5355 51.4669 12.2504 50.875 12.2632V12.2602Z" fill="white"></path>
      <path d="M56.7999 8.15625V18.1792C56.7915 18.3053 56.8399 18.4286 56.9319 18.5153C57.0678 18.6214 57.2366 18.6766 57.4089 18.6712H57.8799V19.2712H54.3399V18.6712H54.7749C54.9655 18.6843 55.1536 18.623 55.2999 18.5002C55.4238 18.3698 55.4879 18.1938 55.4769 18.0142V9.69825C55.4957 9.4864 55.4187 9.27728 55.2669 9.12825C55.0695 8.95883 54.816 8.86899 54.5559 8.87625H53.8989V8.30025L56.7999 8.15625Z" fill="white"></path>
      <path d="M60.526 11.7925V16.6555C60.4939 17.1552 60.655 17.6481 60.976 18.0325C61.273 18.3569 61.6975 18.5345 62.137 18.5185C62.7191 18.5249 63.272 18.2639 63.637 17.8105C64.0491 17.3138 64.2628 16.6823 64.237 16.0375V13.2895C64.2481 13.0621 64.1473 12.8436 63.967 12.7045C63.6497 12.5313 63.2899 12.4512 62.929 12.4735V11.9245L65.503 11.7925V17.8135C65.4882 18.0504 65.5743 18.2825 65.74 18.4525C65.9214 18.6098 66.1574 18.6896 66.397 18.6745H66.859V19.1995L64.393 19.2535L64.237 17.8135C63.8638 18.2732 63.4167 18.6676 62.914 18.9805C62.5097 19.23 62.0451 19.3648 61.57 19.3705C60.9472 19.3859 60.3454 19.1452 59.905 18.7045C59.451 18.2665 59.224 17.5225 59.224 16.4725V13.2895C59.2394 13.032 59.1158 12.7859 58.9 12.6445C58.5977 12.5099 58.2671 12.4512 57.937 12.4735V11.9245L60.526 11.7925Z" fill="white"></path>
      <path d="M68.3439 8.93604H68.8689V11.936H73.3329V12.656H68.8689V17.351C68.8486 17.6895 68.9556 18.0234 69.1689 18.287C69.3533 18.4993 69.6228 18.6181 69.9039 18.611C70.2661 18.6033 70.6018 18.4197 70.8039 18.119C71.0539 17.791 71.1999 17.248 71.2419 16.49H71.7669C71.7349 17.466 71.5129 18.19 71.1009 18.662C70.7006 19.1288 70.1105 19.3892 69.4959 19.37C68.9744 19.4006 68.4624 19.2213 68.0739 18.872C67.7276 18.5294 67.5414 18.0568 67.5609 17.57V12.644H66.2859V12.098C66.8003 12.0299 67.2698 11.7694 67.5999 11.369C68.0599 10.789 68.3079 9.97804 68.3439 8.93604Z" fill="white"></path>
      <path d="M71.7581 11.9241L74.6771 11.8371V18.1371C74.6634 18.2725 74.7094 18.4072 74.8031 18.5061C74.9295 18.6124 75.0909 18.668 75.2561 18.6621H75.7841V19.2621H72.2171V18.6621H72.7001C72.884 18.678 73.0664 18.6172 73.2041 18.4941C73.3197 18.3584 73.3778 18.1829 73.3661 18.0051V13.5381C73.3843 13.2921 73.2932 13.0506 73.1171 12.8781C72.9048 12.7152 72.6399 12.6361 72.3731 12.6561H71.7731L71.7581 11.9241ZM73.7921 8.45605C74.026 8.45609 74.2497 8.55269 74.4101 8.72305C74.5818 8.88623 74.6784 9.11316 74.6771 9.35005C74.6759 9.57674 74.5828 9.79324 74.4191 9.95005C74.2575 10.1177 74.0338 10.2111 73.8011 10.2081C73.566 10.2109 73.3401 10.1164 73.1771 9.94705C73.0125 9.79055 72.9184 9.57411 72.9161 9.34705C72.9164 9.11314 73.013 8.88967 73.1831 8.72905C73.3402 8.55897 73.5605 8.46127 73.7921 8.45905V8.45605Z" fill="white"></path>
      <path d="M79.468 11.7052C80.4111 11.687 81.3163 12.0762 81.952 12.7732C82.6446 13.5423 83.0067 14.5532 82.96 15.5872C82.9808 16.2987 82.8263 17.0045 82.51 17.6422C82.2165 18.201 81.7715 18.6658 81.226 18.9832C80.6826 19.3098 80.06 19.481 79.426 19.4782C78.5067 19.4857 77.63 19.0912 77.026 18.3982C76.3469 17.6268 75.9922 16.6229 76.036 15.5962C75.9916 14.5728 76.3429 13.5716 77.017 12.8002C77.6338 12.0934 78.5299 11.693 79.468 11.7052ZM79.468 12.2602C78.8832 12.2601 78.3394 12.5603 78.028 13.0552C77.652 13.5852 77.464 14.4212 77.464 15.5632C77.464 16.7052 77.651 17.5562 78.025 18.1162C78.3328 18.6179 78.8793 18.9235 79.468 18.9232C80.0693 18.9294 80.631 18.6241 80.953 18.1162C81.331 17.5782 81.52 16.6992 81.52 15.4792C81.52 14.3472 81.333 13.5282 80.959 13.0222C80.6212 12.5346 80.061 12.2494 79.468 12.2632V12.2602Z" fill="white"></path>
      <path d="M82.8069 11.9244L85.2429 11.7744C85.3522 12.3059 85.4253 12.8441 85.4619 13.3854C85.7468 12.8969 86.1463 12.4851 86.6259 12.1854C87.0803 11.9185 87.5989 11.7805 88.1259 11.7864C88.5523 11.7761 88.9738 11.8797 89.3469 12.0864C89.6962 12.299 89.9724 12.6129 90.1389 12.9864C90.3427 13.4197 90.4453 13.8936 90.4389 14.3724V17.9424C90.4182 18.1481 90.4833 18.3533 90.6189 18.5094C90.7914 18.6373 91.005 18.6971 91.2189 18.6774H91.4319V19.2774H88.1829V18.6774H88.2459C88.4974 18.701 88.7498 18.6431 88.9659 18.5124C89.1078 18.3886 89.1834 18.2053 89.1699 18.0174V14.8764C89.2096 14.3526 89.1059 13.8278 88.8699 13.3584C88.5904 12.897 88.0795 12.6271 87.5409 12.6564C86.9647 12.6491 86.4183 12.9122 86.0649 13.3674C85.6498 13.895 85.437 14.5537 85.4649 15.2244V17.9394C85.4439 18.1457 85.5102 18.3513 85.6479 18.5064C85.8215 18.6321 86.0343 18.6916 86.2479 18.6744H86.4549V19.2744H83.1819V18.6744H83.3859C83.5919 18.6889 83.7968 18.634 83.9679 18.5184C84.0942 18.4288 84.1692 18.2833 84.1689 18.1284V13.4004C84.1872 13.1382 84.0947 12.8803 83.9139 12.6894C83.7111 12.5157 83.4483 12.4285 83.1819 12.4464H82.8069V11.9244Z" fill="white"></path>
      <path d="M43.3 21.6741L43.942 20.5161H44.467L44.767 25.1361H44.257C43.857 23.8081 43.396 22.8471 42.874 22.2531C42.3034 21.5484 41.4496 21.1331 40.543 21.1191C39.8972 21.1128 39.2663 21.3136 38.743 21.6921C38.1718 22.1268 37.7452 22.7239 37.519 23.4051C37.237 24.1671 37.093 24.9351 37.093 26.3181C37.0486 27.2838 37.1933 28.2489 37.519 29.1591C37.7351 29.8212 38.1448 30.4032 38.695 30.8301C39.21 31.1914 39.8271 31.3785 40.456 31.3641C41.2371 31.4134 42.0035 31.1351 42.571 30.5961C43.077 30.0639 43.3464 29.3499 43.318 28.6161V27.5271C43.3253 27.3689 43.2504 27.218 43.12 27.1281C42.9206 27.018 42.6931 26.9689 42.466 26.9871H41.488V26.4381H46V26.9871H45.646C45.4259 26.9676 45.2054 27.0214 45.019 27.1401C44.8917 27.2501 44.8229 27.4132 44.833 27.5811V32.0001H44.32C44.132 31.3121 43.932 30.6521 43.72 30.0201C43.3798 30.6088 42.8996 31.1044 42.322 31.4631C41.7658 31.7891 41.1307 31.9562 40.486 31.9461C39.5341 31.9495 38.5998 31.69 37.786 31.1961C36.9404 30.6893 36.2527 29.9569 35.8 29.0811C35.3129 28.2367 35.067 27.2747 35.089 26.3001C35.0697 25.3191 35.3209 24.3518 35.815 23.5041C36.2774 22.6174 36.9642 21.8674 37.807 21.3291C38.5629 20.8182 39.4508 20.5379 40.363 20.5221C40.8429 20.5198 41.3194 20.6031 41.77 20.7681C42.3226 20.9915 42.8384 21.2969 43.3 21.6741Z" fill="white"></path>
      <path d="M53.8 31.1485L53.9229 31.3645C53.9229 31.7785 53.425 31.7335 52.9599 31.7335C52.6059 31.7335 51.8949 31.7155 51.6489 31.5295C51.4029 31.3435 51.3039 31.1305 51.1209 30.6445C50.7474 31.0736 50.2992 31.4314 49.7979 31.7005C49.3713 31.8848 48.9096 31.9739 48.445 31.9615C47.8338 32.0039 47.227 31.8321 46.7289 31.4755C46.3441 31.178 46.1218 30.7168 46.1289 30.2305C46.1289 29.4685 46.577 28.8355 47.473 28.3315C48.5863 27.7648 49.8005 27.4233 51.046 27.3265V26.2045C51.048 25.811 50.8728 25.4374 50.5689 25.1875C50.2356 24.9018 49.8077 24.751 49.369 24.7645C48.9599 24.7535 48.5553 24.8507 48.196 25.0465C47.962 25.1885 47.845 25.3265 47.845 25.4605C47.8729 25.5976 47.9383 25.7243 48.0339 25.8265C48.1659 25.9843 48.2456 26.1793 48.262 26.3845C48.2702 26.6 48.1874 26.809 48.0339 26.9605C47.8729 27.1136 47.6559 27.1939 47.4339 27.1825C47.1887 27.1892 46.9517 27.0936 46.7799 26.9185C46.6039 26.7365 46.5096 26.4905 46.5189 26.2375C46.5189 25.7195 46.8099 25.2475 47.3919 24.8215C48.0659 24.3665 48.8687 24.1413 49.681 24.1795C50.553 24.1795 51.2179 24.3675 51.6759 24.7435C52.1105 25.0717 52.366 25.5848 52.366 26.1295V30.1345C52.3529 30.3768 52.4135 30.6173 52.5399 30.8245C52.6295 30.977 52.7783 31.0857 52.9509 31.1245C53.233 31.1531 53.5167 31.1611 53.8 31.1485ZM51.0729 27.8335C49.7469 28.0175 48.8079 28.3175 48.2559 28.7335C47.8425 29.0481 47.6112 29.5466 47.6379 30.0655C47.6173 30.4094 47.7326 30.7477 47.959 31.0075C48.1762 31.2356 48.4812 31.3591 48.796 31.3465C49.4047 31.3503 49.9867 31.0964 50.3979 30.6475C50.8515 30.1767 51.0959 29.5429 51.0759 28.8895L51.0729 27.8335Z" fill="white"></path>
      <path d="M53.53 24.3952L55.63 24.2632C55.7391 24.7767 55.8143 25.2968 55.855 25.8202C56.1656 25.3398 56.5746 24.9308 57.055 24.6202C57.4519 24.3861 57.9052 24.2647 58.366 24.2692C58.8173 24.2515 59.2607 24.3915 59.62 24.6652C59.9975 25.0111 60.262 25.4627 60.379 25.9612C60.6692 25.4571 61.0665 25.0228 61.543 24.6892C61.9568 24.4132 62.4436 24.2669 62.941 24.2692C63.5065 24.2289 64.0593 24.45 64.441 24.8692C64.8865 25.4454 65.1139 26.1605 65.083 26.8882V30.5182C65.0618 30.6852 65.1234 30.852 65.248 30.9652C65.4378 31.0983 65.6678 31.1618 65.899 31.1452H66.265V31.7452H62.575V31.1452H62.944C63.1742 31.1669 63.4051 31.1121 63.601 30.9892C63.7331 30.8696 63.8028 30.6959 63.79 30.5182V26.8732C63.8219 26.4183 63.6828 25.9679 63.4 25.6102C63.1352 25.3124 62.7512 25.1485 62.353 25.1632C62.0336 25.1576 61.7199 25.2486 61.453 25.4242C61.1782 25.6101 60.9618 25.8701 60.829 26.1742C60.6319 26.5399 60.5172 26.9444 60.493 27.3592V30.5182C60.4777 30.6936 60.5402 30.8669 60.664 30.9922C60.8174 31.1065 61.0073 31.1609 61.198 31.1452H61.699V31.7452H57.955V31.1452H58.378C58.5898 31.1619 58.8011 31.107 58.978 30.9892C59.1039 30.8954 59.1774 30.7472 59.176 30.5902V27.2002C59.176 26.4842 59.049 25.9652 58.795 25.6432C58.553 25.3249 58.1716 25.1437 57.772 25.1572C57.281 25.1318 56.8078 25.3439 56.5 25.7272C56.0791 26.2558 55.8553 26.9145 55.867 27.5902V30.5182C55.8469 30.6867 55.9017 30.8556 56.017 30.9802C56.2122 31.1052 56.4429 31.1632 56.674 31.1452H57.049V31.7452H53.344V31.1452H53.899C54.0741 31.1574 54.2471 31.1015 54.382 30.9892C54.4931 30.8868 54.5544 30.7412 54.55 30.5902V25.7902C54.5688 25.5705 54.4949 25.3529 54.346 25.1902C54.1069 25.0233 53.8216 24.9352 53.53 24.9382V24.3952Z" fill="white"></path>
      <path d="M66.4209 24.3954L69.0369 24.3084V30.6084C69.0233 30.7439 69.0693 30.8786 69.1629 30.9774C69.2904 31.084 69.4529 31.1396 69.6189 31.1334H70.4499V31.7334H65.9709V31.1334H67.0479C67.232 31.1497 67.4145 31.0889 67.5519 30.9654C67.6671 30.8296 67.7242 30.6539 67.7109 30.4764V25.8684C67.7297 25.6215 67.6386 25.3789 67.4619 25.2054C67.2498 25.0422 66.9848 24.9632 66.7179 24.9834H66.4179L66.4209 24.3954ZM68.1519 20.9274C68.386 20.9271 68.6098 21.0237 68.7699 21.1944C68.942 21.3574 69.0387 21.5844 69.0369 21.8214C69.0357 22.0481 68.9426 22.2646 68.7789 22.4214C68.4981 22.698 68.0672 22.753 67.7259 22.5558C67.3847 22.3586 67.2171 21.9578 67.3165 21.5764C67.416 21.195 67.7578 20.9269 68.1519 20.9214V20.9274Z" fill="white"></path>
      <path d="M70.234 24.3951L72.67 24.2451C72.779 24.7766 72.8522 25.3148 72.889 25.8561C73.1739 25.3676 73.5734 24.9558 74.053 24.6561C74.5118 24.3867 75.0359 24.2487 75.568 24.2571C75.9944 24.2468 76.4159 24.3504 76.789 24.5571C77.1386 24.7693 77.415 25.0833 77.581 25.4571C77.7845 25.8905 77.8871 26.3644 77.881 26.8431V30.4131C77.8602 30.6188 77.9254 30.824 78.061 30.9801C78.2334 31.1083 78.4471 31.1681 78.661 31.1481H78.874V31.7481H75.61V31.1481H75.673C75.9244 31.1717 76.1768 31.1138 76.393 30.9831C76.5325 30.8625 76.6089 30.6844 76.6 30.5001V27.3471C76.6396 26.8223 76.5359 26.2966 76.3 25.8261C76.0203 25.3631 75.5081 25.092 74.968 25.1211C74.3918 25.1142 73.8457 25.3773 73.492 25.8321C73.0771 26.3599 72.8643 27.0184 72.892 27.6891V30.4041C72.8709 30.6104 72.9373 30.816 73.075 30.9711C73.2486 31.0968 73.4613 31.1563 73.675 31.1391H73.882V31.7391H70.3V31.1391H70.81C71.0159 31.1531 71.2206 31.0983 71.392 30.9831C71.5192 30.8929 71.5943 30.7461 71.593 30.5901V25.8591C71.6116 25.5968 71.5191 25.3388 71.338 25.1481C71.1353 24.9741 70.8724 24.8869 70.606 24.9051H70.231L70.234 24.3951Z" fill="white"></path>
      <path d="M84.4271 24.8002C84.9491 24.2722 86.4071 23.5012 86.8721 23.4832C87.139 23.4467 87.4091 23.5215 87.6191 23.6902C87.7901 23.8582 87.4811 24.2332 87.4811 24.4732C87.4875 24.6497 87.4251 24.8218 87.3071 24.9532C87.2049 25.0744 87.0546 25.1446 86.8961 25.1452C86.5981 25.1452 86.3981 24.9622 86.2961 24.5962C86.2541 24.4402 86.1831 24.3622 86.0831 24.3622C85.6105 24.5284 85.1737 24.7829 84.7961 25.1122C84.9852 25.3573 85.1406 25.6267 85.2581 25.9132C85.3433 26.1477 85.3859 26.3956 85.3841 26.6452C85.3914 27.0685 85.2769 27.4851 85.0541 27.8452C84.7766 28.2414 84.4001 28.5579 83.9621 28.7632C83.5147 29.0129 83.0133 29.1498 82.5011 29.1622H81.6491C81.2397 29.1282 80.8282 29.193 80.4491 29.3512C80.2536 29.4746 80.1392 29.6932 80.1491 29.9242C80.141 30.1131 80.2334 30.2923 80.3921 30.3952C80.6774 30.5293 80.9929 30.5862 81.3071 30.5602L83.2391 30.5212C84.2151 30.5212 84.9151 30.6842 85.3391 31.0102C85.7629 31.3228 86.0044 31.8249 85.9841 32.3512C85.9914 32.9623 85.7211 33.5438 85.2491 33.9322C84.5651 34.5322 83.5441 34.8322 82.1861 34.8322C81.0641 34.8322 80.2321 34.6262 79.6901 34.2142C79.3111 33.9777 79.0715 33.5712 79.0481 33.1252C79.0651 32.8031 79.2177 32.5034 79.4681 32.3002C79.8691 31.9886 80.347 31.7916 80.8511 31.7302C80.4218 31.6473 80.0205 31.4574 79.6841 31.1782C79.4318 30.9474 79.29 30.62 79.2941 30.2782C79.2846 29.9575 79.3935 29.6446 79.6001 29.3992C79.9051 29.0938 80.2847 28.8735 80.7011 28.7602C80.2972 28.5486 79.9527 28.2391 79.6991 27.8602C79.4713 27.502 79.3544 27.0845 79.3631 26.6602C79.3595 25.9747 79.6674 25.3247 80.2001 24.8932C80.8123 24.3945 81.5863 24.1383 82.3751 24.1732C82.7329 24.1719 83.0889 24.2245 83.4311 24.3292C83.7846 24.4359 84.1203 24.5947 84.4271 24.8002ZM82.8311 31.7272C81.8711 31.7272 81.1861 31.8602 80.7761 32.1262C80.4143 32.3148 80.18 32.6816 80.1611 33.0892C80.1541 33.4308 80.3303 33.75 80.6231 33.9262C81.15 34.2285 81.7537 34.3703 82.3601 34.3342C83.2581 34.3342 83.9341 34.1852 84.3881 33.8872C84.8421 33.5892 85.0701 33.2602 85.0721 32.9002C85.0705 32.6819 84.9954 32.4706 84.8591 32.3002C84.6834 32.0926 84.4475 31.9447 84.1841 31.8772C83.7421 31.7662 83.2865 31.7187 82.8311 31.7362V31.7272ZM82.3691 24.6652C81.9275 24.6544 81.5045 24.8428 81.2171 25.1782C80.8935 25.5846 80.7321 26.0966 80.7641 26.6152C80.7301 27.1626 80.8906 27.7045 81.2171 28.1452C81.5027 28.4872 81.9245 28.6862 82.3701 28.6891C82.8157 28.6919 83.24 28.4985 83.5301 28.1602C83.8532 27.7293 84.0127 27.1977 83.9801 26.6602C84.0088 26.1374 83.8456 25.6221 83.5211 25.2112C83.2392 24.8658 82.8149 24.668 82.3691 24.6742V24.6652Z" fill="white"></path>
      <path d="M87.1512 23.5371C87.6424 23.5453 88.0363 23.9459 88.0362 24.4371C88.0353 24.6639 87.9422 24.8805 87.7782 25.0371C87.4971 25.314 87.0657 25.3688 86.7243 25.171C86.3829 24.9733 86.2159 24.5717 86.3163 24.1902C86.4166 23.8086 86.7597 23.5413 87.1542 23.5371H87.1512Z" fill="white"></path>
      <path d="M25.99 30.5481H25.798H25.699V30.0711H25.831C25.9322 30.0604 26.0345 30.0717 26.131 30.1041C26.2096 30.1424 26.258 30.2237 26.254 30.3111C26.2546 30.3809 26.2249 30.4476 26.1725 30.4936C26.12 30.5397 26.0501 30.5607 25.981 30.5511M26.548 30.3171C26.5542 30.1688 26.4896 30.0263 26.374 29.9331C26.2332 29.838 26.0622 29.7985 25.894 29.8221H25.411V31.3701H25.711V30.8001H25.969L26.269 31.3761H26.599L26.254 30.7461C26.4393 30.689 26.5626 30.5138 26.554 30.3201M25.954 31.8201C25.2912 31.8201 24.754 31.2829 24.754 30.6201C24.754 29.9574 25.2912 29.4201 25.954 29.4201C26.6167 29.4201 27.154 29.9574 27.154 30.6201C27.154 31.2829 26.6167 31.8201 25.954 31.8201ZM25.954 29.1201C25.1256 29.1201 24.454 29.7917 24.454 30.6201C24.454 31.4485 25.1256 32.1201 25.954 32.1201C26.7824 32.1201 27.454 31.4485 27.454 30.6201C27.454 29.7917 26.7824 29.1201 25.954 29.1201Z" fill="white"></path>
      <path d="M10.027 9.44009C17.227 5.58809 26.557 9.65009 27.259 19.4571C13.879 20.5071 12.268 14.4831 10.027 9.44009Z" fill="white"></path>
      <path d="M10.027 30.467C17.227 34.319 26.557 30.2571 27.259 20.4501C13.879 19.4001 12.268 25.421 10.027 30.467Z" fill="white"></path>
      <path d="M27.232 19.4661C26.53 9.65907 17.2 5.60007 10 9.44907C12.241 14.4921 13.852 20.5161 27.232 19.4661ZM10 30.4761C17.2 34.3281 26.53 30.2661 27.232 20.4591C13.852 19.4001 12.241 25.4301 10 30.4761Z" fill="white"></path>
    </g>
  </g>
  <defs>
    <clipPath id="clip0_1_337">
      <rect width="102" height="40" fill="white"></rect>
    </clipPath>
  </defs>
</svg>
