<?xml version="1.0" encoding="UTF-8"?>
<svg xmlns="http://www.w3.org/2000/svg" width="94" height="40" viewBox="0 0 94 40" fill="none">
  <g clip-path="url(#clip0_1_320)">
    <g opacity="0.6">
      <path d="M54.176 14.7004C53.912 13.9964 53.56 13.4244 53.076 12.9404C52.592 12.4564 52.02 12.0604 51.316 11.7964C50.612 11.5324 49.82 11.4004 48.94 11.4004C48.588 11.4004 48.192 11.4004 47.796 11.4444C47.4 11.4884 47.004 11.5324 46.608 11.5764C46.212 11.6204 45.86 11.7084 45.508 11.7524C45.156 11.8404 44.848 11.8844 44.584 11.9724V25.0404H47.62V22.1364C47.972 22.2684 48.324 22.4004 48.676 22.4884C49.028 22.5764 49.424 22.6204 49.864 22.6204C50.612 22.6204 51.316 22.4884 51.888 22.2244C52.46 21.9604 52.944 21.5644 53.34 21.0804C53.736 20.5964 54.044 20.0244 54.22 19.3204C54.44 18.6604 54.528 17.8684 54.528 17.0324C54.572 16.1964 54.44 15.4044 54.176 14.7004ZM49.292 20.0244C48.984 20.0244 48.676 19.9804 48.368 19.8924C48.06 19.8044 47.796 19.7164 47.62 19.5844V14.1284C47.752 14.0844 47.972 14.0844 48.192 14.0404C48.412 14.0404 48.676 13.9964 48.94 13.9964C49.776 13.9964 50.392 14.2604 50.832 14.8324C51.272 15.4044 51.448 16.1524 51.448 17.0764C51.448 19.0564 50.744 20.0244 49.292 20.0244Z" fill="white"></path>
      <path d="M56.552 19.0562C56.552 19.6282 56.596 20.1562 56.728 20.5962C56.86 21.0362 57.08 21.4322 57.388 21.7402C57.696 22.0482 58.136 22.3122 58.708 22.4882C58.972 22.5762 59.28 22.6202 59.588 22.6642V7.22021H56.552V19.0562Z" fill="white"></path>
      <path d="M70.6319 13.9524C70.4999 13.4244 70.2359 12.9404 69.8839 12.5444C69.5319 12.1484 69.0479 11.8844 68.4319 11.6644C67.8159 11.4444 67.0679 11.3564 66.1879 11.3564C65.8359 11.3564 65.4839 11.3564 65.1319 11.4004C64.7799 11.4444 64.4719 11.4884 64.1199 11.5324C63.8119 11.5764 63.5039 11.6204 63.2399 11.7084C62.9759 11.7524 62.7559 11.8404 62.5799 11.8844L62.9759 14.3484C63.3279 14.2164 63.7679 14.0844 64.2959 14.0404C64.8239 13.9524 65.3079 13.9084 65.8359 13.9084C66.6279 13.9084 67.1559 14.0844 67.4639 14.3924C67.7279 14.6564 67.8599 14.9644 67.9039 15.3604C67.8159 15.3604 67.6839 15.3164 67.5959 15.3164C67.2439 15.2724 66.8919 15.2724 66.4519 15.2724C65.8359 15.2724 65.2199 15.3164 64.6039 15.4484C64.0319 15.5804 63.5039 15.7564 63.0199 16.0644C62.5799 16.3284 62.1839 16.7244 61.9199 17.2084C61.6559 17.6924 61.5239 18.2644 61.5239 18.9244C61.5239 19.6284 61.6559 20.2444 61.8759 20.7284C62.0959 21.2124 62.4479 21.6084 62.8879 21.9164C63.3279 22.2244 63.8559 22.4444 64.4719 22.5764C64.9999 22.7084 65.5719 22.7524 66.1879 22.7524H66.3199C66.3639 22.7524 66.4519 22.7524 66.4959 22.7524C66.7159 22.7524 66.9359 22.7524 67.1559 22.7084C67.8599 22.6644 68.4759 22.6204 69.0039 22.5324C69.7959 22.4004 70.4119 22.2684 70.8519 22.1804V15.8004C70.8519 15.1404 70.7639 14.5244 70.6319 13.9524ZM67.9039 20.1124C67.8159 20.1124 67.7279 20.1124 67.6399 20.1124C67.3319 20.1124 67.0239 20.1564 66.7159 20.1564C66.0999 20.1564 65.6599 20.0684 65.3079 19.8484C64.9559 19.6284 64.7799 19.2764 64.7799 18.7924C64.7799 18.5284 64.8239 18.3084 64.9559 18.1324C65.0879 17.9564 65.2199 17.8244 65.4399 17.6924C65.6599 17.6044 65.8799 17.5164 66.1439 17.4724C66.4079 17.4284 66.7159 17.4284 67.0239 17.4284C67.2439 17.4284 67.5079 17.4284 67.7719 17.4724C67.8159 17.4724 67.8599 17.4724 67.9039 17.4724V20.1124Z" fill="white"></path>
      <path d="M82.776 11.6642C82.16 13.7322 81.5 15.6682 80.84 17.4722C80.18 19.2762 79.432 21.0362 78.64 22.7522C78.64 22.7962 78.596 22.8402 78.596 22.8842C78.156 23.8082 77.804 24.5122 77.496 25.0402H74.504C74.9 24.3802 75.384 23.3682 76 22.0042C76 21.9602 76.044 21.9602 76.044 21.9162C75.34 20.5522 74.68 19.0562 73.976 17.3402C73.272 15.6242 72.612 13.7322 71.996 11.6202H75.208C75.34 12.1482 75.516 12.7202 75.692 13.3362C75.868 13.9522 76.088 14.5682 76.264 15.2282C76.484 15.8442 76.66 16.4602 76.88 17.0762C77.056 17.6042 77.232 18.0882 77.408 18.5282C78.112 16.6362 78.684 14.8762 79.08 13.5122C79.08 13.4682 79.124 13.3802 79.124 13.3362C79.256 12.8962 79.344 12.4562 79.476 12.0162C79.52 11.8402 79.564 11.7082 79.564 11.5762H82.776V11.6642Z" fill="white"></path>
      <path d="M10.22 17.1204C10.22 16.1524 10.352 15.3164 10.66 14.6124C10.968 13.9084 11.32 13.2924 11.804 12.8084C12.288 12.3244 12.816 11.9724 13.432 11.7084C14.048 11.4444 14.708 11.3564 15.324 11.3564C16.864 11.3564 18.052 11.8404 18.932 12.7644C19.812 13.6884 20.252 15.0524 20.252 16.9004C20.252 17.0764 20.252 17.2524 20.252 17.4724C20.252 17.6924 20.208 17.8684 20.208 18.0444H13.344C13.432 18.6604 13.696 19.1884 14.224 19.5404C14.752 19.8924 15.456 20.1124 16.292 20.1124C16.864 20.1124 17.392 20.0684 17.92 19.9804C18.448 19.8924 18.888 19.7604 19.24 19.5844L19.636 22.0484C19.46 22.1364 19.24 22.2244 18.976 22.3124C18.712 22.4004 18.404 22.4444 18.052 22.5324C17.7 22.5764 17.348 22.6644 16.996 22.6644C16.6 22.7084 16.248 22.7084 15.852 22.7084C14.884 22.7084 14.048 22.5764 13.344 22.2684C12.64 21.9604 12.024 21.6084 11.584 21.0804C11.1 20.5964 10.748 19.9804 10.528 19.3204C10.308 18.6604 10.22 17.9124 10.22 17.1204ZM17.348 15.9324C17.348 15.6684 17.304 15.4044 17.216 15.1844C17.128 14.9204 17.04 14.7004 16.864 14.5244C16.688 14.3484 16.512 14.1724 16.292 14.0404C16.072 13.9084 15.764 13.8644 15.412 13.8644C15.06 13.8644 14.796 13.9084 14.532 14.0404C14.268 14.1724 14.092 14.3044 13.916 14.4804C13.74 14.6564 13.608 14.8764 13.52 15.1404C13.432 15.4044 13.388 15.6684 13.344 15.8884H17.348V15.9324Z" fill="white"></path>
      <path d="M25.0919 22.4006C24.3879 21.0366 23.6839 19.4526 22.9799 17.6046C22.2759 15.8006 21.5719 13.7766 20.9559 11.6206H24.1679C24.2999 12.1486 24.4759 12.7206 24.6519 13.3366C24.8279 13.9526 25.0479 14.5686 25.2239 15.2286C25.4439 15.8446 25.6199 16.4606 25.8399 17.0766C26.0599 17.6926 26.2359 18.2206 26.4119 18.7046C26.5879 18.2206 26.7639 17.6486 26.9839 17.0766C27.2039 16.4606 27.3799 15.8446 27.5999 15.2286C27.8199 14.6126 27.9959 13.9526 28.1719 13.3366C28.3479 12.7206 28.5239 12.1486 28.6559 11.6206H31.8239C31.1639 13.7766 30.5039 15.7566 29.7999 17.6046C29.0959 19.4086 28.3919 21.0366 27.6879 22.4006H25.0919Z" fill="white"></path>
      <path d="M42.736 17.0323C42.736 17.8683 42.604 18.6603 42.384 19.3643C42.12 20.0683 41.768 20.6843 41.328 21.1683C40.844 21.6523 40.316 22.0483 39.656 22.3123C38.996 22.5763 38.292 22.7083 37.5 22.7083C36.708 22.7083 36.004 22.5763 35.344 22.3123C34.684 22.0483 34.156 21.6523 33.672 21.1683C33.188 20.6843 32.836 20.0683 32.572 19.3643C32.308 18.6603 32.176 17.9123 32.176 17.0323C32.176 16.1963 32.308 15.4043 32.572 14.7443C32.836 14.0403 33.188 13.4683 33.672 12.9843C34.156 12.5003 34.684 12.1043 35.344 11.8403C36.004 11.5763 36.708 11.4443 37.456 11.4443C38.248 11.4443 38.952 11.5763 39.612 11.8403C40.272 12.1043 40.8 12.5003 41.284 12.9843C41.768 13.4683 42.12 14.0843 42.384 14.7443C42.604 15.4043 42.736 16.1523 42.736 17.0323ZM39.612 17.0323C39.612 16.1083 39.436 15.3603 39.04 14.8323C38.644 14.3043 38.116 14.0403 37.456 14.0403C36.752 14.0403 36.224 14.3043 35.828 14.8323C35.432 15.3603 35.256 16.1083 35.256 17.0323C35.256 17.9563 35.432 18.7043 35.828 19.2763C36.224 19.8483 36.752 20.1123 37.456 20.1123C38.16 20.1123 38.688 19.8483 39.04 19.2763C39.436 18.7043 39.612 17.9563 39.612 17.0323Z" fill="white"></path>
      <path d="M18.8879 30.0562H20.1639V29.6162H18.8879V28.9122H20.3399V28.4722H18.3159V31.3762H20.4279V30.9362H18.8879V30.0562ZM24.5639 30.3642C24.4759 30.2322 24.3439 30.0562 24.2119 29.8802C24.0799 29.7042 23.9479 29.5282 23.8159 29.3522C23.6839 29.1762 23.5519 29.0002 23.4199 28.8682C23.2879 28.6922 23.1559 28.5602 23.0239 28.4722H22.5399V31.3762H23.1119V29.3082C23.2439 29.4402 23.3759 29.6162 23.5079 29.7922C23.6399 29.9682 23.7719 30.1442 23.9039 30.3202C24.0359 30.4962 24.1679 30.6722 24.2999 30.8922C24.4319 31.0682 24.5199 31.2442 24.6519 31.4202H25.1359V28.5162H24.5639V30.3642ZM27.2039 28.9122H28.1719V31.3762H28.7439V28.9122H29.7119V28.4722H27.2039V28.9122ZM32.3079 30.0562H33.5839V29.6162H32.3079V28.9122H33.7599V28.4722H31.7359V31.3762H33.8479V30.9362H32.3079V30.0562ZM38.0279 30.6722C37.9399 30.5842 37.8959 30.4522 37.8079 30.3642C37.7199 30.2762 37.6759 30.1882 37.6319 30.1442C38.0279 30.0122 38.2479 29.7482 38.2479 29.3522C38.2479 29.0442 38.1159 28.7802 37.8959 28.6482C37.6759 28.5162 37.3239 28.4282 36.8839 28.4282C36.7519 28.4282 36.6199 28.4282 36.4439 28.4282C36.2679 28.4282 36.1359 28.4722 36.0039 28.4722V31.3322H36.5759V30.2322H36.8399C36.8839 30.2322 36.8839 30.2322 36.9279 30.2322C36.9719 30.2322 36.9719 30.2322 37.0159 30.2322C37.0599 30.3202 37.1479 30.3642 37.1919 30.4522C37.2799 30.5402 37.3239 30.6282 37.4119 30.7162C37.4999 30.8042 37.5439 30.8922 37.6319 31.0242C37.7199 31.1122 37.7639 31.2442 37.8079 31.3322H38.4239C38.3799 31.2442 38.2919 31.1122 38.2479 30.9802C38.2039 30.8922 38.1159 30.8042 38.0279 30.6722ZM37.5879 29.5722C37.5439 29.6162 37.4999 29.7042 37.4119 29.7042C37.3239 29.7482 37.2359 29.7482 37.1479 29.7922C37.0599 29.7922 36.9279 29.7922 36.7959 29.7922H36.5319V28.8682C36.6199 28.8682 36.7519 28.8682 36.8839 28.8682C37.0159 28.8682 37.1039 28.8682 37.1919 28.9122C37.2799 28.9122 37.3679 28.9562 37.4119 29.0002C37.4999 29.0442 37.5439 29.0882 37.5879 29.1322C37.6319 29.1762 37.6319 29.2642 37.6319 29.3522C37.6759 29.4402 37.6319 29.5282 37.5879 29.5722ZM40.1839 28.9122H41.1519V31.3762H41.7239V28.9122H42.6919V28.4722H40.1839V28.9122ZM46.5199 29.7482C46.4319 29.5282 46.2999 29.3082 46.2119 29.0882C46.1239 28.8682 45.9919 28.6482 45.9039 28.4722H45.3759C45.2879 28.6922 45.1559 28.8682 45.0679 29.0882C44.9799 29.3082 44.8479 29.5282 44.7599 29.7482C44.6719 29.9682 44.5399 30.2322 44.4519 30.4962C44.3639 30.7602 44.2319 31.0242 44.0999 31.3762H44.6719C44.7159 31.2442 44.7599 31.1562 44.8039 31.0242C44.8479 30.8922 44.8919 30.8042 44.9359 30.6722H46.2559C46.2999 30.8042 46.3439 30.8922 46.3879 31.0242C46.4319 31.1562 46.4759 31.2442 46.5199 31.3762H47.1359C47.0039 31.0682 46.9159 30.7602 46.7839 30.4962C46.7399 30.2322 46.6079 29.9682 46.5199 29.7482ZM45.1119 30.2322C45.1999 29.9682 45.2879 29.7482 45.3759 29.5282C45.4639 29.3082 45.5519 29.1322 45.5959 29.0002C45.6839 29.1322 45.7279 29.3082 45.8159 29.5282C45.9039 29.7482 45.9919 29.9682 46.0799 30.2322H45.1119ZM49.1599 31.3322H49.7319V28.4282H49.1599V31.3322ZM54.1319 30.3642C54.0439 30.2322 53.9119 30.0562 53.7799 29.8802C53.6479 29.7042 53.5159 29.5282 53.3839 29.3522C53.2519 29.1762 53.1199 29.0002 52.9879 28.8682C52.8559 28.6922 52.7239 28.5602 52.5919 28.4722H52.1079V31.3762H52.6799V29.3082C52.8119 29.4402 52.9439 29.6162 53.0759 29.7922C53.2079 29.9682 53.3399 30.1442 53.4719 30.3202C53.6039 30.4962 53.7359 30.6722 53.8679 30.8922C53.9999 31.0682 54.0879 31.2442 54.2199 31.4202H54.7039V28.5162H54.1319V30.3642ZM60.2919 29.8362C60.2919 29.5722 60.2479 29.3522 60.2039 29.0882C60.1599 28.8682 60.1599 28.6042 60.1159 28.4282H59.5879C59.4999 28.5162 59.4559 28.6482 59.3679 28.8242C59.2799 28.9562 59.1919 29.1322 59.1039 29.3082C59.0159 29.4842 58.9279 29.6602 58.8399 29.8362C58.7519 30.0122 58.6639 30.1882 58.6199 30.3202C58.5319 30.1882 58.4879 30.0122 58.3999 29.8362C58.3119 29.6602 58.2239 29.4842 58.1359 29.3082C58.0479 29.1322 57.9599 28.9562 57.8719 28.8242C57.7839 28.6922 57.6959 28.5602 57.6519 28.4282H57.1239C57.0799 28.6482 57.0799 28.8682 57.0359 29.0882C56.9919 29.3082 56.9919 29.5722 56.9479 29.8362C56.9479 30.1002 56.9039 30.3642 56.9039 30.5842C56.9039 30.8482 56.8599 31.0682 56.8599 31.3322H57.4319C57.4319 30.9802 57.4759 30.6282 57.4759 30.2762C57.4759 29.9242 57.5199 29.5722 57.5639 29.2202C57.6079 29.2642 57.6519 29.3522 57.6959 29.4402C57.7399 29.5282 57.7839 29.6162 57.8279 29.7482C57.8719 29.8362 57.9159 29.9682 58.0039 30.0562C58.0479 30.1882 58.0919 30.2762 58.1359 30.3642C58.1799 30.4522 58.2239 30.5842 58.2679 30.6722C58.3119 30.7602 58.3559 30.8482 58.3559 30.8922H58.7959C58.8399 30.8482 58.8399 30.7602 58.8839 30.6722C58.9279 30.5842 58.9719 30.4962 59.0159 30.3642C59.0599 30.2762 59.1039 30.1442 59.1479 30.0562C59.1919 29.9242 59.2359 29.8362 59.3239 29.7482C59.3679 29.6602 59.4119 29.5282 59.4559 29.4402C59.4999 29.3522 59.5439 29.2642 59.5879 29.2202C59.6319 29.5722 59.6319 29.8802 59.6759 30.2762C59.6759 30.6282 59.7199 30.9802 59.7199 31.3322H60.2919C60.2919 31.1122 60.2479 30.8482 60.2479 30.5842C60.3359 30.3642 60.2919 30.1002 60.2919 29.8362ZM63.2399 30.0562H64.5159V29.6162H63.2399V28.9122H64.6919V28.4722H62.6679V31.3762H64.7799V30.9362H63.2399V30.0562ZM68.9599 30.3642C68.8719 30.2322 68.7399 30.0562 68.6079 29.8802C68.4759 29.7042 68.3439 29.5282 68.2119 29.3522C68.0799 29.1762 67.9479 29.0002 67.8159 28.8682C67.6839 28.6922 67.5519 28.5602 67.4199 28.4722H66.9359V31.3762H67.5079V29.3082C67.6399 29.4402 67.7719 29.6162 67.9039 29.7922C68.0359 29.9682 68.1679 30.1442 68.2999 30.3202C68.4319 30.4962 68.5639 30.6722 68.6959 30.8922C68.8279 31.0682 68.9159 31.2442 69.0479 31.4202H69.5319V28.5162H68.9599V30.3642ZM71.5559 28.4282V28.8682H72.5239V31.3322H73.0959V28.8682H74.0639V28.4282H71.5559Z" fill="white"></path>
    </g>
  </g>
  <defs>
    <clipPath id="clip0_1_320">
      <rect width="94" height="40" fill="white"></rect>
    </clipPath>
  </defs>
</svg>
