<?xml version="1.0" encoding="UTF-8"?>
<svg xmlns="http://www.w3.org/2000/svg" width="117" height="40" viewBox="0 0 117 40" fill="none">
  <g clip-path="url(#clip0_1_309)">
    <g opacity="0.6">
      <path d="M28.396 21.336H32.54L30.447 18.291L28.396 21.336Z" fill="white"></path>
      <path d="M105.893 14.3501H92.2991H91.9561V14.6931V16.7371V17.0801H92.2991H97.5981V26.0191V26.3621H97.9481H100.244H100.587V26.0191V17.0801H105.893H106.236V16.7371V14.6931V14.3501H105.893Z" fill="white"></path>
      <path d="M66.7 14.168L66.595 14H10V26.369H60.813L62.213 24.269H70.235L71.6 26.215L71.705 26.362H75.1L74.729 25.823L66.7 14.168ZM23.181 19.726V23.226L23.09 23.303C21.97 24.262 20.29 24.752 18.19 24.752C14.445 24.752 12.205 23.051 12.205 20.195C12.164 18.827 12.8137 17.5301 13.934 16.744C15.1864 15.9484 16.6513 15.5529 18.134 15.61C20.234 15.61 21.683 16.023 22.775 16.905L22.978 17.073L22.81 17.276L22.11 18.2L21.942 18.41L21.732 18.235C21.032 17.626 20.115 17.22 18.134 17.22C15.488 17.22 14.151 18.2 14.151 20.181C14.151 22.162 15.453 23.156 18.134 23.156C19.2632 23.2325 20.3911 22.99 21.389 22.456V21.126H17.259V19.46H23.188L23.181 19.726ZM36.397 24.626H34.787L34.703 24.5L33.674 23.002H27.297L26.296 24.5L26.219 24.619H24.168L24.448 24.206L30.202 15.617L30.3 15.505H30.685L30.762 15.617L36.6 24.185L36.887 24.598L36.397 24.626ZM50.397 15.911V24.598H48.5V19.348L44.818 22.848L44.741 22.918H44.426L44.349 22.848L40.443 19.348V24.619H38.539V15.624H39.029L39.106 15.694L44.573 20.699L49.816 15.701L49.9 15.624H50.39L50.397 15.911ZM63.473 16.191L62.682 17.353L62.605 17.5H55.297V19.236H61.45L61.184 19.649L60.442 20.776L60.365 20.895H55.297V22.883H59.063L58.797 23.296L58.02 24.5L57.943 24.619H53.4V15.757H63.725L63.473 16.191ZM64.005 21.63L66.189 18.389L68.415 21.63H64.005Z" fill="white"></path>
      <path d="M87.2661 21.777C89.9611 21.077 90.3881 19.25 90.3881 18.179C90.4504 17.0057 89.8716 15.8909 88.8761 15.267C87.559 14.5678 86.0729 14.2502 84.5851 14.35H76.4301V26.369H79.4191V22.071H83.7591L87.5531 26.271L87.6581 26.383H91.4171L90.8921 25.809L87.2661 21.777ZM84.3961 19.481H79.4191V17.031H84.3961C87.3431 17.031 87.3431 17.675 87.3431 18.249C87.3431 18.823 87.3431 19.481 84.3961 19.481Z" fill="white"></path>
    </g>
  </g>
  <defs>
    <clipPath id="clip0_1_309">
      <rect width="117" height="40" fill="white"></rect>
    </clipPath>
  </defs>
</svg>
