<?xml version="1.0" encoding="UTF-8"?>
<svg xmlns="http://www.w3.org/2000/svg" width="135" height="40" viewBox="0 0 135 40" fill="none">
  <g clip-path="url(#clip0_1_284)">
    <g opacity="0.6">
      <path d="M121.04 16.5271H120.375V14.6281H119.754V14.0591H121.705V14.6281H121.04V16.5271Z" fill="white"></path>
      <path d="M125.133 16.5271H124.483L124.528 14.6355H124.513L123.899 16.5271H123.33L122.695 14.6355H122.673L122.732 16.5271H122.082V14.0591H123.124L123.596 15.6035H123.619L124.062 14.0591H125.133V16.5271Z" fill="white"></path>
      <path d="M43.8801 24.3748H41.0648V20.2515H37.4145V24.3748H34.5991V13.8745H37.4145V17.8426H41.0648V13.8745H43.8801V24.3748Z" fill="white"></path>
      <path d="M48.3654 22.5644L47.863 24.3748H44.9368L48.0846 13.8745H52.3483L55.5405 24.3748H52.6734L52.1192 22.5644H48.3654ZM50.2571 15.9731L48.964 20.5397H51.5724L50.2571 15.9731Z" fill="white"></path>
      <path d="M56.6046 13.8745H62.3166C63.2698 13.8819 64.0309 14.0666 64.5999 14.4139C65.1689 14.7686 65.4497 15.4854 65.4497 16.5642C65.4497 17.1702 65.3684 17.7022 65.2058 18.1456C65.0433 18.5889 64.5777 18.8771 63.8166 19.0027V19.084C64.526 19.1579 65.0063 19.3796 65.2575 19.7638C65.5014 20.1407 65.627 20.6727 65.627 21.3673C65.627 22.5422 65.3906 23.3403 64.925 23.7541C64.4595 24.1679 63.6023 24.3748 62.3683 24.3748H56.6046V13.8745ZM61.2156 18.0791C61.2599 18.0864 61.2969 18.0938 61.3412 18.0938C61.3855 18.0938 61.4225 18.0938 61.452 18.0938C61.7846 18.0864 62.0727 18.0421 62.3092 17.9608C62.5457 17.8869 62.6639 17.6283 62.6639 17.1997C62.6639 16.8229 62.5974 16.5642 62.4644 16.4164C62.3314 16.2761 62.0801 16.2022 61.7033 16.2022H59.42V18.0791H61.2156ZM61.2895 22.0619C61.7328 22.0693 62.0949 22.0324 62.3831 21.9437C62.6713 21.855 62.8117 21.552 62.8117 21.0348C62.8117 20.5397 62.7008 20.2515 62.4718 20.1629C62.2427 20.0742 61.9102 20.0298 61.4742 20.0298H59.4126V22.0619H61.2895Z" fill="white"></path>
      <path d="M69.366 22.5644L68.8636 24.3748H65.9374L69.0852 13.8745H73.3489L76.5485 24.3748H73.6814L73.1272 22.5644H69.366ZM71.2577 15.9731L69.972 20.5397H72.5804L71.2577 15.9731Z" fill="white"></path>
      <path d="M87.7728 24.3748H82.9993L80.0436 16.2982H79.918L80.0436 24.3748H77.2874V13.8745H82.0239L84.9797 21.855H85.0979L84.9797 13.8745H87.7728V24.3748Z" fill="white"></path>
      <path d="M91.97 18.0791H96.4406V20.0298H91.97V22.0619H96.8544V24.3748H89.1547V13.8745H96.7583V16.1948H91.97V18.0791Z" fill="white"></path>
      <path d="M98.1771 13.8745H103.468C104.813 13.8819 105.773 14.111 106.35 14.5617C106.926 15.0051 107.214 15.9361 107.214 17.3401C107.214 18.1234 107.126 18.7663 106.956 19.254C106.786 19.7417 106.209 20.089 105.234 20.3032V20.3993C105.884 20.4436 106.365 20.6358 106.675 20.9905C106.985 21.3451 107.14 21.8402 107.14 22.4757V24.3822H104.273V22.9856C104.273 22.5644 104.192 22.2319 104.029 21.988C103.867 21.7442 103.557 21.6186 103.091 21.6186H101V24.3896H98.1845V13.8745H98.1771ZM103.231 19.1948C103.741 19.2022 104.059 19.0914 104.17 18.8475C104.281 18.6037 104.332 18.2564 104.332 17.8056C104.332 17.2958 104.273 16.9115 104.155 16.6751C104.037 16.4312 103.682 16.313 103.084 16.313L100.992 16.2982V19.1948H103.231Z" fill="white"></path>
      <path d="M108.315 18.574C108.315 18.3598 108.323 18.1455 108.33 17.9386C108.337 17.7317 108.36 17.5174 108.382 17.3031C108.404 17.0888 108.426 16.8745 108.456 16.6676C108.655 15.4927 109.195 14.7316 110.067 14.3843C110.939 14.037 111.877 13.8522 112.882 13.8301C112.934 13.8301 112.985 13.8301 113.037 13.8301C113.089 13.8301 113.141 13.8301 113.192 13.8301C115.01 13.8301 116.281 14.133 117.005 14.7537C117.729 15.3671 118.091 16.6233 118.091 18.5223C118.091 20.4657 117.877 21.9362 117.456 22.9485C117.027 23.9535 115.638 24.456 113.274 24.456C113.104 24.456 112.934 24.456 112.756 24.4486C112.579 24.4412 112.402 24.4338 112.224 24.4264C111.426 24.3969 110.673 24.2343 109.971 23.9387C109.269 23.6431 108.788 23.0594 108.537 22.1727C108.434 21.818 108.367 21.4559 108.345 21.0864C108.323 20.717 108.315 20.3549 108.315 19.9854V19.1947C108.315 18.9952 108.315 18.7883 108.315 18.574ZM111.19 19.1504V19.7785C111.19 20.5248 111.271 21.0938 111.426 21.4781C111.581 21.8697 112.099 22.0618 112.971 22.0618C113.939 22.0618 114.552 21.9066 114.803 21.5963C115.062 21.2859 115.187 20.6874 115.187 19.7933C115.187 19.6677 115.187 19.542 115.187 19.4164C115.187 19.2908 115.195 19.1578 115.202 19.0248C115.202 18.8992 115.202 18.7736 115.202 18.6479C115.202 18.5223 115.202 18.3967 115.202 18.2711C115.202 17.5691 115.099 17.0518 114.899 16.7267C114.7 16.4016 114.219 16.239 113.466 16.239C112.372 16.239 111.722 16.3868 111.522 16.6824C111.315 16.9779 111.205 17.7834 111.182 19.1061C111.182 19.1135 111.182 19.1282 111.182 19.1356C111.182 19.143 111.182 19.1578 111.182 19.1652V19.1504H111.19Z" fill="white"></path>
      <path d="M18.9411 8.15541C19.2293 8.15541 19.4657 7.91895 19.4657 7.63077V6.11595C19.4657 5.82777 19.2293 5.59131 18.9411 5.59131C18.6529 5.59131 18.4164 5.82777 18.4164 6.11595V7.63077C18.409 7.92634 18.6455 8.15541 18.9411 8.15541Z" fill="white"></path>
      <path d="M16.8352 9.5519C17.1234 9.5519 17.3598 9.31544 17.3598 9.02725V7.51244C17.3598 7.22425 17.1234 6.98779 16.8352 6.98779C16.547 6.98779 16.3105 7.22425 16.3105 7.51244V9.03464C16.3105 9.31544 16.547 9.5519 16.8352 9.5519Z" fill="white"></path>
      <path d="M16.8352 6.0419C17.1234 6.0419 17.3598 5.80544 17.3598 5.51725V5.52464C17.3598 5.23646 17.1234 5 16.8352 5C16.547 5 16.3105 5.23646 16.3105 5.52464V5.51725C16.3105 5.80544 16.547 6.0419 16.8352 6.0419Z" fill="white"></path>
      <path d="M21.0397 9.9584C21.3278 9.9584 21.5643 9.72194 21.5643 9.43376V9.44115C21.5643 9.15296 21.3278 8.9165 21.0397 8.9165C20.7515 8.9165 20.515 9.15296 20.515 9.44115V9.43376C20.515 9.72194 20.7515 9.9584 21.0397 9.9584Z" fill="white"></path>
      <path d="M25.2368 13.8745C24.9487 13.8745 24.7122 14.111 24.7122 14.3992V14.6282V14.6652H24.7048C24.6826 14.9386 24.461 15.1529 24.1802 15.1529C23.892 15.1529 23.6555 14.9164 23.6555 14.6282V14.0593V13.3942C23.6555 13.106 23.4191 12.8696 23.1309 12.8696C22.8427 12.8696 22.6062 13.106 22.6062 13.3942V13.4533V13.3499C22.6062 13.6381 22.3698 13.8745 22.0816 13.8745C21.7934 13.8745 21.5569 13.6381 21.5569 13.3499V12.8474V11.1552C21.5569 10.8671 21.3205 10.6306 21.0323 10.6306C20.7441 10.6306 20.5077 10.8671 20.5077 11.1552V11.9902V12.2415L20.4559 12.2119C20.3747 12.3893 20.1973 12.5149 19.983 12.5149C19.6948 12.5149 19.4584 12.2858 19.4584 11.9902V11.6356V9.63304C19.4584 9.34486 19.2219 9.1084 18.9337 9.1084C18.6455 9.1084 18.4091 9.34486 18.4091 9.63304V11.037V11.6873C18.4091 11.9755 18.1726 12.2119 17.8844 12.2119C17.5963 12.2119 17.3598 11.9755 17.3598 11.6873V11.0296V10.9557C17.3598 10.6676 17.1233 10.4311 16.8352 10.4311C16.547 10.4311 16.3105 10.6676 16.3105 10.9557V11.6429V12.5371C16.3105 12.8252 16.074 13.0617 15.7859 13.0617C15.4977 13.0617 15.2612 12.8252 15.2612 12.5371V12.2489V10.335C15.2612 10.0468 15.0248 9.81039 14.7366 9.81039C14.4484 9.81039 14.2119 10.0468 14.2119 10.335V12.8474V13.6972C14.2119 13.9854 13.9755 14.2218 13.6873 14.2218C13.3991 14.2218 13.1626 13.9854 13.1626 13.6972V13.4533V12.8031C13.1626 12.5149 12.9262 12.2784 12.638 12.2784C12.3498 12.2784 12.1134 12.5149 12.1134 12.8031V14.0593V15.2785C12.1134 15.5667 11.8769 15.8032 11.5887 15.8032C11.3005 15.8032 11.0641 15.5667 11.0641 15.2785V14.6652V14.4657C11.0641 14.1775 10.835 13.941 10.5394 13.941C10.2512 13.941 10.0148 14.1775 10.0148 14.4657V15.2711L10 15.2785V24.3748L17.8844 28.9266L25.7689 24.3748V18.6185C25.7689 18.6111 25.7689 18.6037 25.7689 18.5963V14.4066C25.7689 14.111 25.5324 13.8745 25.2368 13.8745ZM21.5939 22.7787H19.1185V20.8944H16.643V22.7787H14.1676V16.8746H16.643V18.8623H19.1185V16.8746H21.5939V22.7787Z" fill="white"></path>
    </g>
  </g>
  <defs>
    <clipPath id="clip0_1_284">
      <rect width="135" height="40" fill="white"></rect>
    </clipPath>
  </defs>
</svg>
