<?xml version="1.0" encoding="UTF-8"?>
<svg xmlns="http://www.w3.org/2000/svg" width="78" height="40" viewBox="0 0 78 40" fill="none">
  <g clip-path="url(#clip0_1_510)">
    <rect x="1.01856" y="0.808108" width="25.3207" height="25.3207" stroke="#FFC800" stroke-width="1.61622"></rect>
    <path d="M8.02368 6.7345L13.9498 10.5057L19.8759 6.7345" stroke="#FFC800" stroke-width="1.61622"></path>
    <path d="M12.3332 20.472L12.3336 12.7953L6.13821 9.15883" stroke="#FFC800" stroke-width="1.61622"></path>
    <path d="M15.2954 20.472L15.2954 12.795L21.4909 9.15853" stroke="#FFC800" stroke-width="1.61622"></path>
    <mask id="path-5-inside-1_1_510" fill="white">
      <path d="M27.1484 0H50.8529V26.9369H27.1484V0Z"></path>
    </mask>
    <path d="M27.1484 1.61622H50.8529V-1.61622H27.1484V1.61622ZM50.8529 25.3207H27.1484V28.5532H50.8529V25.3207Z" fill="#FFC800" mask="url(#path-5-inside-1_1_510)"></path>
    <path d="M33.3477 6.7345L39.2738 10.5057L45.1999 6.7345" stroke="#FFC800" stroke-width="1.61622"></path>
    <path d="M37.6572 20.472L37.6576 12.7953L31.4622 9.15883" stroke="#FFC800" stroke-width="1.61622"></path>
    <path d="M40.6196 20.472L40.6196 12.795L46.8151 9.15853" stroke="#FFC800" stroke-width="1.61622"></path>
    <rect x="51.6577" y="0.808108" width="25.3207" height="25.3207" stroke="#FFC800" stroke-width="1.61622"></rect>
    <path d="M58.6626 6.7345L64.5887 10.5057L70.5148 6.7345" stroke="#FFC800" stroke-width="1.61622"></path>
    <path d="M62.9721 20.472L62.9726 12.7953L56.7771 9.15883" stroke="#FFC800" stroke-width="1.61622"></path>
    <path d="M65.9343 20.472L65.9343 12.795L72.1298 9.15853" stroke="#FFC800" stroke-width="1.61622"></path>
  </g>
  <path d="M23.7292 34.3069H22.5631V33.2345C22.5631 32.6777 22.4895 32.5727 22.0588 32.5727C21.6176 32.5727 21.5441 32.6882 21.5441 33.2345V38.2456C21.5441 38.8234 21.6176 38.9284 22.0588 38.9284C22.4895 38.9284 22.5631 38.8234 22.5631 38.2456V36.8618H23.7292V38.2456C23.7292 39.8004 23.414 40 22.0588 40C20.6301 40 20.3359 39.7794 20.3359 38.2456V33.2345C20.3359 31.7112 20.6826 31.4906 22.0588 31.4906C23.414 31.4906 23.7292 31.7007 23.7292 33.2345V34.3069Z" fill="#FFC800"></path>
  <path d="M37.9427 34.285H36.7661V33.2555C36.7661 32.6672 36.7135 32.5727 36.2513 32.5727C35.7891 32.5727 35.7365 32.6672 35.7365 33.2555V34.0749C35.7365 34.4111 35.7786 34.5267 36.0517 34.6947C36.2828 34.8418 36.7135 35.0309 37.1863 35.3251C37.9006 35.7663 37.9847 35.9869 37.9847 36.9114V38.2456C37.9847 39.7794 37.6905 40 36.2618 40C34.8961 40 34.5704 39.8004 34.5704 38.2456V36.5962H35.747V38.2456C35.747 38.8234 35.8101 38.9284 36.2513 38.9284C36.703 38.9284 36.7661 38.8234 36.7661 38.2456V36.9954C36.7661 36.5542 36.7451 36.4071 36.4824 36.2285C36.1988 36.0289 35.5895 35.7348 35.1903 35.4721C34.6019 35.0834 34.5284 34.8313 34.5284 34.0539V33.2555C34.5284 31.7112 34.8121 31.4906 36.2303 31.4906C37.6485 31.4906 37.9427 31.7112 37.9427 33.2555V34.285Z" fill="#FFC800"></path>
  <path d="M42.9488 31.5957V39.8949H41.7407V31.5957H42.9488Z" fill="#FFC800"></path>
  <path d="M50.44 39.8949H49.1478L47.8977 34.7158H47.8557V39.8949H46.8156V31.5957H48.1498L49.3474 36.9219H49.3895V31.5957H50.44V39.8949Z" fill="#FFC800"></path>
  <path d="M57.6639 33.2345V38.2456C57.6639 39.7899 57.3593 40 55.9305 40C54.5018 40 54.2077 39.7899 54.2077 38.2456V33.2345C54.2077 31.7007 54.5018 31.4906 55.9305 31.4906C57.3593 31.4906 57.6639 31.7007 57.6639 33.2345ZM56.4453 38.2456V33.2345C56.4453 32.6777 56.3718 32.5727 55.9411 32.5727C55.4893 32.5727 55.4158 32.6882 55.4158 33.2345V38.2456C55.4158 38.8234 55.4893 38.9284 55.92 38.9284C56.3823 38.9284 56.4453 38.8024 56.4453 38.2456Z" fill="#FFC800"></path>
  <path d="M29.8619 39.9757L29.6029 37.6613H28.5254L28.256 39.9756L27.0702 39.9757L28.2823 31.6253H29.9179L31.0019 39.9757H29.8619ZM28.6601 36.6591H29.4682L29.0904 32.5681L28.6601 36.6591Z" fill="#FFC800"></path>
  <defs>
    <clipPath id="clip0_1_510">
      <rect width="77.5784" height="26.9369" fill="white" transform="translate(0.210693)"></rect>
    </clipPath>
  </defs>
</svg>
