<?xml version="1.0" encoding="UTF-8"?>
<svg xmlns="http://www.w3.org/2000/svg" width="25" height="24" viewBox="0 0 25 24" fill="none">
  <path d="M18.5 4.99978H19.5V5.99978C19.5 6.26499 19.6054 6.51935 19.7929 6.70688C19.9804 6.89442 20.2348 6.99978 20.5 6.99978C20.7652 6.99978 21.0196 6.89442 21.2071 6.70688C21.3946 6.51935 21.5 6.26499 21.5 5.99978V4.99978H22.5C22.7652 4.99978 23.0196 4.89442 23.2071 4.70689C23.3946 4.51935 23.5 4.265 23.5 3.99978C23.5 3.73456 23.3946 3.48021 23.2071 3.29267C23.0196 3.10514 22.7652 2.99978 22.5 2.99978H21.5V1.99978C21.5 1.73456 21.3946 1.48021 21.2071 1.29267C21.0196 1.10514 20.7652 0.999778 20.5 0.999778C20.2348 0.999778 19.9804 1.10514 19.7929 1.29267C19.6054 1.48021 19.5 1.73456 19.5 1.99978V2.99978H18.5C18.2348 2.99978 17.9804 3.10514 17.7929 3.29267C17.6054 3.48021 17.5 3.73456 17.5 3.99978C17.5 4.265 17.6054 4.51935 17.7929 4.70689C17.9804 4.89442 18.2348 4.99978 18.5 4.99978ZM7.5 6.99978V16.9998C7.5 17.265 7.60536 17.5194 7.7929 17.7069C7.98043 17.8944 8.23479 17.9998 8.5 17.9998C8.76522 17.9998 9.01958 17.8944 9.20711 17.7069C9.39465 17.5194 9.5 17.265 9.5 16.9998V6.99978C9.5 6.73456 9.39465 6.48021 9.20711 6.29267C9.01958 6.10514 8.76522 5.99978 8.5 5.99978C8.23479 5.99978 7.98043 6.10514 7.7929 6.29267C7.60536 6.48021 7.5 6.73456 7.5 6.99978ZM22.1 8.99978C21.9713 9.02602 21.849 9.07736 21.7402 9.15087C21.6313 9.22438 21.538 9.31861 21.4656 9.42819C21.3931 9.53777 21.343 9.66055 21.318 9.78951C21.293 9.91846 21.2937 10.0511 21.32 10.1798C21.7104 12.076 21.479 14.0475 20.6601 15.8018C19.8412 17.5561 18.4785 18.9995 16.7741 19.9178C15.0698 20.8362 13.1148 21.1805 11.1993 20.8996C9.28381 20.6188 7.50992 19.7278 6.14097 18.3588C4.77202 16.9899 3.88099 15.216 3.60014 13.3005C3.31929 11.385 3.66359 9.42995 4.58194 7.72564C5.50028 6.02133 6.94372 4.65858 8.69798 3.83966C10.4522 3.02075 12.4238 2.78934 14.32 3.17978C14.5852 3.23282 14.8606 3.17834 15.0857 3.02831C15.3107 2.87828 15.467 2.64499 15.52 2.37978C15.573 2.11456 15.5186 1.83914 15.3685 1.61409C15.2185 1.38905 14.9852 1.23282 14.72 1.17978C13.9882 1.04343 13.2442 0.983109 12.5 0.999778C10.3244 0.999778 8.19767 1.64492 6.38873 2.85361C4.57979 4.06231 3.16989 5.78027 2.33733 7.79026C1.50477 9.80025 1.28693 12.012 1.71137 14.1458C2.1358 16.2796 3.18345 18.2396 4.72183 19.778C6.26021 21.3163 8.22022 22.364 10.354 22.7884C12.4878 23.2129 14.6995 22.995 16.7095 22.1625C18.7195 21.3299 20.4375 19.92 21.6462 18.1111C22.8549 16.3021 23.5 14.1754 23.5 11.9998C23.5021 11.2608 23.4284 10.5237 23.28 9.79978C23.2561 9.66927 23.2064 9.54484 23.1338 9.43373C23.0613 9.32261 22.9674 9.22705 22.8576 9.15259C22.7478 9.07813 22.6242 9.02627 22.4942 9.00004C22.3641 8.9738 22.2301 8.97372 22.1 8.99978ZM11.5 8.99978V9.99978C11.5044 10.7398 11.7822 11.4521 12.28 11.9998C11.7822 12.5474 11.5044 13.2597 11.5 13.9998V14.9998C11.5 15.7954 11.8161 16.5585 12.3787 17.1211C12.9413 17.6837 13.7044 17.9998 14.5 17.9998H15.5C16.2957 17.9998 17.0587 17.6837 17.6213 17.1211C18.1839 16.5585 18.5 15.7954 18.5 14.9998V13.9998C18.4956 13.2597 18.2178 12.5474 17.72 11.9998C18.2178 11.4521 18.4956 10.7398 18.5 9.99978V8.99978C18.5 8.20413 18.1839 7.44107 17.6213 6.87846C17.0587 6.31585 16.2957 5.99978 15.5 5.99978H14.5C13.7044 5.99978 12.9413 6.31585 12.3787 6.87846C11.8161 7.44107 11.5 8.20413 11.5 8.99978ZM16.5 14.9998C16.5 15.265 16.3946 15.5193 16.2071 15.7069C16.0196 15.8944 15.7652 15.9998 15.5 15.9998H14.5C14.2348 15.9998 13.9804 15.8944 13.7929 15.7069C13.6054 15.5193 13.5 15.265 13.5 14.9998V13.9998C13.5 13.7346 13.6054 13.4802 13.7929 13.2927C13.9804 13.1051 14.2348 12.9998 14.5 12.9998H15.5C15.7652 12.9998 16.0196 13.1051 16.2071 13.2927C16.3946 13.4802 16.5 13.7346 16.5 13.9998V14.9998ZM16.5 8.99978V9.99978C16.5 10.265 16.3946 10.5193 16.2071 10.7069C16.0196 10.8944 15.7652 10.9998 15.5 10.9998H14.5C14.2348 10.9998 13.9804 10.8944 13.7929 10.7069C13.6054 10.5193 13.5 10.265 13.5 9.99978V8.99978C13.5 8.73456 13.6054 8.48021 13.7929 8.29267C13.9804 8.10514 14.2348 7.99978 14.5 7.99978H15.5C15.7652 7.99978 16.0196 8.10514 16.2071 8.29267C16.3946 8.48021 16.5 8.73456 16.5 8.99978Z" fill="white"></path>
</svg>
